G04 (created by PCBNEW (2013-may-18)-stable) date sam. 15 mars 2014 03:05:03 CET*
%MOIN*%
G04 Gerber Fmt 3.4, Leading zero omitted, Abs format*
%FSLAX34Y34*%
G01*
G70*
G90*
G04 APERTURE LIST*
%ADD10C,0.00590551*%
%ADD11C,0.015*%
%ADD12C,0.008*%
%ADD13C,0.012*%
G04 APERTURE END LIST*
G54D10*
G54D11*
X85000Y-58500D02*
X85000Y-54000D01*
X85000Y-54000D02*
X84500Y-53500D01*
X84500Y-53500D02*
X59000Y-53500D01*
X85000Y-74500D02*
X59000Y-74500D01*
X59000Y-74500D02*
X59000Y-53500D01*
X85000Y-58500D02*
X86000Y-59500D01*
X86000Y-59500D02*
X86000Y-72500D01*
X86000Y-72500D02*
X85000Y-73500D01*
X85000Y-73500D02*
X85000Y-74500D01*
G54D12*
X77500Y-62500D02*
X77700Y-62500D01*
X80500Y-62500D02*
X80300Y-62500D01*
X80300Y-62500D02*
X80300Y-62100D01*
X80300Y-62100D02*
X77700Y-62100D01*
X77700Y-62100D02*
X77700Y-62900D01*
X77700Y-62900D02*
X80300Y-62900D01*
X80300Y-62900D02*
X80300Y-62500D01*
X77700Y-62300D02*
X77900Y-62100D01*
G54D10*
X84270Y-73700D02*
X84270Y-73300D01*
X83729Y-73700D02*
X83729Y-73300D01*
X84270Y-73300D02*
G75*
G03X83729Y-73300I-270J0D01*
G74*
G01*
X83729Y-73700D02*
G75*
G03X84270Y-73700I270J0D01*
G74*
G01*
X83270Y-73700D02*
X83270Y-73300D01*
X82729Y-73700D02*
X82729Y-73300D01*
X83270Y-73300D02*
G75*
G03X82729Y-73300I-270J0D01*
G74*
G01*
X82729Y-73700D02*
G75*
G03X83270Y-73700I270J0D01*
G74*
G01*
X82270Y-73700D02*
X82270Y-73300D01*
X81729Y-73700D02*
X81729Y-73300D01*
X82270Y-73300D02*
G75*
G03X81729Y-73300I-270J0D01*
G74*
G01*
X81729Y-73700D02*
G75*
G03X82270Y-73700I270J0D01*
G74*
G01*
X79270Y-73700D02*
X79270Y-73300D01*
X78729Y-73700D02*
X78729Y-73300D01*
X79270Y-73300D02*
G75*
G03X78729Y-73300I-270J0D01*
G74*
G01*
X78729Y-73700D02*
G75*
G03X79270Y-73700I270J0D01*
G74*
G01*
X80270Y-73700D02*
X80270Y-73300D01*
X79729Y-73700D02*
X79729Y-73300D01*
X80270Y-73300D02*
G75*
G03X79729Y-73300I-270J0D01*
G74*
G01*
X79729Y-73700D02*
G75*
G03X80270Y-73700I270J0D01*
G74*
G01*
X81270Y-73700D02*
X81270Y-73300D01*
X80729Y-73700D02*
X80729Y-73300D01*
X81270Y-73300D02*
G75*
G03X80729Y-73300I-270J0D01*
G74*
G01*
X80729Y-73700D02*
G75*
G03X81270Y-73700I270J0D01*
G74*
G01*
X77270Y-73700D02*
X77270Y-73300D01*
X76729Y-73700D02*
X76729Y-73300D01*
X77270Y-73300D02*
G75*
G03X76729Y-73300I-270J0D01*
G74*
G01*
X76729Y-73700D02*
G75*
G03X77270Y-73700I270J0D01*
G74*
G01*
X76270Y-73700D02*
X76270Y-73300D01*
X75729Y-73700D02*
X75729Y-73300D01*
X76270Y-73300D02*
G75*
G03X75729Y-73300I-270J0D01*
G74*
G01*
X75729Y-73700D02*
G75*
G03X76270Y-73700I270J0D01*
G74*
G01*
X75270Y-73700D02*
X75270Y-73300D01*
X74729Y-73700D02*
X74729Y-73300D01*
X75270Y-73300D02*
G75*
G03X74729Y-73300I-270J0D01*
G74*
G01*
X74729Y-73700D02*
G75*
G03X75270Y-73700I270J0D01*
G74*
G01*
X73270Y-73700D02*
X73270Y-73300D01*
X72729Y-73700D02*
X72729Y-73300D01*
X73270Y-73300D02*
G75*
G03X72729Y-73300I-270J0D01*
G74*
G01*
X72729Y-73700D02*
G75*
G03X73270Y-73700I270J0D01*
G74*
G01*
X72270Y-73700D02*
X72270Y-73300D01*
X71729Y-73700D02*
X71729Y-73300D01*
X72270Y-73300D02*
G75*
G03X71729Y-73300I-270J0D01*
G74*
G01*
X71729Y-73700D02*
G75*
G03X72270Y-73700I270J0D01*
G74*
G01*
X84270Y-54700D02*
X84270Y-54300D01*
X83729Y-54700D02*
X83729Y-54300D01*
X84270Y-54300D02*
G75*
G03X83729Y-54300I-270J0D01*
G74*
G01*
X83729Y-54700D02*
G75*
G03X84270Y-54700I270J0D01*
G74*
G01*
X83270Y-54700D02*
X83270Y-54300D01*
X82729Y-54700D02*
X82729Y-54300D01*
X83270Y-54300D02*
G75*
G03X82729Y-54300I-270J0D01*
G74*
G01*
X82729Y-54700D02*
G75*
G03X83270Y-54700I270J0D01*
G74*
G01*
X82270Y-54700D02*
X82270Y-54300D01*
X81729Y-54700D02*
X81729Y-54300D01*
X82270Y-54300D02*
G75*
G03X81729Y-54300I-270J0D01*
G74*
G01*
X81729Y-54700D02*
G75*
G03X82270Y-54700I270J0D01*
G74*
G01*
X81270Y-54700D02*
X81270Y-54300D01*
X80729Y-54700D02*
X80729Y-54300D01*
X81270Y-54300D02*
G75*
G03X80729Y-54300I-270J0D01*
G74*
G01*
X80729Y-54700D02*
G75*
G03X81270Y-54700I270J0D01*
G74*
G01*
X80270Y-54700D02*
X80270Y-54300D01*
X79729Y-54700D02*
X79729Y-54300D01*
X80270Y-54300D02*
G75*
G03X79729Y-54300I-270J0D01*
G74*
G01*
X79729Y-54700D02*
G75*
G03X80270Y-54700I270J0D01*
G74*
G01*
X79270Y-54700D02*
X79270Y-54300D01*
X78729Y-54700D02*
X78729Y-54300D01*
X79270Y-54300D02*
G75*
G03X78729Y-54300I-270J0D01*
G74*
G01*
X78729Y-54700D02*
G75*
G03X79270Y-54700I270J0D01*
G74*
G01*
X78270Y-54700D02*
X78270Y-54300D01*
X77729Y-54700D02*
X77729Y-54300D01*
X78270Y-54300D02*
G75*
G03X77729Y-54300I-270J0D01*
G74*
G01*
X77729Y-54700D02*
G75*
G03X78270Y-54700I270J0D01*
G74*
G01*
X77270Y-54700D02*
X77270Y-54300D01*
X76729Y-54700D02*
X76729Y-54300D01*
X77270Y-54300D02*
G75*
G03X76729Y-54300I-270J0D01*
G74*
G01*
X76729Y-54700D02*
G75*
G03X77270Y-54700I270J0D01*
G74*
G01*
X75670Y-54700D02*
X75670Y-54300D01*
X75129Y-54700D02*
X75129Y-54300D01*
X75670Y-54300D02*
G75*
G03X75129Y-54300I-270J0D01*
G74*
G01*
X75129Y-54700D02*
G75*
G03X75670Y-54700I270J0D01*
G74*
G01*
X74670Y-54700D02*
X74670Y-54300D01*
X74129Y-54700D02*
X74129Y-54300D01*
X74670Y-54300D02*
G75*
G03X74129Y-54300I-270J0D01*
G74*
G01*
X74129Y-54700D02*
G75*
G03X74670Y-54700I270J0D01*
G74*
G01*
X73670Y-54700D02*
X73670Y-54300D01*
X73129Y-54700D02*
X73129Y-54300D01*
X73670Y-54300D02*
G75*
G03X73129Y-54300I-270J0D01*
G74*
G01*
X73129Y-54700D02*
G75*
G03X73670Y-54700I270J0D01*
G74*
G01*
X72670Y-54700D02*
X72670Y-54300D01*
X72129Y-54700D02*
X72129Y-54300D01*
X72670Y-54300D02*
G75*
G03X72129Y-54300I-270J0D01*
G74*
G01*
X72129Y-54700D02*
G75*
G03X72670Y-54700I270J0D01*
G74*
G01*
X71670Y-54700D02*
X71670Y-54300D01*
X71129Y-54700D02*
X71129Y-54300D01*
X71670Y-54300D02*
G75*
G03X71129Y-54300I-270J0D01*
G74*
G01*
X71129Y-54700D02*
G75*
G03X71670Y-54700I270J0D01*
G74*
G01*
X70670Y-54700D02*
X70670Y-54300D01*
X70129Y-54700D02*
X70129Y-54300D01*
X70670Y-54300D02*
G75*
G03X70129Y-54300I-270J0D01*
G74*
G01*
X70129Y-54700D02*
G75*
G03X70670Y-54700I270J0D01*
G74*
G01*
X69670Y-54700D02*
X69670Y-54300D01*
X69129Y-54700D02*
X69129Y-54300D01*
X69670Y-54300D02*
G75*
G03X69129Y-54300I-270J0D01*
G74*
G01*
X69129Y-54700D02*
G75*
G03X69670Y-54700I270J0D01*
G74*
G01*
X68670Y-54700D02*
X68670Y-54300D01*
X68129Y-54700D02*
X68129Y-54300D01*
X68670Y-54300D02*
G75*
G03X68129Y-54300I-270J0D01*
G74*
G01*
X68129Y-54700D02*
G75*
G03X68670Y-54700I270J0D01*
G74*
G01*
X74270Y-73700D02*
X74270Y-73300D01*
X73729Y-73700D02*
X73729Y-73300D01*
X74270Y-73300D02*
G75*
G03X73729Y-73300I-270J0D01*
G74*
G01*
X73729Y-73700D02*
G75*
G03X74270Y-73700I270J0D01*
G74*
G01*
X85745Y-71500D02*
G75*
G03X85745Y-71500I-745J0D01*
G74*
G01*
X85745Y-60500D02*
G75*
G03X85745Y-60500I-745J0D01*
G74*
G01*
X65745Y-54500D02*
G75*
G03X65745Y-54500I-745J0D01*
G74*
G01*
X65245Y-73500D02*
G75*
G03X65245Y-73500I-745J0D01*
G74*
G01*
X77745Y-62500D02*
G75*
G03X77745Y-62500I-245J0D01*
G74*
G01*
X80745Y-62500D02*
G75*
G03X80745Y-62500I-245J0D01*
G74*
G01*
G54D13*
X58271Y-52214D02*
X58357Y-52242D01*
X58500Y-52242D01*
X58557Y-52214D01*
X58585Y-52185D01*
X58614Y-52128D01*
X58614Y-52071D01*
X58585Y-52014D01*
X58557Y-51985D01*
X58500Y-51957D01*
X58385Y-51928D01*
X58328Y-51900D01*
X58300Y-51871D01*
X58271Y-51814D01*
X58271Y-51757D01*
X58300Y-51700D01*
X58328Y-51671D01*
X58385Y-51642D01*
X58528Y-51642D01*
X58614Y-51671D01*
X58871Y-52242D02*
X58871Y-51642D01*
X58871Y-51928D02*
X59214Y-51928D01*
X59214Y-52242D02*
X59214Y-51642D01*
X59500Y-52242D02*
X59500Y-51642D01*
X59785Y-51928D02*
X59985Y-51928D01*
X60071Y-52242D02*
X59785Y-52242D01*
X59785Y-51642D01*
X60071Y-51642D01*
X60614Y-52242D02*
X60328Y-52242D01*
X60328Y-51642D01*
X60814Y-52242D02*
X60814Y-51642D01*
X60957Y-51642D01*
X61042Y-51671D01*
X61099Y-51728D01*
X61128Y-51785D01*
X61157Y-51900D01*
X61157Y-51985D01*
X61128Y-52100D01*
X61099Y-52157D01*
X61042Y-52214D01*
X60957Y-52242D01*
X60814Y-52242D01*
X61728Y-52242D02*
X61385Y-52242D01*
X61557Y-52242D02*
X61557Y-51642D01*
X61499Y-51728D01*
X61442Y-51785D01*
X61385Y-51814D01*
G54D12*
X79154Y-62772D02*
X78988Y-62510D01*
X78869Y-62772D02*
X78869Y-62222D01*
X79059Y-62222D01*
X79107Y-62248D01*
X79130Y-62275D01*
X79154Y-62327D01*
X79154Y-62405D01*
X79130Y-62458D01*
X79107Y-62484D01*
X79059Y-62510D01*
X78869Y-62510D01*
M02*
