M48
;DRILL file {Pcbnew (2013-may-18)-stable} date sam. 15 mars 2014 03:05:10 CET
;FORMAT={2:4/ absolute / inch / keep zeros}
FMAT,2
INCH,TZ
T1C0.032
T2C0.125
%
G90
G05
M72
T1
X068400Y-054500
X069400Y-054500
X070400Y-054500
X071400Y-054500
X072000Y-073500
X072400Y-054500
X073000Y-073500
X073400Y-054500
X074000Y-073500
X074400Y-054500
X075000Y-073500
X075400Y-054500
X076000Y-073500
X077000Y-054500
X077000Y-073500
X077500Y-062500
X078000Y-054500
X079000Y-054500
X079000Y-073500
X080000Y-054500
X080000Y-073500
X080500Y-062500
X081000Y-054500
X081000Y-073500
X082000Y-054500
X082000Y-073500
X083000Y-054500
X083000Y-073500
X084000Y-054500
X084000Y-073500
T2
X064500Y-073500
X065000Y-054500
X085000Y-060500
X085000Y-071500
T0
M30
