G04 (created by PCBNEW (2013-may-18)-stable) date sam. 15 mars 2014 14:50:51 CET*
%MOIN*%
G04 Gerber Fmt 3.4, Leading zero omitted, Abs format*
%FSLAX34Y34*%
G01*
G70*
G90*
G04 APERTURE LIST*
%ADD10C,0.00590551*%
%ADD11O,0.06X0.1*%
%ADD12C,0.155*%
%ADD13C,0.055*%
%ADD14C,0.01*%
G04 APERTURE END LIST*
G54D10*
G54D11*
X84000Y-73500D03*
X83000Y-73500D03*
X82000Y-73500D03*
X79000Y-73500D03*
X80000Y-73500D03*
X81000Y-73500D03*
X77000Y-73500D03*
X76000Y-73500D03*
X75000Y-73500D03*
X73000Y-73500D03*
X72000Y-73500D03*
X84000Y-54500D03*
X83000Y-54500D03*
X82000Y-54500D03*
X81000Y-54500D03*
X80000Y-54500D03*
X79000Y-54500D03*
X78000Y-54500D03*
X77000Y-54500D03*
X75400Y-54500D03*
X74400Y-54500D03*
X73400Y-54500D03*
X72400Y-54500D03*
X71400Y-54500D03*
X70400Y-54500D03*
X69400Y-54500D03*
X68400Y-54500D03*
X74000Y-73500D03*
G54D12*
X85000Y-71500D03*
X85000Y-60500D03*
X65000Y-54500D03*
X64500Y-73500D03*
G54D13*
X77500Y-62500D03*
X80500Y-62500D03*
G54D14*
X80500Y-62500D02*
X79500Y-66500D01*
X83000Y-70000D02*
X84000Y-73500D01*
X79500Y-66500D02*
X83000Y-70000D01*
X77500Y-62500D02*
X77500Y-72000D01*
X77500Y-72000D02*
X79000Y-73500D01*
G54D10*
G36*
X85950Y-72479D02*
X84950Y-73479D01*
X84950Y-74450D01*
X84550Y-74450D01*
X84550Y-73714D01*
X84550Y-73285D01*
X84508Y-73074D01*
X84388Y-72896D01*
X84210Y-72777D01*
X84096Y-72754D01*
X83288Y-69917D01*
X83280Y-69902D01*
X83277Y-69885D01*
X83254Y-69850D01*
X83235Y-69813D01*
X83221Y-69802D01*
X83212Y-69787D01*
X79832Y-66407D01*
X80683Y-62992D01*
X80797Y-62945D01*
X80944Y-62797D01*
X81024Y-62604D01*
X81025Y-62396D01*
X80945Y-62203D01*
X80797Y-62055D01*
X80604Y-61975D01*
X80396Y-61974D01*
X80203Y-62054D01*
X80055Y-62202D01*
X79975Y-62395D01*
X79974Y-62603D01*
X80054Y-62797D01*
X80102Y-62844D01*
X79208Y-66427D01*
X79207Y-66464D01*
X79200Y-66500D01*
X79204Y-66521D01*
X79203Y-66544D01*
X79215Y-66578D01*
X79222Y-66614D01*
X79235Y-66633D01*
X79242Y-66654D01*
X79267Y-66681D01*
X79287Y-66712D01*
X82732Y-70157D01*
X83542Y-72999D01*
X83500Y-73062D01*
X83490Y-73048D01*
X83488Y-73043D01*
X83477Y-73029D01*
X83388Y-72896D01*
X83210Y-72777D01*
X83000Y-72735D01*
X82789Y-72777D01*
X82611Y-72896D01*
X82522Y-73029D01*
X82511Y-73043D01*
X82509Y-73048D01*
X82500Y-73062D01*
X82490Y-73048D01*
X82488Y-73043D01*
X82477Y-73029D01*
X82388Y-72896D01*
X82210Y-72777D01*
X82000Y-72735D01*
X81789Y-72777D01*
X81611Y-72896D01*
X81522Y-73029D01*
X81511Y-73043D01*
X81509Y-73048D01*
X81500Y-73062D01*
X81490Y-73048D01*
X81488Y-73043D01*
X81477Y-73029D01*
X81388Y-72896D01*
X81210Y-72777D01*
X81000Y-72735D01*
X80789Y-72777D01*
X80611Y-72896D01*
X80522Y-73029D01*
X80511Y-73043D01*
X80509Y-73048D01*
X80500Y-73062D01*
X80490Y-73048D01*
X80488Y-73043D01*
X80477Y-73029D01*
X80388Y-72896D01*
X80210Y-72777D01*
X80000Y-72735D01*
X79789Y-72777D01*
X79611Y-72896D01*
X79522Y-73029D01*
X79511Y-73043D01*
X79509Y-73048D01*
X79500Y-73062D01*
X79388Y-72896D01*
X79210Y-72777D01*
X79000Y-72735D01*
X78789Y-72777D01*
X78736Y-72812D01*
X77800Y-71875D01*
X77800Y-62942D01*
X77944Y-62797D01*
X78024Y-62604D01*
X78025Y-62396D01*
X77945Y-62203D01*
X77797Y-62055D01*
X77604Y-61975D01*
X77396Y-61974D01*
X77203Y-62054D01*
X77055Y-62202D01*
X76975Y-62395D01*
X76974Y-62603D01*
X77054Y-62797D01*
X77200Y-62942D01*
X77200Y-72000D01*
X77222Y-72114D01*
X77287Y-72212D01*
X78450Y-73374D01*
X78450Y-73714D01*
X78491Y-73925D01*
X78611Y-74103D01*
X78789Y-74222D01*
X79000Y-74264D01*
X79210Y-74222D01*
X79388Y-74103D01*
X79500Y-73937D01*
X79509Y-73951D01*
X79511Y-73956D01*
X79522Y-73970D01*
X79611Y-74103D01*
X79789Y-74222D01*
X80000Y-74264D01*
X80210Y-74222D01*
X80388Y-74103D01*
X80477Y-73970D01*
X80488Y-73956D01*
X80490Y-73951D01*
X80500Y-73937D01*
X80509Y-73951D01*
X80511Y-73956D01*
X80522Y-73970D01*
X80611Y-74103D01*
X80789Y-74222D01*
X81000Y-74264D01*
X81210Y-74222D01*
X81388Y-74103D01*
X81477Y-73970D01*
X81488Y-73956D01*
X81490Y-73951D01*
X81500Y-73937D01*
X81509Y-73951D01*
X81511Y-73956D01*
X81522Y-73970D01*
X81611Y-74103D01*
X81789Y-74222D01*
X82000Y-74264D01*
X82210Y-74222D01*
X82388Y-74103D01*
X82477Y-73970D01*
X82488Y-73956D01*
X82490Y-73951D01*
X82500Y-73937D01*
X82509Y-73951D01*
X82511Y-73956D01*
X82522Y-73970D01*
X82611Y-74103D01*
X82789Y-74222D01*
X83000Y-74264D01*
X83210Y-74222D01*
X83388Y-74103D01*
X83477Y-73970D01*
X83488Y-73956D01*
X83490Y-73951D01*
X83500Y-73937D01*
X83611Y-74103D01*
X83789Y-74222D01*
X84000Y-74264D01*
X84210Y-74222D01*
X84388Y-74103D01*
X84508Y-73925D01*
X84550Y-73714D01*
X84550Y-74450D01*
X77550Y-74450D01*
X77550Y-73750D01*
X77550Y-73714D01*
X77550Y-73550D01*
X77550Y-73450D01*
X77550Y-73285D01*
X77550Y-73250D01*
X77528Y-73177D01*
X77508Y-73074D01*
X77490Y-73048D01*
X77488Y-73043D01*
X77477Y-73029D01*
X77388Y-72896D01*
X77210Y-72777D01*
X77000Y-72735D01*
X76789Y-72777D01*
X76611Y-72896D01*
X76522Y-73029D01*
X76511Y-73043D01*
X76509Y-73048D01*
X76500Y-73062D01*
X76490Y-73048D01*
X76488Y-73043D01*
X76477Y-73029D01*
X76388Y-72896D01*
X76210Y-72777D01*
X76000Y-72735D01*
X75950Y-72745D01*
X75950Y-54750D01*
X75950Y-54714D01*
X75950Y-54550D01*
X75950Y-54450D01*
X75950Y-54285D01*
X75950Y-54250D01*
X75928Y-54177D01*
X75908Y-54074D01*
X75890Y-54048D01*
X75888Y-54043D01*
X75877Y-54029D01*
X75788Y-53896D01*
X75610Y-53777D01*
X75400Y-53735D01*
X75189Y-53777D01*
X75011Y-53896D01*
X74922Y-54029D01*
X74911Y-54043D01*
X74909Y-54048D01*
X74900Y-54062D01*
X74890Y-54048D01*
X74888Y-54043D01*
X74877Y-54029D01*
X74788Y-53896D01*
X74610Y-53777D01*
X74400Y-53735D01*
X74189Y-53777D01*
X74011Y-53896D01*
X73922Y-54029D01*
X73911Y-54043D01*
X73909Y-54048D01*
X73900Y-54062D01*
X73890Y-54048D01*
X73888Y-54043D01*
X73877Y-54029D01*
X73788Y-53896D01*
X73610Y-53777D01*
X73400Y-53735D01*
X73189Y-53777D01*
X73011Y-53896D01*
X72922Y-54029D01*
X72911Y-54043D01*
X72909Y-54048D01*
X72900Y-54062D01*
X72890Y-54048D01*
X72888Y-54043D01*
X72877Y-54029D01*
X72788Y-53896D01*
X72610Y-53777D01*
X72400Y-53735D01*
X72189Y-53777D01*
X72011Y-53896D01*
X71922Y-54029D01*
X71911Y-54043D01*
X71909Y-54048D01*
X71900Y-54062D01*
X71890Y-54048D01*
X71888Y-54043D01*
X71877Y-54029D01*
X71788Y-53896D01*
X71610Y-53777D01*
X71400Y-53735D01*
X71189Y-53777D01*
X71011Y-53896D01*
X70922Y-54029D01*
X70911Y-54043D01*
X70909Y-54048D01*
X70900Y-54062D01*
X70890Y-54048D01*
X70888Y-54043D01*
X70877Y-54029D01*
X70788Y-53896D01*
X70610Y-53777D01*
X70400Y-53735D01*
X70189Y-53777D01*
X70011Y-53896D01*
X69922Y-54029D01*
X69911Y-54043D01*
X69909Y-54048D01*
X69900Y-54062D01*
X69890Y-54048D01*
X69888Y-54043D01*
X69877Y-54029D01*
X69788Y-53896D01*
X69610Y-53777D01*
X69400Y-53735D01*
X69189Y-53777D01*
X69011Y-53896D01*
X68922Y-54029D01*
X68911Y-54043D01*
X68909Y-54048D01*
X68900Y-54062D01*
X68890Y-54048D01*
X68888Y-54043D01*
X68877Y-54029D01*
X68788Y-53896D01*
X68610Y-53777D01*
X68400Y-53735D01*
X68189Y-53777D01*
X68011Y-53896D01*
X67922Y-54029D01*
X67911Y-54043D01*
X67909Y-54048D01*
X67891Y-54074D01*
X67871Y-54177D01*
X67850Y-54250D01*
X67850Y-54285D01*
X67850Y-54450D01*
X67850Y-54550D01*
X67850Y-54714D01*
X67850Y-54750D01*
X67871Y-54822D01*
X67891Y-54925D01*
X67909Y-54951D01*
X67911Y-54956D01*
X67922Y-54970D01*
X68011Y-55103D01*
X68189Y-55222D01*
X68400Y-55264D01*
X68610Y-55222D01*
X68788Y-55103D01*
X68877Y-54970D01*
X68888Y-54956D01*
X68890Y-54951D01*
X68900Y-54937D01*
X68909Y-54951D01*
X68911Y-54956D01*
X68922Y-54970D01*
X69011Y-55103D01*
X69189Y-55222D01*
X69400Y-55264D01*
X69610Y-55222D01*
X69788Y-55103D01*
X69877Y-54970D01*
X69888Y-54956D01*
X69890Y-54951D01*
X69900Y-54937D01*
X69909Y-54951D01*
X69911Y-54956D01*
X69922Y-54970D01*
X70011Y-55103D01*
X70189Y-55222D01*
X70400Y-55264D01*
X70610Y-55222D01*
X70788Y-55103D01*
X70877Y-54970D01*
X70888Y-54956D01*
X70890Y-54951D01*
X70900Y-54937D01*
X70909Y-54951D01*
X70911Y-54956D01*
X70922Y-54970D01*
X71011Y-55103D01*
X71189Y-55222D01*
X71400Y-55264D01*
X71610Y-55222D01*
X71788Y-55103D01*
X71877Y-54970D01*
X71888Y-54956D01*
X71890Y-54951D01*
X71900Y-54937D01*
X71909Y-54951D01*
X71911Y-54956D01*
X71922Y-54970D01*
X72011Y-55103D01*
X72189Y-55222D01*
X72400Y-55264D01*
X72610Y-55222D01*
X72788Y-55103D01*
X72877Y-54970D01*
X72888Y-54956D01*
X72890Y-54951D01*
X72900Y-54937D01*
X72909Y-54951D01*
X72911Y-54956D01*
X72922Y-54970D01*
X73011Y-55103D01*
X73189Y-55222D01*
X73400Y-55264D01*
X73610Y-55222D01*
X73788Y-55103D01*
X73877Y-54970D01*
X73888Y-54956D01*
X73890Y-54951D01*
X73900Y-54937D01*
X73909Y-54951D01*
X73911Y-54956D01*
X73922Y-54970D01*
X74011Y-55103D01*
X74189Y-55222D01*
X74400Y-55264D01*
X74610Y-55222D01*
X74788Y-55103D01*
X74877Y-54970D01*
X74888Y-54956D01*
X74890Y-54951D01*
X74900Y-54937D01*
X74909Y-54951D01*
X74911Y-54956D01*
X74922Y-54970D01*
X75011Y-55103D01*
X75189Y-55222D01*
X75400Y-55264D01*
X75610Y-55222D01*
X75788Y-55103D01*
X75877Y-54970D01*
X75888Y-54956D01*
X75890Y-54951D01*
X75908Y-54925D01*
X75928Y-54822D01*
X75950Y-54750D01*
X75950Y-72745D01*
X75789Y-72777D01*
X75611Y-72896D01*
X75522Y-73029D01*
X75511Y-73043D01*
X75509Y-73048D01*
X75500Y-73062D01*
X75490Y-73048D01*
X75488Y-73043D01*
X75477Y-73029D01*
X75388Y-72896D01*
X75210Y-72777D01*
X75000Y-72735D01*
X74789Y-72777D01*
X74611Y-72896D01*
X74522Y-73029D01*
X74511Y-73043D01*
X74509Y-73048D01*
X74500Y-73062D01*
X74490Y-73048D01*
X74488Y-73043D01*
X74477Y-73029D01*
X74388Y-72896D01*
X74210Y-72777D01*
X74000Y-72735D01*
X73789Y-72777D01*
X73611Y-72896D01*
X73522Y-73029D01*
X73511Y-73043D01*
X73509Y-73048D01*
X73500Y-73062D01*
X73490Y-73048D01*
X73488Y-73043D01*
X73477Y-73029D01*
X73388Y-72896D01*
X73210Y-72777D01*
X73000Y-72735D01*
X72789Y-72777D01*
X72611Y-72896D01*
X72522Y-73029D01*
X72511Y-73043D01*
X72509Y-73048D01*
X72500Y-73062D01*
X72490Y-73048D01*
X72488Y-73043D01*
X72477Y-73029D01*
X72388Y-72896D01*
X72210Y-72777D01*
X72000Y-72735D01*
X71789Y-72777D01*
X71611Y-72896D01*
X71522Y-73029D01*
X71511Y-73043D01*
X71509Y-73048D01*
X71491Y-73074D01*
X71471Y-73177D01*
X71450Y-73250D01*
X71450Y-73285D01*
X71450Y-73450D01*
X71450Y-73550D01*
X71450Y-73714D01*
X71450Y-73750D01*
X71471Y-73822D01*
X71491Y-73925D01*
X71509Y-73951D01*
X71511Y-73956D01*
X71522Y-73970D01*
X71611Y-74103D01*
X71789Y-74222D01*
X72000Y-74264D01*
X72210Y-74222D01*
X72388Y-74103D01*
X72477Y-73970D01*
X72488Y-73956D01*
X72490Y-73951D01*
X72500Y-73937D01*
X72509Y-73951D01*
X72511Y-73956D01*
X72522Y-73970D01*
X72611Y-74103D01*
X72789Y-74222D01*
X73000Y-74264D01*
X73210Y-74222D01*
X73388Y-74103D01*
X73477Y-73970D01*
X73488Y-73956D01*
X73490Y-73951D01*
X73500Y-73937D01*
X73509Y-73951D01*
X73511Y-73956D01*
X73522Y-73970D01*
X73611Y-74103D01*
X73789Y-74222D01*
X74000Y-74264D01*
X74210Y-74222D01*
X74388Y-74103D01*
X74477Y-73970D01*
X74488Y-73956D01*
X74490Y-73951D01*
X74500Y-73937D01*
X74509Y-73951D01*
X74511Y-73956D01*
X74522Y-73970D01*
X74611Y-74103D01*
X74789Y-74222D01*
X75000Y-74264D01*
X75210Y-74222D01*
X75388Y-74103D01*
X75477Y-73970D01*
X75488Y-73956D01*
X75490Y-73951D01*
X75500Y-73937D01*
X75509Y-73951D01*
X75511Y-73956D01*
X75522Y-73970D01*
X75611Y-74103D01*
X75789Y-74222D01*
X76000Y-74264D01*
X76210Y-74222D01*
X76388Y-74103D01*
X76477Y-73970D01*
X76488Y-73956D01*
X76490Y-73951D01*
X76500Y-73937D01*
X76509Y-73951D01*
X76511Y-73956D01*
X76522Y-73970D01*
X76611Y-74103D01*
X76789Y-74222D01*
X77000Y-74264D01*
X77210Y-74222D01*
X77388Y-74103D01*
X77477Y-73970D01*
X77488Y-73956D01*
X77490Y-73951D01*
X77508Y-73925D01*
X77528Y-73822D01*
X77550Y-73750D01*
X77550Y-74450D01*
X64889Y-74450D01*
X65073Y-74373D01*
X65074Y-74371D01*
X65079Y-74369D01*
X65368Y-74081D01*
X65371Y-74074D01*
X65373Y-74073D01*
X65448Y-73888D01*
X65524Y-73704D01*
X65524Y-73699D01*
X65526Y-73695D01*
X65525Y-73496D01*
X65525Y-73297D01*
X65523Y-73292D01*
X65523Y-73287D01*
X65373Y-72926D01*
X65371Y-72925D01*
X65369Y-72920D01*
X65081Y-72631D01*
X65074Y-72628D01*
X65073Y-72626D01*
X64888Y-72551D01*
X64704Y-72475D01*
X64699Y-72475D01*
X64695Y-72473D01*
X64496Y-72474D01*
X64297Y-72474D01*
X64292Y-72476D01*
X64287Y-72476D01*
X63926Y-72626D01*
X63925Y-72628D01*
X63920Y-72630D01*
X63631Y-72918D01*
X63628Y-72925D01*
X63626Y-72926D01*
X63551Y-73111D01*
X63475Y-73295D01*
X63475Y-73300D01*
X63473Y-73304D01*
X63474Y-73503D01*
X63474Y-73702D01*
X63476Y-73707D01*
X63476Y-73712D01*
X63626Y-74073D01*
X63628Y-74074D01*
X63630Y-74079D01*
X63918Y-74368D01*
X63925Y-74371D01*
X63926Y-74373D01*
X64111Y-74448D01*
X64115Y-74450D01*
X59050Y-74450D01*
X59050Y-53550D01*
X64610Y-53550D01*
X64426Y-53626D01*
X64425Y-53628D01*
X64420Y-53630D01*
X64131Y-53918D01*
X64128Y-53925D01*
X64126Y-53926D01*
X64051Y-54111D01*
X63975Y-54295D01*
X63975Y-54300D01*
X63973Y-54304D01*
X63974Y-54503D01*
X63974Y-54702D01*
X63976Y-54707D01*
X63976Y-54712D01*
X64126Y-55073D01*
X64128Y-55074D01*
X64130Y-55079D01*
X64418Y-55368D01*
X64425Y-55371D01*
X64426Y-55373D01*
X64611Y-55448D01*
X64795Y-55524D01*
X64800Y-55524D01*
X64804Y-55526D01*
X65003Y-55525D01*
X65202Y-55525D01*
X65207Y-55523D01*
X65212Y-55523D01*
X65573Y-55373D01*
X65574Y-55371D01*
X65579Y-55369D01*
X65868Y-55081D01*
X65871Y-55074D01*
X65873Y-55073D01*
X65948Y-54888D01*
X66024Y-54704D01*
X66024Y-54699D01*
X66026Y-54695D01*
X66025Y-54496D01*
X66025Y-54297D01*
X66023Y-54292D01*
X66023Y-54287D01*
X65873Y-53926D01*
X65871Y-53925D01*
X65869Y-53920D01*
X65581Y-53631D01*
X65574Y-53628D01*
X65573Y-53626D01*
X65388Y-53551D01*
X65384Y-53550D01*
X84479Y-53550D01*
X84950Y-54020D01*
X84950Y-58520D01*
X85950Y-59520D01*
X85950Y-60110D01*
X85873Y-59926D01*
X85871Y-59925D01*
X85869Y-59920D01*
X85581Y-59631D01*
X85574Y-59628D01*
X85573Y-59626D01*
X85388Y-59551D01*
X85204Y-59475D01*
X85199Y-59475D01*
X85195Y-59473D01*
X84996Y-59474D01*
X84797Y-59474D01*
X84792Y-59476D01*
X84787Y-59476D01*
X84550Y-59575D01*
X84550Y-54750D01*
X84550Y-54714D01*
X84550Y-54550D01*
X84550Y-54450D01*
X84550Y-54285D01*
X84550Y-54250D01*
X84528Y-54177D01*
X84508Y-54074D01*
X84490Y-54048D01*
X84488Y-54043D01*
X84477Y-54029D01*
X84388Y-53896D01*
X84210Y-53777D01*
X84000Y-53735D01*
X83789Y-53777D01*
X83611Y-53896D01*
X83522Y-54029D01*
X83511Y-54043D01*
X83509Y-54048D01*
X83500Y-54062D01*
X83490Y-54048D01*
X83488Y-54043D01*
X83477Y-54029D01*
X83388Y-53896D01*
X83210Y-53777D01*
X83000Y-53735D01*
X82789Y-53777D01*
X82611Y-53896D01*
X82522Y-54029D01*
X82511Y-54043D01*
X82509Y-54048D01*
X82500Y-54062D01*
X82490Y-54048D01*
X82488Y-54043D01*
X82477Y-54029D01*
X82388Y-53896D01*
X82210Y-53777D01*
X82000Y-53735D01*
X81789Y-53777D01*
X81611Y-53896D01*
X81522Y-54029D01*
X81511Y-54043D01*
X81509Y-54048D01*
X81500Y-54062D01*
X81490Y-54048D01*
X81488Y-54043D01*
X81477Y-54029D01*
X81388Y-53896D01*
X81210Y-53777D01*
X81000Y-53735D01*
X80789Y-53777D01*
X80611Y-53896D01*
X80522Y-54029D01*
X80511Y-54043D01*
X80509Y-54048D01*
X80500Y-54062D01*
X80490Y-54048D01*
X80488Y-54043D01*
X80477Y-54029D01*
X80388Y-53896D01*
X80210Y-53777D01*
X80000Y-53735D01*
X79789Y-53777D01*
X79611Y-53896D01*
X79522Y-54029D01*
X79511Y-54043D01*
X79509Y-54048D01*
X79500Y-54062D01*
X79490Y-54048D01*
X79488Y-54043D01*
X79477Y-54029D01*
X79388Y-53896D01*
X79210Y-53777D01*
X79000Y-53735D01*
X78789Y-53777D01*
X78611Y-53896D01*
X78522Y-54029D01*
X78511Y-54043D01*
X78509Y-54048D01*
X78500Y-54062D01*
X78490Y-54048D01*
X78488Y-54043D01*
X78477Y-54029D01*
X78388Y-53896D01*
X78210Y-53777D01*
X78000Y-53735D01*
X77789Y-53777D01*
X77611Y-53896D01*
X77522Y-54029D01*
X77511Y-54043D01*
X77509Y-54048D01*
X77500Y-54062D01*
X77490Y-54048D01*
X77488Y-54043D01*
X77477Y-54029D01*
X77388Y-53896D01*
X77210Y-53777D01*
X77000Y-53735D01*
X76789Y-53777D01*
X76611Y-53896D01*
X76522Y-54029D01*
X76511Y-54043D01*
X76509Y-54048D01*
X76491Y-54074D01*
X76471Y-54177D01*
X76450Y-54250D01*
X76450Y-54285D01*
X76450Y-54450D01*
X76450Y-54550D01*
X76450Y-54714D01*
X76450Y-54750D01*
X76471Y-54822D01*
X76491Y-54925D01*
X76509Y-54951D01*
X76511Y-54956D01*
X76522Y-54970D01*
X76611Y-55103D01*
X76789Y-55222D01*
X77000Y-55264D01*
X77210Y-55222D01*
X77388Y-55103D01*
X77477Y-54970D01*
X77488Y-54956D01*
X77490Y-54951D01*
X77500Y-54937D01*
X77509Y-54951D01*
X77511Y-54956D01*
X77522Y-54970D01*
X77611Y-55103D01*
X77789Y-55222D01*
X78000Y-55264D01*
X78210Y-55222D01*
X78388Y-55103D01*
X78477Y-54970D01*
X78488Y-54956D01*
X78490Y-54951D01*
X78500Y-54937D01*
X78509Y-54951D01*
X78511Y-54956D01*
X78522Y-54970D01*
X78611Y-55103D01*
X78789Y-55222D01*
X79000Y-55264D01*
X79210Y-55222D01*
X79388Y-55103D01*
X79477Y-54970D01*
X79488Y-54956D01*
X79490Y-54951D01*
X79500Y-54937D01*
X79509Y-54951D01*
X79511Y-54956D01*
X79522Y-54970D01*
X79611Y-55103D01*
X79789Y-55222D01*
X80000Y-55264D01*
X80210Y-55222D01*
X80388Y-55103D01*
X80477Y-54970D01*
X80488Y-54956D01*
X80490Y-54951D01*
X80500Y-54937D01*
X80509Y-54951D01*
X80511Y-54956D01*
X80522Y-54970D01*
X80611Y-55103D01*
X80789Y-55222D01*
X81000Y-55264D01*
X81210Y-55222D01*
X81388Y-55103D01*
X81477Y-54970D01*
X81488Y-54956D01*
X81490Y-54951D01*
X81500Y-54937D01*
X81509Y-54951D01*
X81511Y-54956D01*
X81522Y-54970D01*
X81611Y-55103D01*
X81789Y-55222D01*
X82000Y-55264D01*
X82210Y-55222D01*
X82388Y-55103D01*
X82477Y-54970D01*
X82488Y-54956D01*
X82490Y-54951D01*
X82500Y-54937D01*
X82509Y-54951D01*
X82511Y-54956D01*
X82522Y-54970D01*
X82611Y-55103D01*
X82789Y-55222D01*
X83000Y-55264D01*
X83210Y-55222D01*
X83388Y-55103D01*
X83477Y-54970D01*
X83488Y-54956D01*
X83490Y-54951D01*
X83500Y-54937D01*
X83509Y-54951D01*
X83511Y-54956D01*
X83522Y-54970D01*
X83611Y-55103D01*
X83789Y-55222D01*
X84000Y-55264D01*
X84210Y-55222D01*
X84388Y-55103D01*
X84477Y-54970D01*
X84488Y-54956D01*
X84490Y-54951D01*
X84508Y-54925D01*
X84528Y-54822D01*
X84550Y-54750D01*
X84550Y-59575D01*
X84426Y-59626D01*
X84425Y-59628D01*
X84420Y-59630D01*
X84131Y-59918D01*
X84128Y-59925D01*
X84126Y-59926D01*
X84051Y-60111D01*
X83975Y-60295D01*
X83975Y-60300D01*
X83973Y-60304D01*
X83974Y-60503D01*
X83974Y-60702D01*
X83976Y-60707D01*
X83976Y-60712D01*
X84126Y-61073D01*
X84128Y-61074D01*
X84130Y-61079D01*
X84418Y-61368D01*
X84425Y-61371D01*
X84426Y-61373D01*
X84611Y-61448D01*
X84795Y-61524D01*
X84800Y-61524D01*
X84804Y-61526D01*
X85003Y-61525D01*
X85202Y-61525D01*
X85207Y-61523D01*
X85212Y-61523D01*
X85573Y-61373D01*
X85574Y-61371D01*
X85579Y-61369D01*
X85868Y-61081D01*
X85871Y-61074D01*
X85873Y-61073D01*
X85948Y-60888D01*
X85950Y-60884D01*
X85950Y-71110D01*
X85873Y-70926D01*
X85871Y-70925D01*
X85869Y-70920D01*
X85581Y-70631D01*
X85574Y-70628D01*
X85573Y-70626D01*
X85388Y-70551D01*
X85204Y-70475D01*
X85199Y-70475D01*
X85195Y-70473D01*
X84996Y-70474D01*
X84797Y-70474D01*
X84792Y-70476D01*
X84787Y-70476D01*
X84426Y-70626D01*
X84425Y-70628D01*
X84420Y-70630D01*
X84131Y-70918D01*
X84128Y-70925D01*
X84126Y-70926D01*
X84051Y-71111D01*
X83975Y-71295D01*
X83975Y-71300D01*
X83973Y-71304D01*
X83974Y-71503D01*
X83974Y-71702D01*
X83976Y-71707D01*
X83976Y-71712D01*
X84126Y-72073D01*
X84128Y-72074D01*
X84130Y-72079D01*
X84418Y-72368D01*
X84425Y-72371D01*
X84426Y-72373D01*
X84611Y-72448D01*
X84795Y-72524D01*
X84800Y-72524D01*
X84804Y-72526D01*
X85003Y-72525D01*
X85202Y-72525D01*
X85207Y-72523D01*
X85212Y-72523D01*
X85573Y-72373D01*
X85574Y-72371D01*
X85579Y-72369D01*
X85868Y-72081D01*
X85871Y-72074D01*
X85873Y-72073D01*
X85948Y-71888D01*
X85950Y-71884D01*
X85950Y-72479D01*
X85950Y-72479D01*
G37*
G54D14*
X85950Y-72479D02*
X84950Y-73479D01*
X84950Y-74450D01*
X84550Y-74450D01*
X84550Y-73714D01*
X84550Y-73285D01*
X84508Y-73074D01*
X84388Y-72896D01*
X84210Y-72777D01*
X84096Y-72754D01*
X83288Y-69917D01*
X83280Y-69902D01*
X83277Y-69885D01*
X83254Y-69850D01*
X83235Y-69813D01*
X83221Y-69802D01*
X83212Y-69787D01*
X79832Y-66407D01*
X80683Y-62992D01*
X80797Y-62945D01*
X80944Y-62797D01*
X81024Y-62604D01*
X81025Y-62396D01*
X80945Y-62203D01*
X80797Y-62055D01*
X80604Y-61975D01*
X80396Y-61974D01*
X80203Y-62054D01*
X80055Y-62202D01*
X79975Y-62395D01*
X79974Y-62603D01*
X80054Y-62797D01*
X80102Y-62844D01*
X79208Y-66427D01*
X79207Y-66464D01*
X79200Y-66500D01*
X79204Y-66521D01*
X79203Y-66544D01*
X79215Y-66578D01*
X79222Y-66614D01*
X79235Y-66633D01*
X79242Y-66654D01*
X79267Y-66681D01*
X79287Y-66712D01*
X82732Y-70157D01*
X83542Y-72999D01*
X83500Y-73062D01*
X83490Y-73048D01*
X83488Y-73043D01*
X83477Y-73029D01*
X83388Y-72896D01*
X83210Y-72777D01*
X83000Y-72735D01*
X82789Y-72777D01*
X82611Y-72896D01*
X82522Y-73029D01*
X82511Y-73043D01*
X82509Y-73048D01*
X82500Y-73062D01*
X82490Y-73048D01*
X82488Y-73043D01*
X82477Y-73029D01*
X82388Y-72896D01*
X82210Y-72777D01*
X82000Y-72735D01*
X81789Y-72777D01*
X81611Y-72896D01*
X81522Y-73029D01*
X81511Y-73043D01*
X81509Y-73048D01*
X81500Y-73062D01*
X81490Y-73048D01*
X81488Y-73043D01*
X81477Y-73029D01*
X81388Y-72896D01*
X81210Y-72777D01*
X81000Y-72735D01*
X80789Y-72777D01*
X80611Y-72896D01*
X80522Y-73029D01*
X80511Y-73043D01*
X80509Y-73048D01*
X80500Y-73062D01*
X80490Y-73048D01*
X80488Y-73043D01*
X80477Y-73029D01*
X80388Y-72896D01*
X80210Y-72777D01*
X80000Y-72735D01*
X79789Y-72777D01*
X79611Y-72896D01*
X79522Y-73029D01*
X79511Y-73043D01*
X79509Y-73048D01*
X79500Y-73062D01*
X79388Y-72896D01*
X79210Y-72777D01*
X79000Y-72735D01*
X78789Y-72777D01*
X78736Y-72812D01*
X77800Y-71875D01*
X77800Y-62942D01*
X77944Y-62797D01*
X78024Y-62604D01*
X78025Y-62396D01*
X77945Y-62203D01*
X77797Y-62055D01*
X77604Y-61975D01*
X77396Y-61974D01*
X77203Y-62054D01*
X77055Y-62202D01*
X76975Y-62395D01*
X76974Y-62603D01*
X77054Y-62797D01*
X77200Y-62942D01*
X77200Y-72000D01*
X77222Y-72114D01*
X77287Y-72212D01*
X78450Y-73374D01*
X78450Y-73714D01*
X78491Y-73925D01*
X78611Y-74103D01*
X78789Y-74222D01*
X79000Y-74264D01*
X79210Y-74222D01*
X79388Y-74103D01*
X79500Y-73937D01*
X79509Y-73951D01*
X79511Y-73956D01*
X79522Y-73970D01*
X79611Y-74103D01*
X79789Y-74222D01*
X80000Y-74264D01*
X80210Y-74222D01*
X80388Y-74103D01*
X80477Y-73970D01*
X80488Y-73956D01*
X80490Y-73951D01*
X80500Y-73937D01*
X80509Y-73951D01*
X80511Y-73956D01*
X80522Y-73970D01*
X80611Y-74103D01*
X80789Y-74222D01*
X81000Y-74264D01*
X81210Y-74222D01*
X81388Y-74103D01*
X81477Y-73970D01*
X81488Y-73956D01*
X81490Y-73951D01*
X81500Y-73937D01*
X81509Y-73951D01*
X81511Y-73956D01*
X81522Y-73970D01*
X81611Y-74103D01*
X81789Y-74222D01*
X82000Y-74264D01*
X82210Y-74222D01*
X82388Y-74103D01*
X82477Y-73970D01*
X82488Y-73956D01*
X82490Y-73951D01*
X82500Y-73937D01*
X82509Y-73951D01*
X82511Y-73956D01*
X82522Y-73970D01*
X82611Y-74103D01*
X82789Y-74222D01*
X83000Y-74264D01*
X83210Y-74222D01*
X83388Y-74103D01*
X83477Y-73970D01*
X83488Y-73956D01*
X83490Y-73951D01*
X83500Y-73937D01*
X83611Y-74103D01*
X83789Y-74222D01*
X84000Y-74264D01*
X84210Y-74222D01*
X84388Y-74103D01*
X84508Y-73925D01*
X84550Y-73714D01*
X84550Y-74450D01*
X77550Y-74450D01*
X77550Y-73750D01*
X77550Y-73714D01*
X77550Y-73550D01*
X77550Y-73450D01*
X77550Y-73285D01*
X77550Y-73250D01*
X77528Y-73177D01*
X77508Y-73074D01*
X77490Y-73048D01*
X77488Y-73043D01*
X77477Y-73029D01*
X77388Y-72896D01*
X77210Y-72777D01*
X77000Y-72735D01*
X76789Y-72777D01*
X76611Y-72896D01*
X76522Y-73029D01*
X76511Y-73043D01*
X76509Y-73048D01*
X76500Y-73062D01*
X76490Y-73048D01*
X76488Y-73043D01*
X76477Y-73029D01*
X76388Y-72896D01*
X76210Y-72777D01*
X76000Y-72735D01*
X75950Y-72745D01*
X75950Y-54750D01*
X75950Y-54714D01*
X75950Y-54550D01*
X75950Y-54450D01*
X75950Y-54285D01*
X75950Y-54250D01*
X75928Y-54177D01*
X75908Y-54074D01*
X75890Y-54048D01*
X75888Y-54043D01*
X75877Y-54029D01*
X75788Y-53896D01*
X75610Y-53777D01*
X75400Y-53735D01*
X75189Y-53777D01*
X75011Y-53896D01*
X74922Y-54029D01*
X74911Y-54043D01*
X74909Y-54048D01*
X74900Y-54062D01*
X74890Y-54048D01*
X74888Y-54043D01*
X74877Y-54029D01*
X74788Y-53896D01*
X74610Y-53777D01*
X74400Y-53735D01*
X74189Y-53777D01*
X74011Y-53896D01*
X73922Y-54029D01*
X73911Y-54043D01*
X73909Y-54048D01*
X73900Y-54062D01*
X73890Y-54048D01*
X73888Y-54043D01*
X73877Y-54029D01*
X73788Y-53896D01*
X73610Y-53777D01*
X73400Y-53735D01*
X73189Y-53777D01*
X73011Y-53896D01*
X72922Y-54029D01*
X72911Y-54043D01*
X72909Y-54048D01*
X72900Y-54062D01*
X72890Y-54048D01*
X72888Y-54043D01*
X72877Y-54029D01*
X72788Y-53896D01*
X72610Y-53777D01*
X72400Y-53735D01*
X72189Y-53777D01*
X72011Y-53896D01*
X71922Y-54029D01*
X71911Y-54043D01*
X71909Y-54048D01*
X71900Y-54062D01*
X71890Y-54048D01*
X71888Y-54043D01*
X71877Y-54029D01*
X71788Y-53896D01*
X71610Y-53777D01*
X71400Y-53735D01*
X71189Y-53777D01*
X71011Y-53896D01*
X70922Y-54029D01*
X70911Y-54043D01*
X70909Y-54048D01*
X70900Y-54062D01*
X70890Y-54048D01*
X70888Y-54043D01*
X70877Y-54029D01*
X70788Y-53896D01*
X70610Y-53777D01*
X70400Y-53735D01*
X70189Y-53777D01*
X70011Y-53896D01*
X69922Y-54029D01*
X69911Y-54043D01*
X69909Y-54048D01*
X69900Y-54062D01*
X69890Y-54048D01*
X69888Y-54043D01*
X69877Y-54029D01*
X69788Y-53896D01*
X69610Y-53777D01*
X69400Y-53735D01*
X69189Y-53777D01*
X69011Y-53896D01*
X68922Y-54029D01*
X68911Y-54043D01*
X68909Y-54048D01*
X68900Y-54062D01*
X68890Y-54048D01*
X68888Y-54043D01*
X68877Y-54029D01*
X68788Y-53896D01*
X68610Y-53777D01*
X68400Y-53735D01*
X68189Y-53777D01*
X68011Y-53896D01*
X67922Y-54029D01*
X67911Y-54043D01*
X67909Y-54048D01*
X67891Y-54074D01*
X67871Y-54177D01*
X67850Y-54250D01*
X67850Y-54285D01*
X67850Y-54450D01*
X67850Y-54550D01*
X67850Y-54714D01*
X67850Y-54750D01*
X67871Y-54822D01*
X67891Y-54925D01*
X67909Y-54951D01*
X67911Y-54956D01*
X67922Y-54970D01*
X68011Y-55103D01*
X68189Y-55222D01*
X68400Y-55264D01*
X68610Y-55222D01*
X68788Y-55103D01*
X68877Y-54970D01*
X68888Y-54956D01*
X68890Y-54951D01*
X68900Y-54937D01*
X68909Y-54951D01*
X68911Y-54956D01*
X68922Y-54970D01*
X69011Y-55103D01*
X69189Y-55222D01*
X69400Y-55264D01*
X69610Y-55222D01*
X69788Y-55103D01*
X69877Y-54970D01*
X69888Y-54956D01*
X69890Y-54951D01*
X69900Y-54937D01*
X69909Y-54951D01*
X69911Y-54956D01*
X69922Y-54970D01*
X70011Y-55103D01*
X70189Y-55222D01*
X70400Y-55264D01*
X70610Y-55222D01*
X70788Y-55103D01*
X70877Y-54970D01*
X70888Y-54956D01*
X70890Y-54951D01*
X70900Y-54937D01*
X70909Y-54951D01*
X70911Y-54956D01*
X70922Y-54970D01*
X71011Y-55103D01*
X71189Y-55222D01*
X71400Y-55264D01*
X71610Y-55222D01*
X71788Y-55103D01*
X71877Y-54970D01*
X71888Y-54956D01*
X71890Y-54951D01*
X71900Y-54937D01*
X71909Y-54951D01*
X71911Y-54956D01*
X71922Y-54970D01*
X72011Y-55103D01*
X72189Y-55222D01*
X72400Y-55264D01*
X72610Y-55222D01*
X72788Y-55103D01*
X72877Y-54970D01*
X72888Y-54956D01*
X72890Y-54951D01*
X72900Y-54937D01*
X72909Y-54951D01*
X72911Y-54956D01*
X72922Y-54970D01*
X73011Y-55103D01*
X73189Y-55222D01*
X73400Y-55264D01*
X73610Y-55222D01*
X73788Y-55103D01*
X73877Y-54970D01*
X73888Y-54956D01*
X73890Y-54951D01*
X73900Y-54937D01*
X73909Y-54951D01*
X73911Y-54956D01*
X73922Y-54970D01*
X74011Y-55103D01*
X74189Y-55222D01*
X74400Y-55264D01*
X74610Y-55222D01*
X74788Y-55103D01*
X74877Y-54970D01*
X74888Y-54956D01*
X74890Y-54951D01*
X74900Y-54937D01*
X74909Y-54951D01*
X74911Y-54956D01*
X74922Y-54970D01*
X75011Y-55103D01*
X75189Y-55222D01*
X75400Y-55264D01*
X75610Y-55222D01*
X75788Y-55103D01*
X75877Y-54970D01*
X75888Y-54956D01*
X75890Y-54951D01*
X75908Y-54925D01*
X75928Y-54822D01*
X75950Y-54750D01*
X75950Y-72745D01*
X75789Y-72777D01*
X75611Y-72896D01*
X75522Y-73029D01*
X75511Y-73043D01*
X75509Y-73048D01*
X75500Y-73062D01*
X75490Y-73048D01*
X75488Y-73043D01*
X75477Y-73029D01*
X75388Y-72896D01*
X75210Y-72777D01*
X75000Y-72735D01*
X74789Y-72777D01*
X74611Y-72896D01*
X74522Y-73029D01*
X74511Y-73043D01*
X74509Y-73048D01*
X74500Y-73062D01*
X74490Y-73048D01*
X74488Y-73043D01*
X74477Y-73029D01*
X74388Y-72896D01*
X74210Y-72777D01*
X74000Y-72735D01*
X73789Y-72777D01*
X73611Y-72896D01*
X73522Y-73029D01*
X73511Y-73043D01*
X73509Y-73048D01*
X73500Y-73062D01*
X73490Y-73048D01*
X73488Y-73043D01*
X73477Y-73029D01*
X73388Y-72896D01*
X73210Y-72777D01*
X73000Y-72735D01*
X72789Y-72777D01*
X72611Y-72896D01*
X72522Y-73029D01*
X72511Y-73043D01*
X72509Y-73048D01*
X72500Y-73062D01*
X72490Y-73048D01*
X72488Y-73043D01*
X72477Y-73029D01*
X72388Y-72896D01*
X72210Y-72777D01*
X72000Y-72735D01*
X71789Y-72777D01*
X71611Y-72896D01*
X71522Y-73029D01*
X71511Y-73043D01*
X71509Y-73048D01*
X71491Y-73074D01*
X71471Y-73177D01*
X71450Y-73250D01*
X71450Y-73285D01*
X71450Y-73450D01*
X71450Y-73550D01*
X71450Y-73714D01*
X71450Y-73750D01*
X71471Y-73822D01*
X71491Y-73925D01*
X71509Y-73951D01*
X71511Y-73956D01*
X71522Y-73970D01*
X71611Y-74103D01*
X71789Y-74222D01*
X72000Y-74264D01*
X72210Y-74222D01*
X72388Y-74103D01*
X72477Y-73970D01*
X72488Y-73956D01*
X72490Y-73951D01*
X72500Y-73937D01*
X72509Y-73951D01*
X72511Y-73956D01*
X72522Y-73970D01*
X72611Y-74103D01*
X72789Y-74222D01*
X73000Y-74264D01*
X73210Y-74222D01*
X73388Y-74103D01*
X73477Y-73970D01*
X73488Y-73956D01*
X73490Y-73951D01*
X73500Y-73937D01*
X73509Y-73951D01*
X73511Y-73956D01*
X73522Y-73970D01*
X73611Y-74103D01*
X73789Y-74222D01*
X74000Y-74264D01*
X74210Y-74222D01*
X74388Y-74103D01*
X74477Y-73970D01*
X74488Y-73956D01*
X74490Y-73951D01*
X74500Y-73937D01*
X74509Y-73951D01*
X74511Y-73956D01*
X74522Y-73970D01*
X74611Y-74103D01*
X74789Y-74222D01*
X75000Y-74264D01*
X75210Y-74222D01*
X75388Y-74103D01*
X75477Y-73970D01*
X75488Y-73956D01*
X75490Y-73951D01*
X75500Y-73937D01*
X75509Y-73951D01*
X75511Y-73956D01*
X75522Y-73970D01*
X75611Y-74103D01*
X75789Y-74222D01*
X76000Y-74264D01*
X76210Y-74222D01*
X76388Y-74103D01*
X76477Y-73970D01*
X76488Y-73956D01*
X76490Y-73951D01*
X76500Y-73937D01*
X76509Y-73951D01*
X76511Y-73956D01*
X76522Y-73970D01*
X76611Y-74103D01*
X76789Y-74222D01*
X77000Y-74264D01*
X77210Y-74222D01*
X77388Y-74103D01*
X77477Y-73970D01*
X77488Y-73956D01*
X77490Y-73951D01*
X77508Y-73925D01*
X77528Y-73822D01*
X77550Y-73750D01*
X77550Y-74450D01*
X64889Y-74450D01*
X65073Y-74373D01*
X65074Y-74371D01*
X65079Y-74369D01*
X65368Y-74081D01*
X65371Y-74074D01*
X65373Y-74073D01*
X65448Y-73888D01*
X65524Y-73704D01*
X65524Y-73699D01*
X65526Y-73695D01*
X65525Y-73496D01*
X65525Y-73297D01*
X65523Y-73292D01*
X65523Y-73287D01*
X65373Y-72926D01*
X65371Y-72925D01*
X65369Y-72920D01*
X65081Y-72631D01*
X65074Y-72628D01*
X65073Y-72626D01*
X64888Y-72551D01*
X64704Y-72475D01*
X64699Y-72475D01*
X64695Y-72473D01*
X64496Y-72474D01*
X64297Y-72474D01*
X64292Y-72476D01*
X64287Y-72476D01*
X63926Y-72626D01*
X63925Y-72628D01*
X63920Y-72630D01*
X63631Y-72918D01*
X63628Y-72925D01*
X63626Y-72926D01*
X63551Y-73111D01*
X63475Y-73295D01*
X63475Y-73300D01*
X63473Y-73304D01*
X63474Y-73503D01*
X63474Y-73702D01*
X63476Y-73707D01*
X63476Y-73712D01*
X63626Y-74073D01*
X63628Y-74074D01*
X63630Y-74079D01*
X63918Y-74368D01*
X63925Y-74371D01*
X63926Y-74373D01*
X64111Y-74448D01*
X64115Y-74450D01*
X59050Y-74450D01*
X59050Y-53550D01*
X64610Y-53550D01*
X64426Y-53626D01*
X64425Y-53628D01*
X64420Y-53630D01*
X64131Y-53918D01*
X64128Y-53925D01*
X64126Y-53926D01*
X64051Y-54111D01*
X63975Y-54295D01*
X63975Y-54300D01*
X63973Y-54304D01*
X63974Y-54503D01*
X63974Y-54702D01*
X63976Y-54707D01*
X63976Y-54712D01*
X64126Y-55073D01*
X64128Y-55074D01*
X64130Y-55079D01*
X64418Y-55368D01*
X64425Y-55371D01*
X64426Y-55373D01*
X64611Y-55448D01*
X64795Y-55524D01*
X64800Y-55524D01*
X64804Y-55526D01*
X65003Y-55525D01*
X65202Y-55525D01*
X65207Y-55523D01*
X65212Y-55523D01*
X65573Y-55373D01*
X65574Y-55371D01*
X65579Y-55369D01*
X65868Y-55081D01*
X65871Y-55074D01*
X65873Y-55073D01*
X65948Y-54888D01*
X66024Y-54704D01*
X66024Y-54699D01*
X66026Y-54695D01*
X66025Y-54496D01*
X66025Y-54297D01*
X66023Y-54292D01*
X66023Y-54287D01*
X65873Y-53926D01*
X65871Y-53925D01*
X65869Y-53920D01*
X65581Y-53631D01*
X65574Y-53628D01*
X65573Y-53626D01*
X65388Y-53551D01*
X65384Y-53550D01*
X84479Y-53550D01*
X84950Y-54020D01*
X84950Y-58520D01*
X85950Y-59520D01*
X85950Y-60110D01*
X85873Y-59926D01*
X85871Y-59925D01*
X85869Y-59920D01*
X85581Y-59631D01*
X85574Y-59628D01*
X85573Y-59626D01*
X85388Y-59551D01*
X85204Y-59475D01*
X85199Y-59475D01*
X85195Y-59473D01*
X84996Y-59474D01*
X84797Y-59474D01*
X84792Y-59476D01*
X84787Y-59476D01*
X84550Y-59575D01*
X84550Y-54750D01*
X84550Y-54714D01*
X84550Y-54550D01*
X84550Y-54450D01*
X84550Y-54285D01*
X84550Y-54250D01*
X84528Y-54177D01*
X84508Y-54074D01*
X84490Y-54048D01*
X84488Y-54043D01*
X84477Y-54029D01*
X84388Y-53896D01*
X84210Y-53777D01*
X84000Y-53735D01*
X83789Y-53777D01*
X83611Y-53896D01*
X83522Y-54029D01*
X83511Y-54043D01*
X83509Y-54048D01*
X83500Y-54062D01*
X83490Y-54048D01*
X83488Y-54043D01*
X83477Y-54029D01*
X83388Y-53896D01*
X83210Y-53777D01*
X83000Y-53735D01*
X82789Y-53777D01*
X82611Y-53896D01*
X82522Y-54029D01*
X82511Y-54043D01*
X82509Y-54048D01*
X82500Y-54062D01*
X82490Y-54048D01*
X82488Y-54043D01*
X82477Y-54029D01*
X82388Y-53896D01*
X82210Y-53777D01*
X82000Y-53735D01*
X81789Y-53777D01*
X81611Y-53896D01*
X81522Y-54029D01*
X81511Y-54043D01*
X81509Y-54048D01*
X81500Y-54062D01*
X81490Y-54048D01*
X81488Y-54043D01*
X81477Y-54029D01*
X81388Y-53896D01*
X81210Y-53777D01*
X81000Y-53735D01*
X80789Y-53777D01*
X80611Y-53896D01*
X80522Y-54029D01*
X80511Y-54043D01*
X80509Y-54048D01*
X80500Y-54062D01*
X80490Y-54048D01*
X80488Y-54043D01*
X80477Y-54029D01*
X80388Y-53896D01*
X80210Y-53777D01*
X80000Y-53735D01*
X79789Y-53777D01*
X79611Y-53896D01*
X79522Y-54029D01*
X79511Y-54043D01*
X79509Y-54048D01*
X79500Y-54062D01*
X79490Y-54048D01*
X79488Y-54043D01*
X79477Y-54029D01*
X79388Y-53896D01*
X79210Y-53777D01*
X79000Y-53735D01*
X78789Y-53777D01*
X78611Y-53896D01*
X78522Y-54029D01*
X78511Y-54043D01*
X78509Y-54048D01*
X78500Y-54062D01*
X78490Y-54048D01*
X78488Y-54043D01*
X78477Y-54029D01*
X78388Y-53896D01*
X78210Y-53777D01*
X78000Y-53735D01*
X77789Y-53777D01*
X77611Y-53896D01*
X77522Y-54029D01*
X77511Y-54043D01*
X77509Y-54048D01*
X77500Y-54062D01*
X77490Y-54048D01*
X77488Y-54043D01*
X77477Y-54029D01*
X77388Y-53896D01*
X77210Y-53777D01*
X77000Y-53735D01*
X76789Y-53777D01*
X76611Y-53896D01*
X76522Y-54029D01*
X76511Y-54043D01*
X76509Y-54048D01*
X76491Y-54074D01*
X76471Y-54177D01*
X76450Y-54250D01*
X76450Y-54285D01*
X76450Y-54450D01*
X76450Y-54550D01*
X76450Y-54714D01*
X76450Y-54750D01*
X76471Y-54822D01*
X76491Y-54925D01*
X76509Y-54951D01*
X76511Y-54956D01*
X76522Y-54970D01*
X76611Y-55103D01*
X76789Y-55222D01*
X77000Y-55264D01*
X77210Y-55222D01*
X77388Y-55103D01*
X77477Y-54970D01*
X77488Y-54956D01*
X77490Y-54951D01*
X77500Y-54937D01*
X77509Y-54951D01*
X77511Y-54956D01*
X77522Y-54970D01*
X77611Y-55103D01*
X77789Y-55222D01*
X78000Y-55264D01*
X78210Y-55222D01*
X78388Y-55103D01*
X78477Y-54970D01*
X78488Y-54956D01*
X78490Y-54951D01*
X78500Y-54937D01*
X78509Y-54951D01*
X78511Y-54956D01*
X78522Y-54970D01*
X78611Y-55103D01*
X78789Y-55222D01*
X79000Y-55264D01*
X79210Y-55222D01*
X79388Y-55103D01*
X79477Y-54970D01*
X79488Y-54956D01*
X79490Y-54951D01*
X79500Y-54937D01*
X79509Y-54951D01*
X79511Y-54956D01*
X79522Y-54970D01*
X79611Y-55103D01*
X79789Y-55222D01*
X80000Y-55264D01*
X80210Y-55222D01*
X80388Y-55103D01*
X80477Y-54970D01*
X80488Y-54956D01*
X80490Y-54951D01*
X80500Y-54937D01*
X80509Y-54951D01*
X80511Y-54956D01*
X80522Y-54970D01*
X80611Y-55103D01*
X80789Y-55222D01*
X81000Y-55264D01*
X81210Y-55222D01*
X81388Y-55103D01*
X81477Y-54970D01*
X81488Y-54956D01*
X81490Y-54951D01*
X81500Y-54937D01*
X81509Y-54951D01*
X81511Y-54956D01*
X81522Y-54970D01*
X81611Y-55103D01*
X81789Y-55222D01*
X82000Y-55264D01*
X82210Y-55222D01*
X82388Y-55103D01*
X82477Y-54970D01*
X82488Y-54956D01*
X82490Y-54951D01*
X82500Y-54937D01*
X82509Y-54951D01*
X82511Y-54956D01*
X82522Y-54970D01*
X82611Y-55103D01*
X82789Y-55222D01*
X83000Y-55264D01*
X83210Y-55222D01*
X83388Y-55103D01*
X83477Y-54970D01*
X83488Y-54956D01*
X83490Y-54951D01*
X83500Y-54937D01*
X83509Y-54951D01*
X83511Y-54956D01*
X83522Y-54970D01*
X83611Y-55103D01*
X83789Y-55222D01*
X84000Y-55264D01*
X84210Y-55222D01*
X84388Y-55103D01*
X84477Y-54970D01*
X84488Y-54956D01*
X84490Y-54951D01*
X84508Y-54925D01*
X84528Y-54822D01*
X84550Y-54750D01*
X84550Y-59575D01*
X84426Y-59626D01*
X84425Y-59628D01*
X84420Y-59630D01*
X84131Y-59918D01*
X84128Y-59925D01*
X84126Y-59926D01*
X84051Y-60111D01*
X83975Y-60295D01*
X83975Y-60300D01*
X83973Y-60304D01*
X83974Y-60503D01*
X83974Y-60702D01*
X83976Y-60707D01*
X83976Y-60712D01*
X84126Y-61073D01*
X84128Y-61074D01*
X84130Y-61079D01*
X84418Y-61368D01*
X84425Y-61371D01*
X84426Y-61373D01*
X84611Y-61448D01*
X84795Y-61524D01*
X84800Y-61524D01*
X84804Y-61526D01*
X85003Y-61525D01*
X85202Y-61525D01*
X85207Y-61523D01*
X85212Y-61523D01*
X85573Y-61373D01*
X85574Y-61371D01*
X85579Y-61369D01*
X85868Y-61081D01*
X85871Y-61074D01*
X85873Y-61073D01*
X85948Y-60888D01*
X85950Y-60884D01*
X85950Y-71110D01*
X85873Y-70926D01*
X85871Y-70925D01*
X85869Y-70920D01*
X85581Y-70631D01*
X85574Y-70628D01*
X85573Y-70626D01*
X85388Y-70551D01*
X85204Y-70475D01*
X85199Y-70475D01*
X85195Y-70473D01*
X84996Y-70474D01*
X84797Y-70474D01*
X84792Y-70476D01*
X84787Y-70476D01*
X84426Y-70626D01*
X84425Y-70628D01*
X84420Y-70630D01*
X84131Y-70918D01*
X84128Y-70925D01*
X84126Y-70926D01*
X84051Y-71111D01*
X83975Y-71295D01*
X83975Y-71300D01*
X83973Y-71304D01*
X83974Y-71503D01*
X83974Y-71702D01*
X83976Y-71707D01*
X83976Y-71712D01*
X84126Y-72073D01*
X84128Y-72074D01*
X84130Y-72079D01*
X84418Y-72368D01*
X84425Y-72371D01*
X84426Y-72373D01*
X84611Y-72448D01*
X84795Y-72524D01*
X84800Y-72524D01*
X84804Y-72526D01*
X85003Y-72525D01*
X85202Y-72525D01*
X85207Y-72523D01*
X85212Y-72523D01*
X85573Y-72373D01*
X85574Y-72371D01*
X85579Y-72369D01*
X85868Y-72081D01*
X85871Y-72074D01*
X85873Y-72073D01*
X85948Y-71888D01*
X85950Y-71884D01*
X85950Y-72479D01*
M02*
