  0
SECTION
  2
BLOCKS
  0
ENDSEC
  0
SECTION
  2
ENTITIES
  0
LINE
  8
0
 10
-19.994
 11
-19.994
 20
-0.473
 21
0.473
  0
LINE
  8
0
 10
-19.994
 11
-18.186
 20
0.473
 21
1.797
  0
LINE
  8
0
 10
-18.186
 11
-16.616
 20
1.797
 21
2.552
  0
LINE
  8
0
 10
-16.616
 11
-15.415
 20
2.552
 21
2.88
  0
LINE
  8
0
 10
-15.415
 11
-14.671
 20
2.88
 21
2.944
  0
LINE
  8
0
 10
-14.671
 11
-14.422
 20
2.944
 21
2.925
  0
LINE
  8
0
 10
-14.422
 11
-12.796
 20
2.925
 21
2.595
  0
LINE
  8
0
 10
-12.796
 11
-11.878
 20
2.595
 21
5.422
  0
LINE
  8
0
 10
-11.878
 11
-13.387
 20
5.422
 21
6.111
  0
LINE
  8
0
 10
-13.387
 11
-13.6
 20
6.111
 21
6.242
  0
LINE
  8
0
 10
-13.6
 11
-14.164
 20
6.242
 21
6.731
  0
LINE
  8
0
 10
-14.164
 11
-14.943
 20
6.731
 21
7.702
  0
LINE
  8
0
 10
-14.943
 11
-15.769
 20
7.702
 21
9.236
  0
LINE
  8
0
 10
-15.769
 11
-16.454
 20
9.236
 21
11.37
  0
LINE
  8
0
 10
-16.454
 11
-15.897
 20
11.37
 21
12.135
  0
LINE
  8
0
 10
-15.897
 11
-13.657
 20
12.135
 21
12.143
  0
LINE
  8
0
 10
-13.657
 11
-11.943
 20
12.143
 21
11.831
  0
LINE
  8
0
 10
-11.943
 11
-10.778
 20
11.831
 21
11.391
  0
LINE
  8
0
 10
-10.778
 11
-10.139
 20
11.391
 21
11.005
  0
LINE
  8
0
 10
-10.139
 11
-9.948
 20
11.005
 21
10.843
  0
LINE
  8
0
 10
-9.948
 11
-8.827
 20
10.843
 21
9.621
  0
LINE
  8
0
 10
-8.827
 11
-6.422
 20
9.621
 21
11.368
  0
LINE
  8
0
 10
-6.422
 11
-7.238
 20
11.368
 21
12.812
  0
LINE
  8
0
 10
-7.238
 11
-7.333
 20
12.812
 21
13.043
  0
LINE
  8
0
 10
-7.333
 11
-7.503
 20
13.043
 21
13.771
  0
LINE
  8
0
 10
-7.503
 11
-7.562
 20
13.771
 21
15.014
  0
LINE
  8
0
 10
-7.562
 11
-7.329
 20
15.014
 21
16.741
  0
LINE
  8
0
 10
-7.329
 11
-6.628
 20
16.741
 21
18.869
  0
LINE
  8
0
 10
-6.628
 11
-5.729
 20
18.869
 21
19.162
  0
LINE
  8
0
 10
-5.729
 11
-3.911
 20
19.162
 21
17.851
  0
LINE
  8
0
 10
-3.911
 11
-2.708
 20
17.851
 21
16.591
  0
LINE
  8
0
 10
-2.708
 11
-2.024
 20
16.591
 21
15.551
  0
LINE
  8
0
 10
-2.024
 11
-1.734
 20
15.551
 21
14.863
  0
LINE
  8
0
 10
-1.734
 11
-1.675
 20
14.863
 21
14.62
  0
LINE
  8
0
 10
-1.675
 11
-1.486
 20
14.62
 21
12.971
  0
LINE
  8
0
 10
-1.486
 11
1.486
 20
12.971
 21
12.972
  0
LINE
  8
0
 10
1.486
 11
1.675
 20
12.972
 21
14.62
  0
LINE
  8
0
 10
1.675
 11
1.734
 20
14.62
 21
14.863
  0
LINE
  8
0
 10
1.734
 11
2.024
 20
14.863
 21
15.551
  0
LINE
  8
0
 10
2.024
 11
2.708
 20
15.551
 21
16.591
  0
LINE
  8
0
 10
2.708
 11
3.911
 20
16.591
 21
17.851
  0
LINE
  8
0
 10
3.911
 11
5.729
 20
17.851
 21
19.162
  0
LINE
  8
0
 10
5.729
 11
6.628
 20
19.162
 21
18.869
  0
LINE
  8
0
 10
6.628
 11
7.329
 20
18.869
 21
16.741
  0
LINE
  8
0
 10
7.329
 11
7.562
 20
16.741
 21
15.014
  0
LINE
  8
0
 10
7.562
 11
7.503
 20
15.014
 21
13.771
  0
LINE
  8
0
 10
7.503
 11
7.333
 20
13.771
 21
13.043
  0
LINE
  8
0
 10
7.333
 11
7.238
 20
13.043
 21
12.812
  0
LINE
  8
0
 10
7.238
 11
6.422
 20
12.812
 21
11.368
  0
LINE
  8
0
 10
6.422
 11
8.827
 20
11.368
 21
9.621
  0
LINE
  8
0
 10
8.827
 11
9.948
 20
9.621
 21
10.843
  0
LINE
  8
0
 10
9.948
 11
10.139
 20
10.843
 21
11.005
  0
LINE
  8
0
 10
10.139
 11
10.778
 20
11.005
 21
11.391
  0
LINE
  8
0
 10
10.778
 11
11.943
 20
11.391
 21
11.831
  0
LINE
  8
0
 10
11.943
 11
13.657
 20
11.831
 21
12.143
  0
LINE
  8
0
 10
13.657
 11
15.897
 20
12.143
 21
12.135
  0
LINE
  8
0
 10
15.897
 11
16.454
 20
12.135
 21
11.37
  0
LINE
  8
0
 10
16.454
 11
15.769
 20
11.37
 21
9.236
  0
LINE
  8
0
 10
15.769
 11
14.943
 20
9.236
 21
7.702
  0
LINE
  8
0
 10
14.943
 11
14.164
 20
7.702
 21
6.731
  0
LINE
  8
0
 10
14.164
 11
13.6
 20
6.731
 21
6.242
  0
LINE
  8
0
 10
13.6
 11
13.387
 20
6.242
 21
6.111
  0
LINE
  8
0
 10
13.387
 11
11.877
 20
6.111
 21
5.422
  0
LINE
  8
0
 10
11.877
 11
12.795
 20
5.422
 21
2.595
  0
LINE
  8
0
 10
12.795
 11
14.422
 20
2.595
 21
2.925
  0
LINE
  8
0
 10
14.422
 11
14.671
 20
2.925
 21
2.944
  0
LINE
  8
0
 10
14.671
 11
15.415
 20
2.944
 21
2.88
  0
LINE
  8
0
 10
15.415
 11
16.616
 20
2.88
 21
2.552
  0
LINE
  8
0
 10
16.616
 11
18.186
 20
2.552
 21
1.797
  0
LINE
  8
0
 10
18.186
 11
19.994
 20
1.797
 21
0.473
  0
LINE
  8
0
 10
19.994
 11
19.994
 20
0.473
 21
-0.473
  0
LINE
  8
0
 10
19.994
 11
18.186
 20
-0.473
 21
-1.797
  0
LINE
  8
0
 10
18.186
 11
16.616
 20
-1.797
 21
-2.552
  0
LINE
  8
0
 10
16.616
 11
15.415
 20
-2.552
 21
-2.88
  0
LINE
  8
0
 10
15.415
 11
14.671
 20
-2.88
 21
-2.944
  0
LINE
  8
0
 10
14.671
 11
14.422
 20
-2.944
 21
-2.925
  0
LINE
  8
0
 10
14.422
 11
12.796
 20
-2.925
 21
-2.595
  0
LINE
  8
0
 10
12.796
 11
11.878
 20
-2.595
 21
-5.422
  0
LINE
  8
0
 10
11.878
 11
13.387
 20
-5.422
 21
-6.111
  0
LINE
  8
0
 10
13.387
 11
13.6
 20
-6.111
 21
-6.242
  0
LINE
  8
0
 10
13.6
 11
14.164
 20
-6.242
 21
-6.731
  0
LINE
  8
0
 10
14.164
 11
14.943
 20
-6.731
 21
-7.702
  0
LINE
  8
0
 10
14.943
 11
15.769
 20
-7.702
 21
-9.236
  0
LINE
  8
0
 10
15.769
 11
16.454
 20
-9.236
 21
-11.37
  0
LINE
  8
0
 10
16.454
 11
15.897
 20
-11.37
 21
-12.135
  0
LINE
  8
0
 10
15.897
 11
13.657
 20
-12.135
 21
-12.143
  0
LINE
  8
0
 10
13.657
 11
11.943
 20
-12.143
 21
-11.831
  0
LINE
  8
0
 10
11.943
 11
10.778
 20
-11.831
 21
-11.391
  0
LINE
  8
0
 10
10.778
 11
10.139
 20
-11.391
 21
-11.005
  0
LINE
  8
0
 10
10.139
 11
9.948
 20
-11.005
 21
-10.843
  0
LINE
  8
0
 10
9.948
 11
8.827
 20
-10.843
 21
-9.621
  0
LINE
  8
0
 10
8.827
 11
6.422
 20
-9.621
 21
-11.368
  0
LINE
  8
0
 10
6.422
 11
7.238
 20
-11.368
 21
-12.812
  0
LINE
  8
0
 10
7.238
 11
7.333
 20
-12.812
 21
-13.043
  0
LINE
  8
0
 10
7.333
 11
7.503
 20
-13.043
 21
-13.771
  0
LINE
  8
0
 10
7.503
 11
7.562
 20
-13.771
 21
-15.014
  0
LINE
  8
0
 10
7.562
 11
7.329
 20
-15.014
 21
-16.741
  0
LINE
  8
0
 10
7.329
 11
6.628
 20
-16.741
 21
-18.869
  0
LINE
  8
0
 10
6.628
 11
5.729
 20
-18.869
 21
-19.162
  0
LINE
  8
0
 10
5.729
 11
3.911
 20
-19.162
 21
-17.851
  0
LINE
  8
0
 10
3.911
 11
2.708
 20
-17.851
 21
-16.591
  0
LINE
  8
0
 10
2.708
 11
2.024
 20
-16.591
 21
-15.551
  0
LINE
  8
0
 10
2.024
 11
1.734
 20
-15.551
 21
-14.863
  0
LINE
  8
0
 10
1.734
 11
1.675
 20
-14.863
 21
-14.62
  0
LINE
  8
0
 10
1.675
 11
1.486
 20
-14.62
 21
-12.971
  0
LINE
  8
0
 10
1.486
 11
-1.486
 20
-12.971
 21
-12.972
  0
LINE
  8
0
 10
-1.486
 11
-1.675
 20
-12.972
 21
-14.62
  0
LINE
  8
0
 10
-1.675
 11
-1.734
 20
-14.62
 21
-14.863
  0
LINE
  8
0
 10
-1.734
 11
-2.024
 20
-14.863
 21
-15.551
  0
LINE
  8
0
 10
-2.024
 11
-2.708
 20
-15.551
 21
-16.591
  0
LINE
  8
0
 10
-2.708
 11
-3.911
 20
-16.591
 21
-17.851
  0
LINE
  8
0
 10
-3.911
 11
-5.729
 20
-17.851
 21
-19.162
  0
LINE
  8
0
 10
-5.729
 11
-6.628
 20
-19.162
 21
-18.869
  0
LINE
  8
0
 10
-6.628
 11
-7.329
 20
-18.869
 21
-16.741
  0
LINE
  8
0
 10
-7.329
 11
-7.562
 20
-16.741
 21
-15.014
  0
LINE
  8
0
 10
-7.562
 11
-7.503
 20
-15.014
 21
-13.771
  0
LINE
  8
0
 10
-7.503
 11
-7.333
 20
-13.771
 21
-13.043
  0
LINE
  8
0
 10
-7.333
 11
-7.238
 20
-13.043
 21
-12.812
  0
LINE
  8
0
 10
-7.238
 11
-6.422
 20
-12.812
 21
-11.368
  0
LINE
  8
0
 10
-6.422
 11
-8.827
 20
-11.368
 21
-9.621
  0
LINE
  8
0
 10
-8.827
 11
-9.948
 20
-9.621
 21
-10.843
  0
LINE
  8
0
 10
-9.948
 11
-10.139
 20
-10.843
 21
-11.005
  0
LINE
  8
0
 10
-10.139
 11
-10.778
 20
-11.005
 21
-11.391
  0
LINE
  8
0
 10
-10.778
 11
-11.943
 20
-11.391
 21
-11.831
  0
LINE
  8
0
 10
-11.943
 11
-13.657
 20
-11.831
 21
-12.143
  0
LINE
  8
0
 10
-13.657
 11
-15.897
 20
-12.143
 21
-12.135
  0
LINE
  8
0
 10
-15.897
 11
-16.454
 20
-12.135
 21
-11.37
  0
LINE
  8
0
 10
-16.454
 11
-15.769
 20
-11.37
 21
-9.236
  0
LINE
  8
0
 10
-15.769
 11
-14.943
 20
-9.236
 21
-7.702
  0
LINE
  8
0
 10
-14.943
 11
-14.164
 20
-7.702
 21
-6.731
  0
LINE
  8
0
 10
-14.164
 11
-13.6
 20
-6.731
 21
-6.242
  0
LINE
  8
0
 10
-13.6
 11
-13.387
 20
-6.242
 21
-6.111
  0
LINE
  8
0
 10
-13.387
 11
-11.877
 20
-6.111
 21
-5.422
  0
LINE
  8
0
 10
-11.877
 11
-12.795
 20
-5.422
 21
-2.595
  0
LINE
  8
0
 10
-12.795
 11
-14.422
 20
-2.595
 21
-2.925
  0
LINE
  8
0
 10
-14.422
 11
-14.671
 20
-2.925
 21
-2.944
  0
LINE
  8
0
 10
-14.671
 11
-15.415
 20
-2.944
 21
-2.88
  0
LINE
  8
0
 10
-15.415
 11
-16.616
 20
-2.88
 21
-2.552
  0
LINE
  8
0
 10
-16.616
 11
-18.186
 20
-2.552
 21
-1.797
  0
LINE
  8
0
 10
-18.186
 11
-19.994
 20
-1.797
 21
-0.473
  0
LINE
  8
0
 10
-0.809
 11
-0.809
 20
-0.588
 21
0.588
  0
LINE
  8
0
 10
-0.809
 11
0.309
 20
0.588
 21
0.951
  0
LINE
  8
0
 10
0.309
 11
1
 20
0.951
 21
0
  0
LINE
  8
0
 10
1
 11
0.309
 20
0
 21
-0.951
  0
LINE
  8
0
 10
0.309
 11
-0.809
 20
-0.951
 21
-0.588
  0
ENDSEC
  0
SECTION
  2
OBJECTS
  0
DICTIONARY
  0
ENDSEC
  0
EOF
