999
dxflib 3.3.4.0
  0
SECTION
  2
HEADER
  9
$ACADVER
  1
AC1015
  9
$HANDSEED
  5
FFFF
  9
$DIMADEC
 70
0
  9
$DIMASZ
 40
0.18
  9
$DIMAUNIT
 70
0
  9
$DIMAZIN
 70
0
  9
$DIMDEC
 70
4
  9
$DIMEXE
 40
0.18
  9
$DIMEXO
 40
0.0625
  9
$DIMGAP
 40
0.09
  9
$DIMLUNIT
 70
2
  9
$DIMTSZ
 40
0.0
  9
$DIMTXT
 40
0.18
  9
$DIMZIN
 70
0
  9
$DWGCODEPAGE
  3
ANSI_1252
  9
$INSUNITS
 70
0
  9
$LTSCALE
 40
1.0
  0
ENDSEC
  0
SECTION
  2
TABLES
  0
TABLE
  2
VPORT
  5
8
100
AcDbSymbolTable
 70
1
  0
VPORT
  5
30
100
AcDbSymbolTableRecord
100
AcDbViewportTableRecord
  2
*Active
 70
0
 10
0.0
 20
0.0
 11
1.0
 21
1.0
 12
286.3055555555554861
 22
148.5
 13
0.0
 23
0.0
 14
10.0
 24
10.0
 15
10.0
 25
10.0
 16
0.0
 26
0.0
 36
1.0
 17
0.0
 27
0.0
 37
0.0
 40
297.0
 41
1.92798353909465
 42
50.0
 43
0.0
 44
0.0
 50
0.0
 51
0.0
 71
0
 72
100
 73
1
 74
3
 75
1
 76
1
 77
0
 78
0
281
0
 65
1
110
0.0
120
0.0
130
0.0
111
1.0
121
0.0
131
0.0
112
0.0
122
1.0
132
0.0
 79
0
146
0.0
  0
ENDTAB
  0
TABLE
  2
LTYPE
  5
5
100
AcDbSymbolTable
 70
21
  0
LTYPE
  5
16
100
AcDbSymbolTableRecord
100
AcDbLinetypeTableRecord
  2
CONTINUOUS
 70
0
  3
Solid line
 72
65
 73
0
 40
0.0
  0
LTYPE
  5
31
100
AcDbSymbolTableRecord
100
AcDbLinetypeTableRecord
  2
CENTER2
 70
0
  3
Center (.5x) ___ _ ___ _ ___ _ ___ _ ___ _ ___
 72
65
 73
4
 40
28.5749999999999993
 49
19.0500000000000007
 74
0
 49
-3.1749999999999998
 74
0
 49
3.1749999999999998
 74
0
 49
-3.1749999999999998
 74
0
  0
LTYPE
  5
32
100
AcDbSymbolTableRecord
100
AcDbLinetypeTableRecord
  2
DIVIDEX2
 70
0
  3
Divide (2x) ________  .  .  ________  .  .  _
 72
65
 73
6
 40
63.5
 49
25.3999999999999986
 74
0
 49
-12.6999999999999993
 74
0
 49
0.0
 74
0
 49
-12.6999999999999993
 74
0
 49
0.0
 74
0
 49
-12.6999999999999993
 74
0
  0
LTYPE
  5
33
100
AcDbSymbolTableRecord
100
AcDbLinetypeTableRecord
  2
DOT2
 70
0
  3
Dot (.5x) .....................................
 72
65
 73
2
 40
3.1749999999999998
 49
0.0
 74
0
 49
-3.1749999999999998
 74
0
  0
LTYPE
  5
34
100
AcDbSymbolTableRecord
100
AcDbLinetypeTableRecord
  2
DASHDOT2
 70
0
  3
Dash dot (.5x) _._._._._._._._._._._._._._._.
 72
65
 73
4
 40
12.6999999999999993
 49
6.3499999999999996
 74
0
 49
-3.1749999999999998
 74
0
 49
0.0
 74
0
 49
-3.1749999999999998
 74
0
  0
LTYPE
  5
35
100
AcDbSymbolTableRecord
100
AcDbLinetypeTableRecord
  2
DIVIDE
 70
0
  3
Divide ____ . . ____ . . ____ . . ____ . . ____
 72
65
 73
6
 40
31.75
 49
12.6999999999999993
 74
0
 49
-6.3499999999999996
 74
0
 49
0.0
 74
0
 49
-6.3499999999999996
 74
0
 49
0.0
 74
0
 49
-6.3499999999999996
 74
0
  0
LTYPE
  5
36
100
AcDbSymbolTableRecord
100
AcDbLinetypeTableRecord
  2
DASHDOT
 70
0
  3
Dash dot __ . __ . __ . __ . __ . __ . __ . __
 72
65
 73
4
 40
25.3999999999999986
 49
12.6999999999999993
 74
0
 49
-6.3499999999999996
 74
0
 49
0.0
 74
0
 49
-6.3499999999999996
 74
0
  0
LTYPE
  5
37
100
AcDbSymbolTableRecord
100
AcDbLinetypeTableRecord
  2
BORDER
 70
0
  3
Border __ __ . __ __ . __ __ . __ __ . __ __ .
 72
65
 73
6
 40
44.4500000000000028
 49
12.6999999999999993
 74
0
 49
-6.3499999999999996
 74
0
 49
12.6999999999999993
 74
0
 49
-6.3499999999999996
 74
0
 49
0.0
 74
0
 49
-6.3499999999999996
 74
0
  0
LTYPE
  5
38
100
AcDbSymbolTableRecord
100
AcDbLinetypeTableRecord
  2
DASHDOTX2
 70
0
  3
Dash dot (2x) ____  .  ____  .  ____  .  ___
 72
65
 73
4
 40
50.7999999999999972
 49
25.3999999999999986
 74
0
 49
-12.6999999999999993
 74
0
 49
0.0
 74
0
 49
-12.6999999999999993
 74
0
  0
LTYPE
  5
39
100
AcDbSymbolTableRecord
100
AcDbLinetypeTableRecord
  2
CENTERX2
 70
0
  3
Center (2x) ________  __  ________  __  _____
 72
65
 73
4
 40
101.5999999999999943
 49
63.5
 74
0
 49
-12.6999999999999993
 74
0
 49
12.6999999999999993
 74
0
 49
-12.6999999999999993
 74
0
  0
LTYPE
  5
3A
100
AcDbSymbolTableRecord
100
AcDbLinetypeTableRecord
  2
BORDER2
 70
0
  3
Border (.5x) __.__.__.__.__.__.__.__.__.__.__.
 72
65
 73
6
 40
22.2250000000000014
 49
6.3499999999999996
 74
0
 49
-3.1749999999999998
 74
0
 49
6.3499999999999996
 74
0
 49
-3.1749999999999998
 74
0
 49
0.0
 74
0
 49
-3.1749999999999998
 74
0
  0
LTYPE
  5
3B
100
AcDbSymbolTableRecord
100
AcDbLinetypeTableRecord
  2
BORDERX2
 70
0
  3
Border (2x) ____  ____  .  ____  ____  .  ___
 72
65
 73
6
 40
88.9000000000000057
 49
25.3999999999999986
 74
0
 49
-12.6999999999999993
 74
0
 49
25.3999999999999986
 74
0
 49
-12.6999999999999993
 74
0
 49
0.0
 74
0
 49
-12.6999999999999993
 74
0
  0
LTYPE
  5
14
100
AcDbSymbolTableRecord
100
AcDbLinetypeTableRecord
  2
BYBLOCK
 70
0
  3

 72
65
 73
0
 40
0.0
  0
LTYPE
  5
15
100
AcDbSymbolTableRecord
100
AcDbLinetypeTableRecord
  2
BYLAYER
 70
0
  3

 72
65
 73
0
 40
0.0
  0
LTYPE
  5
3C
100
AcDbSymbolTableRecord
100
AcDbLinetypeTableRecord
  2
DASHED2
 70
0
  3
Dashed (.5x) _ _ _ _ _ _ _ _ _ _ _ _ _ _ _ _ _
 72
65
 73
2
 40
9.5250000000000004
 49
6.3499999999999996
 74
0
 49
-3.1749999999999998
 74
0
  0
LTYPE
  5
3D
100
AcDbSymbolTableRecord
100
AcDbLinetypeTableRecord
  2
CENTER
 70
0
  3
Center ____ _ ____ _ ____ _ ____ _ ____ _ ____
 72
65
 73
4
 40
50.7999999999999972
 49
31.75
 74
0
 49
-6.3499999999999996
 74
0
 49
6.3499999999999996
 74
0
 49
-6.3499999999999996
 74
0
  0
LTYPE
  5
3E
100
AcDbSymbolTableRecord
100
AcDbLinetypeTableRecord
  2
DIVIDE2
 70
0
  3
Divide (.5x) __..__..__..__..__..__..__..__.._
 72
65
 73
6
 40
15.875
 49
6.3499999999999996
 74
0
 49
-3.1749999999999998
 74
0
 49
0.0
 74
0
 49
-3.1749999999999998
 74
0
 49
0.0
 74
0
 49
-3.1749999999999998
 74
0
  0
LTYPE
  5
3F
100
AcDbSymbolTableRecord
100
AcDbLinetypeTableRecord
  2
DASHED
 70
0
  3
Dashed __ __ __ __ __ __ __ __ __ __ __ __ __ _
 72
65
 73
2
 40
19.0500000000000007
 49
12.6999999999999993
 74
0
 49
-6.3499999999999996
 74
0
  0
LTYPE
  5
40
100
AcDbSymbolTableRecord
100
AcDbLinetypeTableRecord
  2
DOTX2
 70
0
  3
Dot (2x) .  .  .  .  .  .  .  .  .  .  .  .  .
 72
65
 73
2
 40
12.6999999999999993
 49
0.0
 74
0
 49
-12.6999999999999993
 74
0
  0
LTYPE
  5
41
100
AcDbSymbolTableRecord
100
AcDbLinetypeTableRecord
  2
DASHEDX2
 70
0
  3
Dashed (2x) ____  ____  ____  ____  ____  ___
 72
65
 73
2
 40
38.1000000000000014
 49
25.3999999999999986
 74
0
 49
-12.6999999999999993
 74
0
  0
LTYPE
  5
42
100
AcDbSymbolTableRecord
100
AcDbLinetypeTableRecord
  2
DOT
 70
0
  3
Dot . . . . . . . . . . . . . . . . . . . . . .
 72
65
 73
2
 40
6.3499999999999996
 49
0.0
 74
0
 49
-6.3499999999999996
 74
0
  0
ENDTAB
  0
TABLE
  2
LAYER
  5
2
100
AcDbSymbolTable
 70
1
  0
LAYER
  5
10
100
AcDbSymbolTableRecord
100
AcDbLayerTableRecord
  2
0
 70
0
 62
7
420
16777215
  6
CONTINUOUS
370
25
390
F
  0
ENDTAB
  0
TABLE
  2
STYLE
  5
3
100
AcDbSymbolTable
 70
1
  0
STYLE
  5
43
100
AcDbSymbolTableRecord
100
AcDbTextStyleTableRecord
  2
Standard
 70
0
 40
0.0
 41
1.0
 50
0.0
 71
0
 42
2.5
  3

  4

1001
ACAD
1000
txt
1071
0
  0
ENDTAB
  0
TABLE
  2
VIEW
  5
6
100
AcDbSymbolTable
 70
0
  0
ENDTAB
  0
TABLE
  2
UCS
  5
7
100
AcDbSymbolTable
 70
0
  0
ENDTAB
  0
TABLE
  2
APPID
  5
9
100
AcDbSymbolTable
 70
1
  0
APPID
  5
12
100
AcDbSymbolTableRecord
100
AcDbRegAppTableRecord
  2
ACAD
 70
0
  0
APPID
  5
44
100
AcDbSymbolTableRecord
100
AcDbRegAppTableRecord
  2
QCAD
 70
0
  0
ENDTAB
  0
TABLE
  2
DIMSTYLE
  5
A
100
AcDbSymbolTable
 70
1
100
AcDbDimStyleTable
 71
0
  0
DIMSTYLE
105
27
100
AcDbSymbolTableRecord
100
AcDbDimStyleTableRecord
  2
Standard
 41
0.18
 42
0.0625
 43
3.75
 44
0.18
 70
0
 73
0
 74
0
 77
1
 78
8
140
0.18
141
2.5
143
0.03937007874016
147
0.09
171
3
172
1
271
2
272
2
274
3
278
44
283
0
284
8
340
43
  0
ENDTAB
  0
TABLE
  2
BLOCK_RECORD
  5
1
100
AcDbSymbolTable
 70
1
  0
BLOCK_RECORD
  5
1F
100
AcDbSymbolTableRecord
100
AcDbBlockTableRecord
  2
*Model_Space
340
22
  0
BLOCK_RECORD
  5
1B
100
AcDbSymbolTableRecord
100
AcDbBlockTableRecord
  2
*Paper_Space
340
1E
  0
BLOCK_RECORD
  5
23
100
AcDbSymbolTableRecord
100
AcDbBlockTableRecord
  2
*Paper_Space0
340
26
  0
ENDTAB
  0
ENDSEC
  0
SECTION
  2
BLOCKS
  0
BLOCK
  5
20
100
AcDbEntity
  8
0
100
AcDbBlockBegin
  2
*Model_Space
 70
0
 10
0.0
 20
0.0
 30
0.0
  3
*Model_Space
  1

  0
ENDBLK
  5
21
100
AcDbEntity
  8
0
100
AcDbBlockEnd
  0
BLOCK
  5
1C
100
AcDbEntity
 67
1
  8
0
100
AcDbBlockBegin
  2
*Paper_Space
 70
0
 10
0.0
 20
0.0
 30
0.0
  3
*Paper_Space
  1

  0
ENDBLK
  5
1D
100
AcDbEntity
 67
1
  8
0
100
AcDbBlockEnd
  0
BLOCK
  5
24
100
AcDbEntity
  8
0
100
AcDbBlockBegin
  2
*Paper_Space0
 70
0
 10
0.0
 20
0.0
 30
0.0
  3
*Paper_Space0
  1

  0
ENDBLK
  5
25
100
AcDbEntity
  8
0
100
AcDbBlockEnd
  0
ENDSEC
  0
SECTION
  2
ENTITIES
  0
LINE
  5
45
100
AcDbEntity
100
AcDbLine
  8
0
 62
256
370
-1
  6
BYLAYER
 10
-86.6629999999999967
 20
-0.759
 30
0.0
 11
-86.6629999999999967
 21
0.759
 31
0.0
  0
LINE
  5
46
100
AcDbEntity
100
AcDbLine
  8
0
 62
256
370
-1
  6
BYLAYER
 10
-86.6629999999999967
 20
0.759
 30
0.0
 11
-85.1129999999999995
 21
1.663
 31
0.0
  0
LINE
  5
47
100
AcDbEntity
100
AcDbLine
  8
0
 62
256
370
-1
  6
BYLAYER
 10
-85.1129999999999995
 20
1.663
 30
0.0
 11
-83.6340000000000003
 21
2.448
 31
0.0
  0
LINE
  5
48
100
AcDbEntity
100
AcDbLine
  8
0
 62
256
370
-1
  6
BYLAYER
 10
-83.6340000000000003
 20
2.448
 30
0.0
 11
-82.2330000000000041
 21
3.1190000000000002
 31
0.0
  0
LINE
  5
49
100
AcDbEntity
100
AcDbLine
  8
0
 62
256
370
-1
  6
BYLAYER
 10
-82.2330000000000041
 20
3.1190000000000002
 30
0.0
 11
-80.9170000000000016
 21
3.6850000000000001
 31
0.0
  0
LINE
  5
4A
100
AcDbEntity
100
AcDbLine
  8
0
 62
256
370
-1
  6
BYLAYER
 10
-80.9170000000000016
 20
3.6850000000000001
 30
0.0
 11
-79.6919999999999931
 21
4.1550000000000002
 31
0.0
  0
LINE
  5
4B
100
AcDbEntity
100
AcDbLine
  8
0
 62
256
370
-1
  6
BYLAYER
 10
-79.6919999999999931
 20
4.1550000000000002
 30
0.0
 11
-79.6569999999999965
 21
4.1529999999999996
 31
0.0
  0
LINE
  5
4C
100
AcDbEntity
100
AcDbLine
  8
0
 62
256
370
-1
  6
BYLAYER
 10
-79.6569999999999965
 20
4.1529999999999996
 30
0.0
 11
-79.5499999999999972
 21
5.8630000000000004
 31
0.0
  0
LINE
  5
4D
100
AcDbEntity
100
AcDbLine
  8
0
 62
256
370
-1
  6
BYLAYER
 10
-79.5499999999999972
 20
5.8630000000000004
 30
0.0
 11
-79.5840000000000032
 21
5.8659999999999997
 31
0.0
  0
LINE
  5
4E
100
AcDbEntity
100
AcDbLine
  8
0
 62
256
370
-1
  6
BYLAYER
 10
-79.5840000000000032
 20
5.8659999999999997
 30
0.0
 11
-80.7409999999999997
 21
6.4859999999999998
 31
0.0
  0
LINE
  5
4F
100
AcDbEntity
100
AcDbLine
  8
0
 62
256
370
-1
  6
BYLAYER
 10
-80.7409999999999997
 20
6.4859999999999998
 30
0.0
 11
-81.9749999999999943
 21
7.2119999999999997
 31
0.0
  0
LINE
  5
50
100
AcDbEntity
100
AcDbLine
  8
0
 62
256
370
-1
  6
BYLAYER
 10
-81.9749999999999943
 20
7.2119999999999997
 30
0.0
 11
-83.2810000000000059
 21
8.0530000000000008
 31
0.0
  0
LINE
  5
51
100
AcDbEntity
100
AcDbLine
  8
0
 62
256
370
-1
  6
BYLAYER
 10
-83.2810000000000059
 20
8.0530000000000008
 30
0.0
 11
-84.6500000000000057
 21
9.0180000000000007
 31
0.0
  0
LINE
  5
52
100
AcDbEntity
100
AcDbLine
  8
0
 62
256
370
-1
  6
BYLAYER
 10
-84.6500000000000057
 20
9.0180000000000007
 30
0.0
 11
-86.0750000000000028
 21
10.109
 31
0.0
  0
LINE
  5
53
100
AcDbEntity
100
AcDbLine
  8
0
 62
256
370
-1
  6
BYLAYER
 10
-86.0750000000000028
 20
10.109
 30
0.0
 11
-85.8850000000000051
 21
11.6150000000000002
 31
0.0
  0
LINE
  5
54
100
AcDbEntity
100
AcDbLine
  8
0
 62
256
370
-1
  6
BYLAYER
 10
-85.8850000000000051
 20
11.6150000000000002
 30
0.0
 11
-84.2330000000000041
 21
12.3170000000000002
 31
0.0
  0
LINE
  5
55
100
AcDbEntity
100
AcDbLine
  8
0
 62
256
370
-1
  6
BYLAYER
 10
-84.2330000000000041
 20
12.3170000000000002
 30
0.0
 11
-82.6680000000000064
 21
12.9109999999999996
 31
0.0
  0
LINE
  5
56
100
AcDbEntity
100
AcDbLine
  8
0
 62
256
370
-1
  6
BYLAYER
 10
-82.6680000000000064
 20
12.9109999999999996
 30
0.0
 11
-81.1940000000000026
 21
13.4009999999999998
 31
0.0
  0
LINE
  5
57
100
AcDbEntity
100
AcDbLine
  8
0
 62
256
370
-1
  6
BYLAYER
 10
-81.1940000000000026
 20
13.4009999999999998
 30
0.0
 11
-79.8169999999999931
 21
13.798
 31
0.0
  0
LINE
  5
58
100
AcDbEntity
100
AcDbLine
  8
0
 62
256
370
-1
  6
BYLAYER
 10
-79.8169999999999931
 20
13.798
 30
0.0
 11
-78.5430000000000064
 21
14.1099999999999994
 31
0.0
  0
LINE
  5
59
100
AcDbEntity
100
AcDbLine
  8
0
 62
256
370
-1
  6
BYLAYER
 10
-78.5430000000000064
 20
14.1099999999999994
 30
0.0
 11
-78.5090000000000003
 21
14.1039999999999992
 31
0.0
  0
LINE
  5
5A
100
AcDbEntity
100
AcDbLine
  8
0
 62
256
370
-1
  6
BYLAYER
 10
-78.5090000000000003
 20
14.1039999999999992
 30
0.0
 11
-78.1869999999999976
 21
15.7870000000000008
 31
0.0
  0
LINE
  5
5B
100
AcDbEntity
100
AcDbLine
  8
0
 62
256
370
-1
  6
BYLAYER
 10
-78.1869999999999976
 20
15.7870000000000008
 30
0.0
 11
-78.2219999999999942
 21
15.7940000000000005
 31
0.0
  0
LINE
  5
5C
100
AcDbEntity
100
AcDbLine
  8
0
 62
256
370
-1
  6
BYLAYER
 10
-78.2219999999999942
 20
15.7940000000000005
 30
0.0
 11
-79.2909999999999968
 21
16.5539999999999985
 31
0.0
  0
LINE
  5
5D
100
AcDbEntity
100
AcDbLine
  8
0
 62
256
370
-1
  6
BYLAYER
 10
-79.2909999999999968
 20
16.5539999999999985
 30
0.0
 11
-80.4249999999999972
 21
17.4299999999999997
 31
0.0
  0
LINE
  5
5E
100
AcDbEntity
100
AcDbLine
  8
0
 62
256
370
-1
  6
BYLAYER
 10
-80.4249999999999972
 20
17.4299999999999997
 30
0.0
 11
-81.6149999999999949
 21
18.4280000000000008
 31
0.0
  0
LINE
  5
5F
100
AcDbEntity
100
AcDbLine
  8
0
 62
256
370
-1
  6
BYLAYER
 10
-81.6149999999999949
 20
18.4280000000000008
 30
0.0
 11
-82.8529999999999944
 21
19.5560000000000009
 31
0.0
  0
LINE
  5
60
100
AcDbEntity
100
AcDbLine
  8
0
 62
256
370
-1
  6
BYLAYER
 10
-82.8529999999999944
 20
19.5560000000000009
 30
0.0
 11
-84.1290000000000049
 21
20.8170000000000002
 31
0.0
  0
LINE
  5
61
100
AcDbEntity
100
AcDbLine
  8
0
 62
256
370
-1
  6
BYLAYER
 10
-84.1290000000000049
 20
20.8170000000000002
 30
0.0
 11
-83.7519999999999953
 21
22.286999999999999
 31
0.0
  0
LINE
  5
62
100
AcDbEntity
100
AcDbLine
  8
0
 62
256
370
-1
  6
BYLAYER
 10
-83.7519999999999953
 20
22.286999999999999
 30
0.0
 11
-82.0250000000000057
 21
22.777000000000001
 31
0.0
  0
LINE
  5
63
100
AcDbEntity
100
AcDbLine
  8
0
 62
256
370
-1
  6
BYLAYER
 10
-82.0250000000000057
 20
22.777000000000001
 30
0.0
 11
-80.3979999999999961
 21
23.1700000000000017
 31
0.0
  0
LINE
  5
64
100
AcDbEntity
100
AcDbLine
  8
0
 62
256
370
-1
  6
BYLAYER
 10
-80.3979999999999961
 20
23.1700000000000017
 30
0.0
 11
-78.8739999999999952
 21
23.4720000000000013
 31
0.0
  0
LINE
  5
65
100
AcDbEntity
100
AcDbLine
  8
0
 62
256
370
-1
  6
BYLAYER
 10
-78.8739999999999952
 20
23.4720000000000013
 30
0.0
 11
-77.4579999999999984
 21
23.6920000000000002
 31
0.0
  0
LINE
  5
66
100
AcDbEntity
100
AcDbLine
  8
0
 62
256
370
-1
  6
BYLAYER
 10
-77.4579999999999984
 20
23.6920000000000002
 30
0.0
 11
-76.1550000000000011
 21
23.843
 31
0.0
  0
LINE
  5
67
100
AcDbEntity
100
AcDbLine
  8
0
 62
256
370
-1
  6
BYLAYER
 10
-76.1550000000000011
 20
23.843
 30
0.0
 11
-76.1209999999999951
 21
23.8320000000000007
 31
0.0
  0
LINE
  5
68
100
AcDbEntity
100
AcDbLine
  8
0
 62
256
370
-1
  6
BYLAYER
 10
-76.1209999999999951
 20
23.8320000000000007
 30
0.0
 11
-75.5919999999999987
 21
25.4619999999999997
 31
0.0
  0
LINE
  5
69
100
AcDbEntity
100
AcDbLine
  8
0
 62
256
370
-1
  6
BYLAYER
 10
-75.5919999999999987
 20
25.4619999999999997
 30
0.0
 11
-75.625
 21
25.472999999999999
 31
0.0
  0
LINE
  5
6A
100
AcDbEntity
100
AcDbLine
  8
0
 62
256
370
-1
  6
BYLAYER
 10
-75.625
 20
25.472999999999999
 30
0.0
 11
-76.590999999999994
 21
26.3610000000000007
 31
0.0
  0
LINE
  5
6B
100
AcDbEntity
100
AcDbLine
  8
0
 62
256
370
-1
  6
BYLAYER
 10
-76.590999999999994
 20
26.3610000000000007
 30
0.0
 11
-77.6059999999999945
 21
27.3719999999999999
 31
0.0
  0
LINE
  5
6C
100
AcDbEntity
100
AcDbLine
  8
0
 62
256
370
-1
  6
BYLAYER
 10
-77.6059999999999945
 20
27.3719999999999999
 30
0.0
 11
-78.6620000000000061
 21
28.5120000000000005
 31
0.0
  0
LINE
  5
6D
100
AcDbEntity
100
AcDbLine
  8
0
 62
256
370
-1
  6
BYLAYER
 10
-78.6620000000000061
 20
28.5120000000000005
 30
0.0
 11
-79.7480000000000047
 21
29.7860000000000014
 31
0.0
  0
LINE
  5
6E
100
AcDbEntity
100
AcDbLine
  8
0
 62
256
370
-1
  6
BYLAYER
 10
-79.7480000000000047
 20
29.7860000000000014
 30
0.0
 11
-80.8569999999999993
 21
31.1969999999999992
 31
0.0
  0
LINE
  5
6F
100
AcDbEntity
100
AcDbLine
  8
0
 62
256
370
-1
  6
BYLAYER
 10
-80.8569999999999993
 20
31.1969999999999992
 30
0.0
 11
-80.2980000000000018
 21
32.607999999999997
 31
0.0
  0
LINE
  5
70
100
AcDbEntity
100
AcDbLine
  8
0
 62
256
370
-1
  6
BYLAYER
 10
-80.2980000000000018
 20
32.607999999999997
 30
0.0
 11
-78.5240000000000009
 21
32.8780000000000001
 31
0.0
  0
LINE
  5
71
100
AcDbEntity
100
AcDbLine
  8
0
 62
256
370
-1
  6
BYLAYER
 10
-78.5240000000000009
 20
32.8780000000000001
 30
0.0
 11
-76.8599999999999994
 21
33.0640000000000001
 31
0.0
  0
LINE
  5
72
100
AcDbEntity
100
AcDbLine
  8
0
 62
256
370
-1
  6
BYLAYER
 10
-76.8599999999999994
 20
33.0640000000000001
 30
0.0
 11
-75.3100000000000023
 21
33.171999999999997
 31
0.0
  0
LINE
  5
73
100
AcDbEntity
100
AcDbLine
  8
0
 62
256
370
-1
  6
BYLAYER
 10
-75.3100000000000023
 20
33.171999999999997
 30
0.0
 11
-73.8780000000000001
 21
33.2139999999999986
 31
0.0
  0
LINE
  5
74
100
AcDbEntity
100
AcDbLine
  8
0
 62
256
370
-1
  6
BYLAYER
 10
-73.8780000000000001
 20
33.2139999999999986
 30
0.0
 11
-72.5660000000000025
 21
33.2000000000000028
 31
0.0
  0
LINE
  5
75
100
AcDbEntity
100
AcDbLine
  8
0
 62
256
370
-1
  6
BYLAYER
 10
-72.5660000000000025
 20
33.2000000000000028
 30
0.0
 11
-72.534000000000006
 21
33.1850000000000023
 31
0.0
  0
LINE
  5
76
100
AcDbEntity
100
AcDbLine
  8
0
 62
256
370
-1
  6
BYLAYER
 10
-72.534000000000006
 20
33.1850000000000023
 30
0.0
 11
-71.8050000000000068
 21
34.7359999999999971
 31
0.0
  0
LINE
  5
77
100
AcDbEntity
100
AcDbLine
  8
0
 62
256
370
-1
  6
BYLAYER
 10
-71.8050000000000068
 20
34.7359999999999971
 30
0.0
 11
-71.8359999999999985
 21
34.7509999999999977
 31
0.0
  0
LINE
  5
78
100
AcDbEntity
100
AcDbLine
  8
0
 62
256
370
-1
  6
BYLAYER
 10
-71.8359999999999985
 20
34.7509999999999977
 30
0.0
 11
-72.6830000000000069
 21
35.7530000000000001
 31
0.0
  0
LINE
  5
79
100
AcDbEntity
100
AcDbLine
  8
0
 62
256
370
-1
  6
BYLAYER
 10
-72.6830000000000069
 20
35.7530000000000001
 30
0.0
 11
-73.563999999999993
 21
36.8830000000000027
 31
0.0
  0
LINE
  5
7A
100
AcDbEntity
100
AcDbLine
  8
0
 62
256
370
-1
  6
BYLAYER
 10
-73.563999999999993
 20
36.8830000000000027
 30
0.0
 11
-74.4680000000000035
 21
38.1460000000000008
 31
0.0
  0
LINE
  5
7B
100
AcDbEntity
100
AcDbLine
  8
0
 62
256
370
-1
  6
BYLAYER
 10
-74.4680000000000035
 20
38.1460000000000008
 30
0.0
 11
-75.3859999999999957
 21
39.5459999999999994
 31
0.0
  0
LINE
  5
7C
100
AcDbEntity
100
AcDbLine
  8
0
 62
256
370
-1
  6
BYLAYER
 10
-75.3859999999999957
 20
39.5459999999999994
 30
0.0
 11
-76.3089999999999975
 21
41.0850000000000009
 31
0.0
  0
LINE
  5
7D
100
AcDbEntity
100
AcDbLine
  8
0
 62
256
370
-1
  6
BYLAYER
 10
-76.3089999999999975
 20
41.0850000000000009
 30
0.0
 11
-75.578000000000003
 21
42.4149999999999991
 31
0.0
  0
LINE
  5
7E
100
AcDbEntity
100
AcDbLine
  8
0
 62
256
370
-1
  6
BYLAYER
 10
-75.578000000000003
 20
42.4149999999999991
 30
0.0
 11
-73.784000000000006
 21
42.4609999999999985
 31
0.0
  0
LINE
  5
7F
100
AcDbEntity
100
AcDbLine
  8
0
 62
256
370
-1
  6
BYLAYER
 10
-73.784000000000006
 20
42.4609999999999985
 30
0.0
 11
-72.1099999999999994
 21
42.4359999999999999
 31
0.0
  0
LINE
  5
80
100
AcDbEntity
100
AcDbLine
  8
0
 62
256
370
-1
  6
BYLAYER
 10
-72.1099999999999994
 20
42.4359999999999999
 30
0.0
 11
-70.5589999999999975
 21
42.3489999999999966
 31
0.0
  0
LINE
  5
81
100
AcDbEntity
100
AcDbLine
  8
0
 62
256
370
-1
  6
BYLAYER
 10
-70.5589999999999975
 20
42.3489999999999966
 30
0.0
 11
-69.1329999999999956
 21
42.2109999999999985
 31
0.0
  0
LINE
  5
82
100
AcDbEntity
100
AcDbLine
  8
0
 62
256
370
-1
  6
BYLAYER
 10
-69.1329999999999956
 20
42.2109999999999985
 30
0.0
 11
-67.8329999999999984
 21
42.0330000000000013
 31
0.0
  0
LINE
  5
83
100
AcDbEntity
100
AcDbLine
  8
0
 62
256
370
-1
  6
BYLAYER
 10
-67.8329999999999984
 20
42.0330000000000013
 30
0.0
 11
-67.8029999999999973
 21
42.0150000000000006
 31
0.0
  0
LINE
  5
84
100
AcDbEntity
100
AcDbLine
  8
0
 62
256
370
-1
  6
BYLAYER
 10
-67.8029999999999973
 20
42.0150000000000006
 30
0.0
 11
-66.8850000000000051
 21
43.4609999999999985
 31
0.0
  0
LINE
  5
85
100
AcDbEntity
100
AcDbLine
  8
0
 62
256
370
-1
  6
BYLAYER
 10
-66.8850000000000051
 20
43.4609999999999985
 30
0.0
 11
-66.9140000000000015
 21
43.4799999999999969
 31
0.0
  0
LINE
  5
86
100
AcDbEntity
100
AcDbLine
  8
0
 62
256
370
-1
  6
BYLAYER
 10
-66.9140000000000015
 20
43.4799999999999969
 30
0.0
 11
-67.6290000000000049
 21
44.5810000000000031
 31
0.0
  0
LINE
  5
87
100
AcDbEntity
100
AcDbLine
  8
0
 62
256
370
-1
  6
BYLAYER
 10
-67.6290000000000049
 20
44.5810000000000031
 30
0.0
 11
-68.3610000000000042
 21
45.8119999999999976
 31
0.0
  0
LINE
  5
88
100
AcDbEntity
100
AcDbLine
  8
0
 62
256
370
-1
  6
BYLAYER
 10
-68.3610000000000042
 20
45.8119999999999976
 30
0.0
 11
-69.0999999999999943
 21
47.1779999999999973
 31
0.0
  0
LINE
  5
89
100
AcDbEntity
100
AcDbLine
  8
0
 62
256
370
-1
  6
BYLAYER
 10
-69.0999999999999943
 20
47.1779999999999973
 30
0.0
 11
-69.8349999999999937
 21
48.6829999999999998
 31
0.0
  0
LINE
  5
8A
100
AcDbEntity
100
AcDbLine
  8
0
 62
256
370
-1
  6
BYLAYER
 10
-69.8349999999999937
 20
48.6829999999999998
 30
0.0
 11
-70.5580000000000069
 21
50.3250000000000028
 31
0.0
  0
LINE
  5
8B
100
AcDbEntity
100
AcDbLine
  8
0
 62
256
370
-1
  6
BYLAYER
 10
-70.5580000000000069
 20
50.3250000000000028
 30
0.0
 11
-69.6659999999999968
 21
51.5529999999999973
 31
0.0
  0
LINE
  5
8C
100
AcDbEntity
100
AcDbLine
  8
0
 62
256
370
-1
  6
BYLAYER
 10
-69.6659999999999968
 20
51.5529999999999973
 30
0.0
 11
-67.8799999999999955
 21
51.3740000000000023
 31
0.0
  0
LINE
  5
8D
100
AcDbEntity
100
AcDbLine
  8
0
 62
256
370
-1
  6
BYLAYER
 10
-67.8799999999999955
 20
51.3740000000000023
 30
0.0
 11
-66.2219999999999942
 21
51.1390000000000029
 31
0.0
  0
LINE
  5
8E
100
AcDbEntity
100
AcDbLine
  8
0
 62
256
370
-1
  6
BYLAYER
 10
-66.2219999999999942
 20
51.1390000000000029
 30
0.0
 11
-64.6949999999999932
 21
50.8590000000000018
 31
0.0
  0
LINE
  5
8F
100
AcDbEntity
100
AcDbLine
  8
0
 62
256
370
-1
  6
BYLAYER
 10
-64.6949999999999932
 20
50.8590000000000018
 30
0.0
 11
-63.296999999999997
 21
50.5429999999999993
 31
0.0
  0
LINE
  5
90
100
AcDbEntity
100
AcDbLine
  8
0
 62
256
370
-1
  6
BYLAYER
 10
-63.296999999999997
 20
50.5429999999999993
 30
0.0
 11
-62.0300000000000011
 21
50.203000000000003
 31
0.0
  0
LINE
  5
91
100
AcDbEntity
100
AcDbLine
  8
0
 62
256
370
-1
  6
BYLAYER
 10
-62.0300000000000011
 20
50.203000000000003
 30
0.0
 11
-62.0030000000000001
 21
50.1809999999999974
 31
0.0
  0
LINE
  5
92
100
AcDbEntity
100
AcDbLine
  8
0
 62
256
370
-1
  6
BYLAYER
 10
-62.0030000000000001
 20
50.1809999999999974
 30
0.0
 11
-60.9110000000000014
 21
51.5020000000000024
 31
0.0
  0
LINE
  5
93
100
AcDbEntity
100
AcDbLine
  8
0
 62
256
370
-1
  6
BYLAYER
 10
-60.9110000000000014
 20
51.5020000000000024
 30
0.0
 11
-60.9369999999999976
 21
51.5240000000000009
 31
0.0
  0
LINE
  5
94
100
AcDbEntity
100
AcDbLine
  8
0
 62
256
370
-1
  6
BYLAYER
 10
-60.9369999999999976
 20
51.5240000000000009
 30
0.0
 11
-61.5090000000000003
 21
52.7049999999999983
 31
0.0
  0
LINE
  5
95
100
AcDbEntity
100
AcDbLine
  8
0
 62
256
370
-1
  6
BYLAYER
 10
-61.5090000000000003
 20
52.7049999999999983
 30
0.0
 11
-62.0799999999999983
 21
54.0189999999999984
 31
0.0
  0
LINE
  5
96
100
AcDbEntity
100
AcDbLine
  8
0
 62
256
370
-1
  6
BYLAYER
 10
-62.0799999999999983
 20
54.0189999999999984
 30
0.0
 11
-62.642000000000003
 21
55.4669999999999987
 31
0.0
  0
LINE
  5
97
100
AcDbEntity
100
AcDbLine
  8
0
 62
256
370
-1
  6
BYLAYER
 10
-62.642000000000003
 20
55.4669999999999987
 30
0.0
 11
-63.1829999999999998
 21
57.0519999999999996
 31
0.0
  0
LINE
  5
98
100
AcDbEntity
100
AcDbLine
  8
0
 62
256
370
-1
  6
BYLAYER
 10
-63.1829999999999998
 20
57.0519999999999996
 30
0.0
 11
-63.6940000000000026
 21
58.7719999999999985
 31
0.0
  0
LINE
  5
99
100
AcDbEntity
100
AcDbLine
  8
0
 62
256
370
-1
  6
BYLAYER
 10
-63.6940000000000026
 20
58.7719999999999985
 30
0.0
 11
-62.6550000000000011
 21
59.8780000000000001
 31
0.0
  0
LINE
  5
9A
100
AcDbEntity
100
AcDbLine
  8
0
 62
256
370
-1
  6
BYLAYER
 10
-62.6550000000000011
 20
59.8780000000000001
 30
0.0
 11
-60.9059999999999988
 21
59.4759999999999991
 31
0.0
  0
LINE
  5
9B
100
AcDbEntity
100
AcDbLine
  8
0
 62
256
370
-1
  6
BYLAYER
 10
-60.9059999999999988
 20
59.4759999999999991
 30
0.0
 11
-59.2909999999999968
 21
59.0360000000000014
 31
0.0
  0
LINE
  5
9C
100
AcDbEntity
100
AcDbLine
  8
0
 62
256
370
-1
  6
BYLAYER
 10
-59.2909999999999968
 20
59.0360000000000014
 30
0.0
 11
-57.8100000000000023
 21
58.5660000000000025
 31
0.0
  0
LINE
  5
9D
100
AcDbEntity
100
AcDbLine
  8
0
 62
256
370
-1
  6
BYLAYER
 10
-57.8100000000000023
 20
58.5660000000000025
 30
0.0
 11
-56.463000000000001
 21
58.078000000000003
 31
0.0
  0
LINE
  5
9E
100
AcDbEntity
100
AcDbLine
  8
0
 62
256
370
-1
  6
BYLAYER
 10
-56.463000000000001
 20
58.078000000000003
 30
0.0
 11
-55.2490000000000023
 21
57.5820000000000007
 31
0.0
  0
LINE
  5
9F
100
AcDbEntity
100
AcDbLine
  8
0
 62
256
370
-1
  6
BYLAYER
 10
-55.2490000000000023
 20
57.5820000000000007
 30
0.0
 11
-55.2239999999999966
 21
57.5559999999999974
 31
0.0
  0
LINE
  5
A0
100
AcDbEntity
100
AcDbLine
  8
0
 62
256
370
-1
  6
BYLAYER
 10
-55.2239999999999966
 20
57.5559999999999974
 30
0.0
 11
-53.9750000000000014
 21
58.7289999999999992
 31
0.0
  0
LINE
  5
A1
100
AcDbEntity
100
AcDbLine
  8
0
 62
256
370
-1
  6
BYLAYER
 10
-53.9750000000000014
 20
58.7289999999999992
 30
0.0
 11
-53.9990000000000023
 21
58.7550000000000026
 31
0.0
  0
LINE
  5
A2
100
AcDbEntity
100
AcDbLine
  8
0
 62
256
370
-1
  6
BYLAYER
 10
-53.9990000000000023
 20
58.7550000000000026
 30
0.0
 11
-54.4179999999999993
 21
59.9990000000000023
 31
0.0
  0
LINE
  5
A3
100
AcDbEntity
100
AcDbLine
  8
0
 62
256
370
-1
  6
BYLAYER
 10
-54.4179999999999993
 20
59.9990000000000023
 30
0.0
 11
-54.820999999999998
 21
61.3729999999999976
 31
0.0
  0
LINE
  5
A4
100
AcDbEntity
100
AcDbLine
  8
0
 62
256
370
-1
  6
BYLAYER
 10
-54.820999999999998
 20
61.3729999999999976
 30
0.0
 11
-55.1970000000000027
 21
62.8810000000000002
 31
0.0
  0
LINE
  5
A5
100
AcDbEntity
100
AcDbLine
  8
0
 62
256
370
-1
  6
BYLAYER
 10
-55.1970000000000027
 20
62.8810000000000002
 30
0.0
 11
-55.5339999999999989
 21
64.5210000000000008
 31
0.0
  0
LINE
  5
A6
100
AcDbEntity
100
AcDbLine
  8
0
 62
256
370
-1
  6
BYLAYER
 10
-55.5339999999999989
 20
64.5210000000000008
 30
0.0
 11
-55.8260000000000005
 21
66.2909999999999968
 31
0.0
  0
LINE
  5
A7
100
AcDbEntity
100
AcDbLine
  8
0
 62
256
370
-1
  6
BYLAYER
 10
-55.8260000000000005
 20
66.2909999999999968
 30
0.0
 11
-54.6559999999999988
 21
67.2590000000000003
 31
0.0
  0
LINE
  5
A8
100
AcDbEntity
100
AcDbLine
  8
0
 62
256
370
-1
  6
BYLAYER
 10
-54.6559999999999988
 20
67.2590000000000003
 30
0.0
 11
-52.9720000000000013
 21
66.6410000000000053
 31
0.0
  0
LINE
  5
A9
100
AcDbEntity
100
AcDbLine
  8
0
 62
256
370
-1
  6
BYLAYER
 10
-52.9720000000000013
 20
66.6410000000000053
 30
0.0
 11
-51.4239999999999995
 21
66.0019999999999953
 31
0.0
  0
LINE
  5
AA
100
AcDbEntity
100
AcDbLine
  8
0
 62
256
370
-1
  6
BYLAYER
 10
-51.4239999999999995
 20
66.0019999999999953
 30
0.0
 11
-50.0140000000000029
 21
65.3499999999999943
 31
0.0
  0
LINE
  5
AB
100
AcDbEntity
100
AcDbLine
  8
0
 62
256
370
-1
  6
BYLAYER
 10
-50.0140000000000029
 20
65.3499999999999943
 30
0.0
 11
-48.7389999999999972
 21
64.6970000000000027
 31
0.0
  0
LINE
  5
AC
100
AcDbEntity
100
AcDbLine
  8
0
 62
256
370
-1
  6
BYLAYER
 10
-48.7389999999999972
 20
64.6970000000000027
 30
0.0
 11
-47.5959999999999965
 21
64.0520000000000067
 31
0.0
  0
LINE
  5
AD
100
AcDbEntity
100
AcDbLine
  8
0
 62
256
370
-1
  6
BYLAYER
 10
-47.5959999999999965
 20
64.0520000000000067
 30
0.0
 11
-47.5750000000000028
 21
64.0240000000000009
 31
0.0
  0
LINE
  5
AE
100
AcDbEntity
100
AcDbLine
  8
0
 62
256
370
-1
  6
BYLAYER
 10
-47.5750000000000028
 20
64.0240000000000009
 30
0.0
 11
-46.1890000000000001
 21
65.0319999999999965
 31
0.0
  0
LINE
  5
AF
100
AcDbEntity
100
AcDbLine
  8
0
 62
256
370
-1
  6
BYLAYER
 10
-46.1890000000000001
 20
65.0319999999999965
 30
0.0
 11
-46.2090000000000032
 21
65.0600000000000023
 31
0.0
  0
LINE
  5
B0
100
AcDbEntity
100
AcDbLine
  8
0
 62
256
370
-1
  6
BYLAYER
 10
-46.2090000000000032
 20
65.0600000000000023
 30
0.0
 11
-46.4690000000000012
 21
66.3460000000000036
 31
0.0
  0
LINE
  5
B1
100
AcDbEntity
100
AcDbLine
  8
0
 62
256
370
-1
  6
BYLAYER
 10
-46.4690000000000012
 20
66.3460000000000036
 30
0.0
 11
-46.695999999999998
 21
67.7600000000000051
 31
0.0
  0
LINE
  5
B2
100
AcDbEntity
100
AcDbLine
  8
0
 62
256
370
-1
  6
BYLAYER
 10
-46.695999999999998
 20
67.7600000000000051
 30
0.0
 11
-46.8800000000000026
 21
69.3029999999999973
 31
0.0
  0
LINE
  5
B3
100
AcDbEntity
100
AcDbLine
  8
0
 62
256
370
-1
  6
BYLAYER
 10
-46.8800000000000026
 20
69.3029999999999973
 30
0.0
 11
-47.009999999999998
 21
70.9719999999999942
 31
0.0
  0
LINE
  5
B4
100
AcDbEntity
100
AcDbLine
  8
0
 62
256
370
-1
  6
BYLAYER
 10
-47.009999999999998
 20
70.9719999999999942
 30
0.0
 11
-47.0769999999999982
 21
72.7650000000000006
 31
0.0
  0
LINE
  5
B5
100
AcDbEntity
100
AcDbLine
  8
0
 62
256
370
-1
  6
BYLAYER
 10
-47.0769999999999982
 20
72.7650000000000006
 30
0.0
 11
-45.7959999999999994
 21
73.5789999999999935
 31
0.0
  0
LINE
  5
B6
100
AcDbEntity
100
AcDbLine
  8
0
 62
256
370
-1
  6
BYLAYER
 10
-45.7959999999999994
 20
73.5789999999999935
 30
0.0
 11
-44.2019999999999982
 21
72.7540000000000049
 31
0.0
  0
LINE
  5
B7
100
AcDbEntity
100
AcDbLine
  8
0
 62
256
370
-1
  6
BYLAYER
 10
-44.2019999999999982
 20
72.7540000000000049
 30
0.0
 11
-42.7460000000000022
 21
71.9260000000000019
 31
0.0
  0
LINE
  5
B8
100
AcDbEntity
100
AcDbLine
  8
0
 62
256
370
-1
  6
BYLAYER
 10
-42.7460000000000022
 20
71.9260000000000019
 30
0.0
 11
-41.429000000000002
 21
71.1029999999999944
 31
0.0
  0
LINE
  5
B9
100
AcDbEntity
100
AcDbLine
  8
0
 62
256
370
-1
  6
BYLAYER
 10
-41.429000000000002
 20
71.1029999999999944
 30
0.0
 11
-40.2460000000000022
 21
70.2950000000000017
 31
0.0
  0
LINE
  5
BA
100
AcDbEntity
100
AcDbLine
  8
0
 62
256
370
-1
  6
BYLAYER
 10
-40.2460000000000022
 20
70.2950000000000017
 30
0.0
 11
-39.1929999999999978
 21
69.5130000000000052
 31
0.0
  0
LINE
  5
BB
100
AcDbEntity
100
AcDbLine
  8
0
 62
256
370
-1
  6
BYLAYER
 10
-39.1929999999999978
 20
69.5130000000000052
 30
0.0
 11
-39.1760000000000019
 21
69.4819999999999993
 31
0.0
  0
LINE
  5
BC
100
AcDbEntity
100
AcDbLine
  8
0
 62
256
370
-1
  6
BYLAYER
 10
-39.1760000000000019
 20
69.4819999999999993
 30
0.0
 11
-37.6739999999999995
 21
70.3070000000000022
 31
0.0
  0
LINE
  5
BD
100
AcDbEntity
100
AcDbLine
  8
0
 62
256
370
-1
  6
BYLAYER
 10
-37.6739999999999995
 20
70.3070000000000022
 30
0.0
 11
-37.6910000000000025
 21
70.3379999999999939
 31
0.0
  0
LINE
  5
BE
100
AcDbEntity
100
AcDbLine
  8
0
 62
256
370
-1
  6
BYLAYER
 10
-37.6910000000000025
 20
70.3379999999999939
 30
0.0
 11
-37.786999999999999
 21
71.6470000000000056
 31
0.0
  0
LINE
  5
BF
100
AcDbEntity
100
AcDbLine
  8
0
 62
256
370
-1
  6
BYLAYER
 10
-37.786999999999999
 20
71.6470000000000056
 30
0.0
 11
-37.8350000000000009
 21
73.0789999999999935
 31
0.0
  0
LINE
  5
C0
100
AcDbEntity
100
AcDbLine
  8
0
 62
256
370
-1
  6
BYLAYER
 10
-37.8350000000000009
 20
73.0789999999999935
 30
0.0
 11
-37.8250000000000028
 21
74.632000000000005
 31
0.0
  0
LINE
  5
C1
100
AcDbEntity
100
AcDbLine
  8
0
 62
256
370
-1
  6
BYLAYER
 10
-37.8250000000000028
 20
74.632000000000005
 30
0.0
 11
-37.7439999999999998
 21
76.304000000000002
 31
0.0
  0
LINE
  5
C2
100
AcDbEntity
100
AcDbLine
  8
0
 62
256
370
-1
  6
BYLAYER
 10
-37.7439999999999998
 20
76.304000000000002
 30
0.0
 11
-37.5859999999999985
 21
78.0919999999999987
 31
0.0
  0
LINE
  5
C3
100
AcDbEntity
100
AcDbLine
  8
0
 62
256
370
-1
  6
BYLAYER
 10
-37.5859999999999985
 20
78.0919999999999987
 30
0.0
 11
-36.213000000000001
 21
78.7379999999999995
 31
0.0
  0
LINE
  5
C4
100
AcDbEntity
100
AcDbLine
  8
0
 62
256
370
-1
  6
BYLAYER
 10
-36.213000000000001
 20
78.7379999999999995
 30
0.0
 11
-34.7349999999999994
 21
77.7210000000000036
 31
0.0
  0
LINE
  5
C5
100
AcDbEntity
100
AcDbLine
  8
0
 62
256
370
-1
  6
BYLAYER
 10
-34.7349999999999994
 20
77.7210000000000036
 30
0.0
 11
-33.3950000000000031
 21
76.7169999999999987
 31
0.0
  0
LINE
  5
C6
100
AcDbEntity
100
AcDbLine
  8
0
 62
256
370
-1
  6
BYLAYER
 10
-33.3950000000000031
 20
76.7169999999999987
 30
0.0
 11
-32.1910000000000025
 21
75.7349999999999994
 31
0.0
  0
LINE
  5
C7
100
AcDbEntity
100
AcDbLine
  8
0
 62
256
370
-1
  6
BYLAYER
 10
-32.1910000000000025
 20
75.7349999999999994
 30
0.0
 11
-31.1179999999999986
 21
74.7849999999999966
 31
0.0
  0
LINE
  5
C8
100
AcDbEntity
100
AcDbLine
  8
0
 62
256
370
-1
  6
BYLAYER
 10
-31.1179999999999986
 20
74.7849999999999966
 30
0.0
 11
-30.1720000000000006
 21
73.8769999999999953
 31
0.0
  0
LINE
  5
C9
100
AcDbEntity
100
AcDbLine
  8
0
 62
256
370
-1
  6
BYLAYER
 10
-30.1720000000000006
 20
73.8769999999999953
 30
0.0
 11
-30.1589999999999989
 21
73.8439999999999941
 31
0.0
  0
LINE
  5
CA
100
AcDbEntity
100
AcDbLine
  8
0
 62
256
370
-1
  6
BYLAYER
 10
-30.1589999999999989
 20
73.8439999999999941
 30
0.0
 11
-28.5650000000000013
 21
74.4749999999999943
 31
0.0
  0
LINE
  5
CB
100
AcDbEntity
100
AcDbLine
  8
0
 62
256
370
-1
  6
BYLAYER
 10
-28.5650000000000013
 20
74.4749999999999943
 30
0.0
 11
-28.5779999999999994
 21
74.5079999999999956
 31
0.0
  0
LINE
  5
CC
100
AcDbEntity
100
AcDbLine
  8
0
 62
256
370
-1
  6
BYLAYER
 10
-28.5779999999999994
 20
74.5079999999999956
 30
0.0
 11
-28.5090000000000003
 21
75.8179999999999978
 31
0.0
  0
LINE
  5
CD
100
AcDbEntity
100
AcDbLine
  8
0
 62
256
370
-1
  6
BYLAYER
 10
-28.5090000000000003
 20
75.8179999999999978
 30
0.0
 11
-28.3780000000000001
 21
77.2439999999999998
 31
0.0
  0
LINE
  5
CE
100
AcDbEntity
100
AcDbLine
  8
0
 62
256
370
-1
  6
BYLAYER
 10
-28.3780000000000001
 20
77.2439999999999998
 30
0.0
 11
-28.1729999999999983
 21
78.784000000000006
 31
0.0
  0
LINE
  5
CF
100
AcDbEntity
100
AcDbLine
  8
0
 62
256
370
-1
  6
BYLAYER
 10
-28.1729999999999983
 20
78.784000000000006
 30
0.0
 11
-27.8829999999999991
 21
80.4330000000000069
 31
0.0
  0
LINE
  5
D0
100
AcDbEntity
100
AcDbLine
  8
0
 62
256
370
-1
  6
BYLAYER
 10
-27.8829999999999991
 20
80.4330000000000069
 30
0.0
 11
-27.5019999999999989
 21
82.1869999999999976
 31
0.0
  0
LINE
  5
D1
100
AcDbEntity
100
AcDbLine
  8
0
 62
256
370
-1
  6
BYLAYER
 10
-27.5019999999999989
 20
82.1869999999999976
 30
0.0
 11
-26.0579999999999998
 21
82.6560000000000059
 31
0.0
  0
LINE
  5
D2
100
AcDbEntity
100
AcDbLine
  8
0
 62
256
370
-1
  6
BYLAYER
 10
-26.0579999999999998
 20
82.6560000000000059
 30
0.0
 11
-24.7199999999999989
 21
81.4609999999999985
 31
0.0
  0
LINE
  5
D3
100
AcDbEntity
100
AcDbLine
  8
0
 62
256
370
-1
  6
BYLAYER
 10
-24.7199999999999989
 20
81.4609999999999985
 30
0.0
 11
-23.5159999999999982
 21
80.296999999999997
 31
0.0
  0
LINE
  5
D4
100
AcDbEntity
100
AcDbLine
  8
0
 62
256
370
-1
  6
BYLAYER
 10
-23.5159999999999982
 20
80.296999999999997
 30
0.0
 11
-22.4450000000000003
 21
79.171999999999997
 31
0.0
  0
LINE
  5
D5
100
AcDbEntity
100
AcDbLine
  8
0
 62
256
370
-1
  6
BYLAYER
 10
-22.4450000000000003
 20
79.171999999999997
 30
0.0
 11
-21.5
 21
78.0949999999999989
 31
0.0
  0
LINE
  5
D6
100
AcDbEntity
100
AcDbLine
  8
0
 62
256
370
-1
  6
BYLAYER
 10
-21.5
 20
78.0949999999999989
 30
0.0
 11
-20.6750000000000007
 21
77.0759999999999934
 31
0.0
  0
LINE
  5
D7
100
AcDbEntity
100
AcDbLine
  8
0
 62
256
370
-1
  6
BYLAYER
 10
-20.6750000000000007
 20
77.0759999999999934
 30
0.0
 11
-20.6660000000000004
 21
77.0420000000000016
 31
0.0
  0
LINE
  5
D8
100
AcDbEntity
100
AcDbLine
  8
0
 62
256
370
-1
  6
BYLAYER
 10
-20.6660000000000004
 20
77.0420000000000016
 30
0.0
 11
-19.0060000000000002
 21
77.4689999999999941
 31
0.0
  0
LINE
  5
D9
100
AcDbEntity
100
AcDbLine
  8
0
 62
256
370
-1
  6
BYLAYER
 10
-19.0060000000000002
 20
77.4689999999999941
 30
0.0
 11
-19.0139999999999993
 21
77.5019999999999953
 31
0.0
  0
LINE
  5
DA
100
AcDbEntity
100
AcDbLine
  8
0
 62
256
370
-1
  6
BYLAYER
 10
-19.0139999999999993
 20
77.5019999999999953
 30
0.0
 11
-18.782
 21
78.7930000000000064
 31
0.0
  0
LINE
  5
DB
100
AcDbEntity
100
AcDbLine
  8
0
 62
256
370
-1
  6
BYLAYER
 10
-18.782
 20
78.7930000000000064
 30
0.0
 11
-18.472999999999999
 21
80.1919999999999931
 31
0.0
  0
LINE
  5
DC
100
AcDbEntity
100
AcDbLine
  8
0
 62
256
370
-1
  6
BYLAYER
 10
-18.472999999999999
 20
80.1919999999999931
 30
0.0
 11
-18.0760000000000005
 21
81.6940000000000026
 31
0.0
  0
LINE
  5
DD
100
AcDbEntity
100
AcDbLine
  8
0
 62
256
370
-1
  6
BYLAYER
 10
-18.0760000000000005
 20
81.6940000000000026
 30
0.0
 11
-17.5820000000000007
 21
83.2939999999999969
 31
0.0
  0
LINE
  5
DE
100
AcDbEntity
100
AcDbLine
  8
0
 62
256
370
-1
  6
BYLAYER
 10
-17.5820000000000007
 20
83.2939999999999969
 30
0.0
 11
-16.9849999999999994
 21
84.9860000000000042
 31
0.0
  0
LINE
  5
DF
100
AcDbEntity
100
AcDbLine
  8
0
 62
256
370
-1
  6
BYLAYER
 10
-16.9849999999999994
 20
84.9860000000000042
 30
0.0
 11
-15.4930000000000003
 21
85.269999999999996
 31
0.0
  0
LINE
  5
E0
100
AcDbEntity
100
AcDbLine
  8
0
 62
256
370
-1
  6
BYLAYER
 10
-15.4930000000000003
 20
85.269999999999996
 30
0.0
 11
-14.3149999999999995
 21
83.9170000000000016
 31
0.0
  0
LINE
  5
E1
100
AcDbEntity
100
AcDbLine
  8
0
 62
256
370
-1
  6
BYLAYER
 10
-14.3149999999999995
 20
83.9170000000000016
 30
0.0
 11
-13.2669999999999995
 21
82.6110000000000042
 31
0.0
  0
LINE
  5
E2
100
AcDbEntity
100
AcDbLine
  8
0
 62
256
370
-1
  6
BYLAYER
 10
-13.2669999999999995
 20
82.6110000000000042
 30
0.0
 11
-12.3450000000000006
 21
81.3610000000000042
 31
0.0
  0
LINE
  5
E3
100
AcDbEntity
100
AcDbLine
  8
0
 62
256
370
-1
  6
BYLAYER
 10
-12.3450000000000006
 20
81.3610000000000042
 30
0.0
 11
-11.5429999999999993
 21
80.1740000000000066
 31
0.0
  0
LINE
  5
E4
100
AcDbEntity
100
AcDbLine
  8
0
 62
256
370
-1
  6
BYLAYER
 10
-11.5429999999999993
 20
80.1740000000000066
 30
0.0
 11
-10.8510000000000009
 21
79.0589999999999975
 31
0.0
  0
LINE
  5
E5
100
AcDbEntity
100
AcDbLine
  8
0
 62
256
370
-1
  6
BYLAYER
 10
-10.8510000000000009
 20
79.0589999999999975
 30
0.0
 11
-10.8460000000000001
 21
79.0250000000000057
 31
0.0
  0
LINE
  5
E6
100
AcDbEntity
100
AcDbLine
  8
0
 62
256
370
-1
  6
BYLAYER
 10
-10.8460000000000001
 20
79.0250000000000057
 30
0.0
 11
-9.1470000000000002
 21
79.2390000000000043
 31
0.0
  0
LINE
  5
E7
100
AcDbEntity
100
AcDbLine
  8
0
 62
256
370
-1
  6
BYLAYER
 10
-9.1470000000000002
 20
79.2390000000000043
 30
0.0
 11
-9.1509999999999998
 21
79.2740000000000009
 31
0.0
  0
LINE
  5
E8
100
AcDbEntity
100
AcDbLine
  8
0
 62
256
370
-1
  6
BYLAYER
 10
-9.1509999999999998
 20
79.2740000000000009
 30
0.0
 11
-8.7590000000000003
 21
80.5259999999999962
 31
0.0
  0
LINE
  5
E9
100
AcDbEntity
100
AcDbLine
  8
0
 62
256
370
-1
  6
BYLAYER
 10
-8.7590000000000003
 20
80.5259999999999962
 30
0.0
 11
-8.2759999999999998
 21
81.875
 31
0.0
  0
LINE
  5
EA
100
AcDbEntity
100
AcDbLine
  8
0
 62
256
370
-1
  6
BYLAYER
 10
-8.2759999999999998
 20
81.875
 30
0.0
 11
-7.6950000000000003
 21
83.3149999999999977
 31
0.0
  0
LINE
  5
EB
100
AcDbEntity
100
AcDbLine
  8
0
 62
256
370
-1
  6
BYLAYER
 10
-7.6950000000000003
 20
83.3149999999999977
 30
0.0
 11
-7.0039999999999996
 21
84.840999999999994
 31
0.0
  0
LINE
  5
EC
100
AcDbEntity
100
AcDbLine
  8
0
 62
256
370
-1
  6
BYLAYER
 10
-7.0039999999999996
 20
84.840999999999994
 30
0.0
 11
-6.1989999999999998
 21
86.4440000000000026
 31
0.0
  0
LINE
  5
ED
100
AcDbEntity
100
AcDbLine
  8
0
 62
256
370
-1
  6
BYLAYER
 10
-6.1989999999999998
 20
86.4440000000000026
 30
0.0
 11
-4.6840000000000002
 21
86.5400000000000063
 31
0.0
  0
LINE
  5
EE
100
AcDbEntity
100
AcDbLine
  8
0
 62
256
370
-1
  6
BYLAYER
 10
-4.6840000000000002
 20
86.5400000000000063
 30
0.0
 11
-3.6850000000000001
 21
85.0490000000000066
 31
0.0
  0
LINE
  5
EF
100
AcDbEntity
100
AcDbLine
  8
0
 62
256
370
-1
  6
BYLAYER
 10
-3.6850000000000001
 20
85.0490000000000066
 30
0.0
 11
-2.8079999999999998
 21
83.6230000000000047
 31
0.0
  0
LINE
  5
F0
100
AcDbEntity
100
AcDbLine
  8
0
 62
256
370
-1
  6
BYLAYER
 10
-2.8079999999999998
 20
83.6230000000000047
 30
0.0
 11
-2.0510000000000002
 21
82.2669999999999959
 31
0.0
  0
LINE
  5
F1
100
AcDbEntity
100
AcDbLine
  8
0
 62
256
370
-1
  6
BYLAYER
 10
-2.0510000000000002
 20
82.2669999999999959
 30
0.0
 11
-1.403
 21
80.9890000000000043
 31
0.0
  0
LINE
  5
F2
100
AcDbEntity
100
AcDbLine
  8
0
 62
256
370
-1
  6
BYLAYER
 10
-1.403
 20
80.9890000000000043
 30
0.0
 11
-0.857
 21
79.7960000000000065
 31
0.0
  0
LINE
  5
F3
100
AcDbEntity
100
AcDbLine
  8
0
 62
256
370
-1
  6
BYLAYER
 10
-0.857
 20
79.7960000000000065
 30
0.0
 11
-0.857
 21
79.7609999999999957
 31
0.0
  0
LINE
  5
F4
100
AcDbEntity
100
AcDbLine
  8
0
 62
256
370
-1
  6
BYLAYER
 10
-0.857
 20
79.7609999999999957
 30
0.0
 11
0.857
 21
79.7609999999999957
 31
0.0
  0
LINE
  5
F5
100
AcDbEntity
100
AcDbLine
  8
0
 62
256
370
-1
  6
BYLAYER
 10
0.857
 20
79.7609999999999957
 30
0.0
 11
0.857
 21
79.7960000000000065
 31
0.0
  0
LINE
  5
F6
100
AcDbEntity
100
AcDbLine
  8
0
 62
256
370
-1
  6
BYLAYER
 10
0.857
 20
79.7960000000000065
 30
0.0
 11
1.403
 21
80.9890000000000043
 31
0.0
  0
LINE
  5
F7
100
AcDbEntity
100
AcDbLine
  8
0
 62
256
370
-1
  6
BYLAYER
 10
1.403
 20
80.9890000000000043
 30
0.0
 11
2.0510000000000002
 21
82.2669999999999959
 31
0.0
  0
LINE
  5
F8
100
AcDbEntity
100
AcDbLine
  8
0
 62
256
370
-1
  6
BYLAYER
 10
2.0510000000000002
 20
82.2669999999999959
 30
0.0
 11
2.8079999999999998
 21
83.6230000000000047
 31
0.0
  0
LINE
  5
F9
100
AcDbEntity
100
AcDbLine
  8
0
 62
256
370
-1
  6
BYLAYER
 10
2.8079999999999998
 20
83.6230000000000047
 30
0.0
 11
3.6850000000000001
 21
85.0490000000000066
 31
0.0
  0
LINE
  5
FA
100
AcDbEntity
100
AcDbLine
  8
0
 62
256
370
-1
  6
BYLAYER
 10
3.6850000000000001
 20
85.0490000000000066
 30
0.0
 11
4.6840000000000002
 21
86.5400000000000063
 31
0.0
  0
LINE
  5
FB
100
AcDbEntity
100
AcDbLine
  8
0
 62
256
370
-1
  6
BYLAYER
 10
4.6840000000000002
 20
86.5400000000000063
 30
0.0
 11
6.1989999999999998
 21
86.4440000000000026
 31
0.0
  0
LINE
  5
FC
100
AcDbEntity
100
AcDbLine
  8
0
 62
256
370
-1
  6
BYLAYER
 10
6.1989999999999998
 20
86.4440000000000026
 30
0.0
 11
7.0039999999999996
 21
84.840999999999994
 31
0.0
  0
LINE
  5
FD
100
AcDbEntity
100
AcDbLine
  8
0
 62
256
370
-1
  6
BYLAYER
 10
7.0039999999999996
 20
84.840999999999994
 30
0.0
 11
7.6950000000000003
 21
83.3149999999999977
 31
0.0
  0
LINE
  5
FE
100
AcDbEntity
100
AcDbLine
  8
0
 62
256
370
-1
  6
BYLAYER
 10
7.6950000000000003
 20
83.3149999999999977
 30
0.0
 11
8.2759999999999998
 21
81.875
 31
0.0
  0
LINE
  5
FF
100
AcDbEntity
100
AcDbLine
  8
0
 62
256
370
-1
  6
BYLAYER
 10
8.2759999999999998
 20
81.875
 30
0.0
 11
8.7590000000000003
 21
80.5259999999999962
 31
0.0
  0
LINE
  5
100
100
AcDbEntity
100
AcDbLine
  8
0
 62
256
370
-1
  6
BYLAYER
 10
8.7590000000000003
 20
80.5259999999999962
 30
0.0
 11
9.1509999999999998
 21
79.2740000000000009
 31
0.0
  0
LINE
  5
101
100
AcDbEntity
100
AcDbLine
  8
0
 62
256
370
-1
  6
BYLAYER
 10
9.1509999999999998
 20
79.2740000000000009
 30
0.0
 11
9.1470000000000002
 21
79.2390000000000043
 31
0.0
  0
LINE
  5
102
100
AcDbEntity
100
AcDbLine
  8
0
 62
256
370
-1
  6
BYLAYER
 10
9.1470000000000002
 20
79.2390000000000043
 30
0.0
 11
10.8460000000000001
 21
79.0250000000000057
 31
0.0
  0
LINE
  5
103
100
AcDbEntity
100
AcDbLine
  8
0
 62
256
370
-1
  6
BYLAYER
 10
10.8460000000000001
 20
79.0250000000000057
 30
0.0
 11
10.8510000000000009
 21
79.0589999999999975
 31
0.0
  0
LINE
  5
104
100
AcDbEntity
100
AcDbLine
  8
0
 62
256
370
-1
  6
BYLAYER
 10
10.8510000000000009
 20
79.0589999999999975
 30
0.0
 11
11.5429999999999993
 21
80.1740000000000066
 31
0.0
  0
LINE
  5
105
100
AcDbEntity
100
AcDbLine
  8
0
 62
256
370
-1
  6
BYLAYER
 10
11.5429999999999993
 20
80.1740000000000066
 30
0.0
 11
12.3450000000000006
 21
81.3610000000000042
 31
0.0
  0
LINE
  5
106
100
AcDbEntity
100
AcDbLine
  8
0
 62
256
370
-1
  6
BYLAYER
 10
12.3450000000000006
 20
81.3610000000000042
 30
0.0
 11
13.2669999999999995
 21
82.6110000000000042
 31
0.0
  0
LINE
  5
107
100
AcDbEntity
100
AcDbLine
  8
0
 62
256
370
-1
  6
BYLAYER
 10
13.2669999999999995
 20
82.6110000000000042
 30
0.0
 11
14.3149999999999995
 21
83.9170000000000016
 31
0.0
  0
LINE
  5
108
100
AcDbEntity
100
AcDbLine
  8
0
 62
256
370
-1
  6
BYLAYER
 10
14.3149999999999995
 20
83.9170000000000016
 30
0.0
 11
15.4930000000000003
 21
85.269999999999996
 31
0.0
  0
LINE
  5
109
100
AcDbEntity
100
AcDbLine
  8
0
 62
256
370
-1
  6
BYLAYER
 10
15.4930000000000003
 20
85.269999999999996
 30
0.0
 11
16.9849999999999994
 21
84.9860000000000042
 31
0.0
  0
LINE
  5
10A
100
AcDbEntity
100
AcDbLine
  8
0
 62
256
370
-1
  6
BYLAYER
 10
16.9849999999999994
 20
84.9860000000000042
 30
0.0
 11
17.5820000000000007
 21
83.2939999999999969
 31
0.0
  0
LINE
  5
10B
100
AcDbEntity
100
AcDbLine
  8
0
 62
256
370
-1
  6
BYLAYER
 10
17.5820000000000007
 20
83.2939999999999969
 30
0.0
 11
18.0760000000000005
 21
81.6940000000000026
 31
0.0
  0
LINE
  5
10C
100
AcDbEntity
100
AcDbLine
  8
0
 62
256
370
-1
  6
BYLAYER
 10
18.0760000000000005
 20
81.6940000000000026
 30
0.0
 11
18.472999999999999
 21
80.1919999999999931
 31
0.0
  0
LINE
  5
10D
100
AcDbEntity
100
AcDbLine
  8
0
 62
256
370
-1
  6
BYLAYER
 10
18.472999999999999
 20
80.1919999999999931
 30
0.0
 11
18.782
 21
78.7930000000000064
 31
0.0
  0
LINE
  5
10E
100
AcDbEntity
100
AcDbLine
  8
0
 62
256
370
-1
  6
BYLAYER
 10
18.782
 20
78.7930000000000064
 30
0.0
 11
19.0139999999999993
 21
77.5019999999999953
 31
0.0
  0
LINE
  5
10F
100
AcDbEntity
100
AcDbLine
  8
0
 62
256
370
-1
  6
BYLAYER
 10
19.0139999999999993
 20
77.5019999999999953
 30
0.0
 11
19.0060000000000002
 21
77.4680000000000035
 31
0.0
  0
LINE
  5
110
100
AcDbEntity
100
AcDbLine
  8
0
 62
256
370
-1
  6
BYLAYER
 10
19.0060000000000002
 20
77.4680000000000035
 30
0.0
 11
20.6660000000000004
 21
77.0409999999999968
 31
0.0
  0
LINE
  5
111
100
AcDbEntity
100
AcDbLine
  8
0
 62
256
370
-1
  6
BYLAYER
 10
20.6660000000000004
 20
77.0409999999999968
 30
0.0
 11
20.6750000000000007
 21
77.0759999999999934
 31
0.0
  0
LINE
  5
112
100
AcDbEntity
100
AcDbLine
  8
0
 62
256
370
-1
  6
BYLAYER
 10
20.6750000000000007
 20
77.0759999999999934
 30
0.0
 11
21.5
 21
78.0949999999999989
 31
0.0
  0
LINE
  5
113
100
AcDbEntity
100
AcDbLine
  8
0
 62
256
370
-1
  6
BYLAYER
 10
21.5
 20
78.0949999999999989
 30
0.0
 11
22.4450000000000003
 21
79.171999999999997
 31
0.0
  0
LINE
  5
114
100
AcDbEntity
100
AcDbLine
  8
0
 62
256
370
-1
  6
BYLAYER
 10
22.4450000000000003
 20
79.171999999999997
 30
0.0
 11
23.5159999999999982
 21
80.296999999999997
 31
0.0
  0
LINE
  5
115
100
AcDbEntity
100
AcDbLine
  8
0
 62
256
370
-1
  6
BYLAYER
 10
23.5159999999999982
 20
80.296999999999997
 30
0.0
 11
24.7199999999999989
 21
81.4609999999999985
 31
0.0
  0
LINE
  5
116
100
AcDbEntity
100
AcDbLine
  8
0
 62
256
370
-1
  6
BYLAYER
 10
24.7199999999999989
 20
81.4609999999999985
 30
0.0
 11
26.0579999999999998
 21
82.6560000000000059
 31
0.0
  0
LINE
  5
117
100
AcDbEntity
100
AcDbLine
  8
0
 62
256
370
-1
  6
BYLAYER
 10
26.0579999999999998
 20
82.6560000000000059
 30
0.0
 11
27.5019999999999989
 21
82.1869999999999976
 31
0.0
  0
LINE
  5
118
100
AcDbEntity
100
AcDbLine
  8
0
 62
256
370
-1
  6
BYLAYER
 10
27.5019999999999989
 20
82.1869999999999976
 30
0.0
 11
27.8829999999999991
 21
80.4330000000000069
 31
0.0
  0
LINE
  5
119
100
AcDbEntity
100
AcDbLine
  8
0
 62
256
370
-1
  6
BYLAYER
 10
27.8829999999999991
 20
80.4330000000000069
 30
0.0
 11
28.1729999999999983
 21
78.784000000000006
 31
0.0
  0
LINE
  5
11A
100
AcDbEntity
100
AcDbLine
  8
0
 62
256
370
-1
  6
BYLAYER
 10
28.1729999999999983
 20
78.784000000000006
 30
0.0
 11
28.3780000000000001
 21
77.2439999999999998
 31
0.0
  0
LINE
  5
11B
100
AcDbEntity
100
AcDbLine
  8
0
 62
256
370
-1
  6
BYLAYER
 10
28.3780000000000001
 20
77.2439999999999998
 30
0.0
 11
28.5090000000000003
 21
75.8179999999999978
 31
0.0
  0
LINE
  5
11C
100
AcDbEntity
100
AcDbLine
  8
0
 62
256
370
-1
  6
BYLAYER
 10
28.5090000000000003
 20
75.8179999999999978
 30
0.0
 11
28.5779999999999994
 21
74.5079999999999956
 31
0.0
  0
LINE
  5
11D
100
AcDbEntity
100
AcDbLine
  8
0
 62
256
370
-1
  6
BYLAYER
 10
28.5779999999999994
 20
74.5079999999999956
 30
0.0
 11
28.5650000000000013
 21
74.4749999999999943
 31
0.0
  0
LINE
  5
11E
100
AcDbEntity
100
AcDbLine
  8
0
 62
256
370
-1
  6
BYLAYER
 10
28.5650000000000013
 20
74.4749999999999943
 30
0.0
 11
30.1589999999999989
 21
73.8439999999999941
 31
0.0
  0
LINE
  5
11F
100
AcDbEntity
100
AcDbLine
  8
0
 62
256
370
-1
  6
BYLAYER
 10
30.1589999999999989
 20
73.8439999999999941
 30
0.0
 11
30.1720000000000006
 21
73.8769999999999953
 31
0.0
  0
LINE
  5
120
100
AcDbEntity
100
AcDbLine
  8
0
 62
256
370
-1
  6
BYLAYER
 10
30.1720000000000006
 20
73.8769999999999953
 30
0.0
 11
31.1179999999999986
 21
74.7849999999999966
 31
0.0
  0
LINE
  5
121
100
AcDbEntity
100
AcDbLine
  8
0
 62
256
370
-1
  6
BYLAYER
 10
31.1179999999999986
 20
74.7849999999999966
 30
0.0
 11
32.1910000000000025
 21
75.7349999999999994
 31
0.0
  0
LINE
  5
122
100
AcDbEntity
100
AcDbLine
  8
0
 62
256
370
-1
  6
BYLAYER
 10
32.1910000000000025
 20
75.7349999999999994
 30
0.0
 11
33.3950000000000031
 21
76.7169999999999987
 31
0.0
  0
LINE
  5
123
100
AcDbEntity
100
AcDbLine
  8
0
 62
256
370
-1
  6
BYLAYER
 10
33.3950000000000031
 20
76.7169999999999987
 30
0.0
 11
34.7349999999999994
 21
77.7210000000000036
 31
0.0
  0
LINE
  5
124
100
AcDbEntity
100
AcDbLine
  8
0
 62
256
370
-1
  6
BYLAYER
 10
34.7349999999999994
 20
77.7210000000000036
 30
0.0
 11
36.213000000000001
 21
78.7379999999999995
 31
0.0
  0
LINE
  5
125
100
AcDbEntity
100
AcDbLine
  8
0
 62
256
370
-1
  6
BYLAYER
 10
36.213000000000001
 20
78.7379999999999995
 30
0.0
 11
37.5859999999999985
 21
78.0919999999999987
 31
0.0
  0
LINE
  5
126
100
AcDbEntity
100
AcDbLine
  8
0
 62
256
370
-1
  6
BYLAYER
 10
37.5859999999999985
 20
78.0919999999999987
 30
0.0
 11
37.7439999999999998
 21
76.304000000000002
 31
0.0
  0
LINE
  5
127
100
AcDbEntity
100
AcDbLine
  8
0
 62
256
370
-1
  6
BYLAYER
 10
37.7439999999999998
 20
76.304000000000002
 30
0.0
 11
37.8250000000000028
 21
74.632000000000005
 31
0.0
  0
LINE
  5
128
100
AcDbEntity
100
AcDbLine
  8
0
 62
256
370
-1
  6
BYLAYER
 10
37.8250000000000028
 20
74.632000000000005
 30
0.0
 11
37.8350000000000009
 21
73.0789999999999935
 31
0.0
  0
LINE
  5
129
100
AcDbEntity
100
AcDbLine
  8
0
 62
256
370
-1
  6
BYLAYER
 10
37.8350000000000009
 20
73.0789999999999935
 30
0.0
 11
37.786999999999999
 21
71.6470000000000056
 31
0.0
  0
LINE
  5
12A
100
AcDbEntity
100
AcDbLine
  8
0
 62
256
370
-1
  6
BYLAYER
 10
37.786999999999999
 20
71.6470000000000056
 30
0.0
 11
37.6910000000000025
 21
70.3379999999999939
 31
0.0
  0
LINE
  5
12B
100
AcDbEntity
100
AcDbLine
  8
0
 62
256
370
-1
  6
BYLAYER
 10
37.6910000000000025
 20
70.3379999999999939
 30
0.0
 11
37.6749999999999972
 21
70.3070000000000022
 31
0.0
  0
LINE
  5
12C
100
AcDbEntity
100
AcDbLine
  8
0
 62
256
370
-1
  6
BYLAYER
 10
37.6749999999999972
 20
70.3070000000000022
 30
0.0
 11
39.1760000000000019
 21
69.4819999999999993
 31
0.0
  0
LINE
  5
12D
100
AcDbEntity
100
AcDbLine
  8
0
 62
256
370
-1
  6
BYLAYER
 10
39.1760000000000019
 20
69.4819999999999993
 30
0.0
 11
39.1929999999999978
 21
69.5130000000000052
 31
0.0
  0
LINE
  5
12E
100
AcDbEntity
100
AcDbLine
  8
0
 62
256
370
-1
  6
BYLAYER
 10
39.1929999999999978
 20
69.5130000000000052
 30
0.0
 11
40.2460000000000022
 21
70.2950000000000017
 31
0.0
  0
LINE
  5
12F
100
AcDbEntity
100
AcDbLine
  8
0
 62
256
370
-1
  6
BYLAYER
 10
40.2460000000000022
 20
70.2950000000000017
 30
0.0
 11
41.429000000000002
 21
71.1029999999999944
 31
0.0
  0
LINE
  5
130
100
AcDbEntity
100
AcDbLine
  8
0
 62
256
370
-1
  6
BYLAYER
 10
41.429000000000002
 20
71.1029999999999944
 30
0.0
 11
42.7460000000000022
 21
71.9260000000000019
 31
0.0
  0
LINE
  5
131
100
AcDbEntity
100
AcDbLine
  8
0
 62
256
370
-1
  6
BYLAYER
 10
42.7460000000000022
 20
71.9260000000000019
 30
0.0
 11
44.2019999999999982
 21
72.7540000000000049
 31
0.0
  0
LINE
  5
132
100
AcDbEntity
100
AcDbLine
  8
0
 62
256
370
-1
  6
BYLAYER
 10
44.2019999999999982
 20
72.7540000000000049
 30
0.0
 11
45.7959999999999994
 21
73.5789999999999935
 31
0.0
  0
LINE
  5
133
100
AcDbEntity
100
AcDbLine
  8
0
 62
256
370
-1
  6
BYLAYER
 10
45.7959999999999994
 20
73.5789999999999935
 30
0.0
 11
47.0769999999999982
 21
72.7650000000000006
 31
0.0
  0
LINE
  5
134
100
AcDbEntity
100
AcDbLine
  8
0
 62
256
370
-1
  6
BYLAYER
 10
47.0769999999999982
 20
72.7650000000000006
 30
0.0
 11
47.009999999999998
 21
70.9719999999999942
 31
0.0
  0
LINE
  5
135
100
AcDbEntity
100
AcDbLine
  8
0
 62
256
370
-1
  6
BYLAYER
 10
47.009999999999998
 20
70.9719999999999942
 30
0.0
 11
46.8800000000000026
 21
69.3029999999999973
 31
0.0
  0
LINE
  5
136
100
AcDbEntity
100
AcDbLine
  8
0
 62
256
370
-1
  6
BYLAYER
 10
46.8800000000000026
 20
69.3029999999999973
 30
0.0
 11
46.695999999999998
 21
67.7600000000000051
 31
0.0
  0
LINE
  5
137
100
AcDbEntity
100
AcDbLine
  8
0
 62
256
370
-1
  6
BYLAYER
 10
46.695999999999998
 20
67.7600000000000051
 30
0.0
 11
46.4690000000000012
 21
66.3460000000000036
 31
0.0
  0
LINE
  5
138
100
AcDbEntity
100
AcDbLine
  8
0
 62
256
370
-1
  6
BYLAYER
 10
46.4690000000000012
 20
66.3460000000000036
 30
0.0
 11
46.2090000000000032
 21
65.0600000000000023
 31
0.0
  0
LINE
  5
139
100
AcDbEntity
100
AcDbLine
  8
0
 62
256
370
-1
  6
BYLAYER
 10
46.2090000000000032
 20
65.0600000000000023
 30
0.0
 11
46.1890000000000001
 21
65.0310000000000059
 31
0.0
  0
LINE
  5
13A
100
AcDbEntity
100
AcDbLine
  8
0
 62
256
370
-1
  6
BYLAYER
 10
46.1890000000000001
 20
65.0310000000000059
 30
0.0
 11
47.5750000000000028
 21
64.0240000000000009
 31
0.0
  0
LINE
  5
13B
100
AcDbEntity
100
AcDbLine
  8
0
 62
256
370
-1
  6
BYLAYER
 10
47.5750000000000028
 20
64.0240000000000009
 30
0.0
 11
47.5959999999999965
 21
64.0520000000000067
 31
0.0
  0
LINE
  5
13C
100
AcDbEntity
100
AcDbLine
  8
0
 62
256
370
-1
  6
BYLAYER
 10
47.5959999999999965
 20
64.0520000000000067
 30
0.0
 11
48.7389999999999972
 21
64.6970000000000027
 31
0.0
  0
LINE
  5
13D
100
AcDbEntity
100
AcDbLine
  8
0
 62
256
370
-1
  6
BYLAYER
 10
48.7389999999999972
 20
64.6970000000000027
 30
0.0
 11
50.0140000000000029
 21
65.3499999999999943
 31
0.0
  0
LINE
  5
13E
100
AcDbEntity
100
AcDbLine
  8
0
 62
256
370
-1
  6
BYLAYER
 10
50.0140000000000029
 20
65.3499999999999943
 30
0.0
 11
51.4239999999999995
 21
66.0019999999999953
 31
0.0
  0
LINE
  5
13F
100
AcDbEntity
100
AcDbLine
  8
0
 62
256
370
-1
  6
BYLAYER
 10
51.4239999999999995
 20
66.0019999999999953
 30
0.0
 11
52.9720000000000013
 21
66.6410000000000053
 31
0.0
  0
LINE
  5
140
100
AcDbEntity
100
AcDbLine
  8
0
 62
256
370
-1
  6
BYLAYER
 10
52.9720000000000013
 20
66.6410000000000053
 30
0.0
 11
54.6559999999999988
 21
67.2590000000000003
 31
0.0
  0
LINE
  5
141
100
AcDbEntity
100
AcDbLine
  8
0
 62
256
370
-1
  6
BYLAYER
 10
54.6559999999999988
 20
67.2590000000000003
 30
0.0
 11
55.8260000000000005
 21
66.2909999999999968
 31
0.0
  0
LINE
  5
142
100
AcDbEntity
100
AcDbLine
  8
0
 62
256
370
-1
  6
BYLAYER
 10
55.8260000000000005
 20
66.2909999999999968
 30
0.0
 11
55.5339999999999989
 21
64.5210000000000008
 31
0.0
  0
LINE
  5
143
100
AcDbEntity
100
AcDbLine
  8
0
 62
256
370
-1
  6
BYLAYER
 10
55.5339999999999989
 20
64.5210000000000008
 30
0.0
 11
55.1970000000000027
 21
62.8810000000000002
 31
0.0
  0
LINE
  5
144
100
AcDbEntity
100
AcDbLine
  8
0
 62
256
370
-1
  6
BYLAYER
 10
55.1970000000000027
 20
62.8810000000000002
 30
0.0
 11
54.820999999999998
 21
61.3729999999999976
 31
0.0
  0
LINE
  5
145
100
AcDbEntity
100
AcDbLine
  8
0
 62
256
370
-1
  6
BYLAYER
 10
54.820999999999998
 20
61.3729999999999976
 30
0.0
 11
54.4179999999999993
 21
59.9990000000000023
 31
0.0
  0
LINE
  5
146
100
AcDbEntity
100
AcDbLine
  8
0
 62
256
370
-1
  6
BYLAYER
 10
54.4179999999999993
 20
59.9990000000000023
 30
0.0
 11
53.9990000000000023
 21
58.7550000000000026
 31
0.0
  0
LINE
  5
147
100
AcDbEntity
100
AcDbLine
  8
0
 62
256
370
-1
  6
BYLAYER
 10
53.9990000000000023
 20
58.7550000000000026
 30
0.0
 11
53.9759999999999991
 21
58.7289999999999992
 31
0.0
  0
LINE
  5
148
100
AcDbEntity
100
AcDbLine
  8
0
 62
256
370
-1
  6
BYLAYER
 10
53.9759999999999991
 20
58.7289999999999992
 30
0.0
 11
55.2239999999999966
 21
57.5559999999999974
 31
0.0
  0
LINE
  5
149
100
AcDbEntity
100
AcDbLine
  8
0
 62
256
370
-1
  6
BYLAYER
 10
55.2239999999999966
 20
57.5559999999999974
 30
0.0
 11
55.2490000000000023
 21
57.5820000000000007
 31
0.0
  0
LINE
  5
14A
100
AcDbEntity
100
AcDbLine
  8
0
 62
256
370
-1
  6
BYLAYER
 10
55.2490000000000023
 20
57.5820000000000007
 30
0.0
 11
56.463000000000001
 21
58.078000000000003
 31
0.0
  0
LINE
  5
14B
100
AcDbEntity
100
AcDbLine
  8
0
 62
256
370
-1
  6
BYLAYER
 10
56.463000000000001
 20
58.078000000000003
 30
0.0
 11
57.8100000000000023
 21
58.5660000000000025
 31
0.0
  0
LINE
  5
14C
100
AcDbEntity
100
AcDbLine
  8
0
 62
256
370
-1
  6
BYLAYER
 10
57.8100000000000023
 20
58.5660000000000025
 30
0.0
 11
59.2909999999999968
 21
59.0360000000000014
 31
0.0
  0
LINE
  5
14D
100
AcDbEntity
100
AcDbLine
  8
0
 62
256
370
-1
  6
BYLAYER
 10
59.2909999999999968
 20
59.0360000000000014
 30
0.0
 11
60.9059999999999988
 21
59.4759999999999991
 31
0.0
  0
LINE
  5
14E
100
AcDbEntity
100
AcDbLine
  8
0
 62
256
370
-1
  6
BYLAYER
 10
60.9059999999999988
 20
59.4759999999999991
 30
0.0
 11
62.6550000000000011
 21
59.8780000000000001
 31
0.0
  0
LINE
  5
14F
100
AcDbEntity
100
AcDbLine
  8
0
 62
256
370
-1
  6
BYLAYER
 10
62.6550000000000011
 20
59.8780000000000001
 30
0.0
 11
63.6940000000000026
 21
58.7719999999999985
 31
0.0
  0
LINE
  5
150
100
AcDbEntity
100
AcDbLine
  8
0
 62
256
370
-1
  6
BYLAYER
 10
63.6940000000000026
 20
58.7719999999999985
 30
0.0
 11
63.1829999999999998
 21
57.0519999999999996
 31
0.0
  0
LINE
  5
151
100
AcDbEntity
100
AcDbLine
  8
0
 62
256
370
-1
  6
BYLAYER
 10
63.1829999999999998
 20
57.0519999999999996
 30
0.0
 11
62.642000000000003
 21
55.4669999999999987
 31
0.0
  0
LINE
  5
152
100
AcDbEntity
100
AcDbLine
  8
0
 62
256
370
-1
  6
BYLAYER
 10
62.642000000000003
 20
55.4669999999999987
 30
0.0
 11
62.0799999999999983
 21
54.0189999999999984
 31
0.0
  0
LINE
  5
153
100
AcDbEntity
100
AcDbLine
  8
0
 62
256
370
-1
  6
BYLAYER
 10
62.0799999999999983
 20
54.0189999999999984
 30
0.0
 11
61.5090000000000003
 21
52.7049999999999983
 31
0.0
  0
LINE
  5
154
100
AcDbEntity
100
AcDbLine
  8
0
 62
256
370
-1
  6
BYLAYER
 10
61.5090000000000003
 20
52.7049999999999983
 30
0.0
 11
60.9369999999999976
 21
51.5240000000000009
 31
0.0
  0
LINE
  5
155
100
AcDbEntity
100
AcDbLine
  8
0
 62
256
370
-1
  6
BYLAYER
 10
60.9369999999999976
 20
51.5240000000000009
 30
0.0
 11
60.9099999999999966
 21
51.5020000000000024
 31
0.0
  0
LINE
  5
156
100
AcDbEntity
100
AcDbLine
  8
0
 62
256
370
-1
  6
BYLAYER
 10
60.9099999999999966
 20
51.5020000000000024
 30
0.0
 11
62.0030000000000001
 21
50.1809999999999974
 31
0.0
  0
LINE
  5
157
100
AcDbEntity
100
AcDbLine
  8
0
 62
256
370
-1
  6
BYLAYER
 10
62.0030000000000001
 20
50.1809999999999974
 30
0.0
 11
62.0300000000000011
 21
50.203000000000003
 31
0.0
  0
LINE
  5
158
100
AcDbEntity
100
AcDbLine
  8
0
 62
256
370
-1
  6
BYLAYER
 10
62.0300000000000011
 20
50.203000000000003
 30
0.0
 11
63.296999999999997
 21
50.5429999999999993
 31
0.0
  0
LINE
  5
159
100
AcDbEntity
100
AcDbLine
  8
0
 62
256
370
-1
  6
BYLAYER
 10
63.296999999999997
 20
50.5429999999999993
 30
0.0
 11
64.6949999999999932
 21
50.8590000000000018
 31
0.0
  0
LINE
  5
15A
100
AcDbEntity
100
AcDbLine
  8
0
 62
256
370
-1
  6
BYLAYER
 10
64.6949999999999932
 20
50.8590000000000018
 30
0.0
 11
66.2219999999999942
 21
51.1390000000000029
 31
0.0
  0
LINE
  5
15B
100
AcDbEntity
100
AcDbLine
  8
0
 62
256
370
-1
  6
BYLAYER
 10
66.2219999999999942
 20
51.1390000000000029
 30
0.0
 11
67.8799999999999955
 21
51.3740000000000023
 31
0.0
  0
LINE
  5
15C
100
AcDbEntity
100
AcDbLine
  8
0
 62
256
370
-1
  6
BYLAYER
 10
67.8799999999999955
 20
51.3740000000000023
 30
0.0
 11
69.6659999999999968
 21
51.5529999999999973
 31
0.0
  0
LINE
  5
15D
100
AcDbEntity
100
AcDbLine
  8
0
 62
256
370
-1
  6
BYLAYER
 10
69.6659999999999968
 20
51.5529999999999973
 30
0.0
 11
70.5580000000000069
 21
50.3250000000000028
 31
0.0
  0
LINE
  5
15E
100
AcDbEntity
100
AcDbLine
  8
0
 62
256
370
-1
  6
BYLAYER
 10
70.5580000000000069
 20
50.3250000000000028
 30
0.0
 11
69.8349999999999937
 21
48.6829999999999998
 31
0.0
  0
LINE
  5
15F
100
AcDbEntity
100
AcDbLine
  8
0
 62
256
370
-1
  6
BYLAYER
 10
69.8349999999999937
 20
48.6829999999999998
 30
0.0
 11
69.0999999999999943
 21
47.1779999999999973
 31
0.0
  0
LINE
  5
160
100
AcDbEntity
100
AcDbLine
  8
0
 62
256
370
-1
  6
BYLAYER
 10
69.0999999999999943
 20
47.1779999999999973
 30
0.0
 11
68.3610000000000042
 21
45.8119999999999976
 31
0.0
  0
LINE
  5
161
100
AcDbEntity
100
AcDbLine
  8
0
 62
256
370
-1
  6
BYLAYER
 10
68.3610000000000042
 20
45.8119999999999976
 30
0.0
 11
67.6290000000000049
 21
44.5810000000000031
 31
0.0
  0
LINE
  5
162
100
AcDbEntity
100
AcDbLine
  8
0
 62
256
370
-1
  6
BYLAYER
 10
67.6290000000000049
 20
44.5810000000000031
 30
0.0
 11
66.9140000000000015
 21
43.4799999999999969
 31
0.0
  0
LINE
  5
163
100
AcDbEntity
100
AcDbLine
  8
0
 62
256
370
-1
  6
BYLAYER
 10
66.9140000000000015
 20
43.4799999999999969
 30
0.0
 11
66.8850000000000051
 21
43.4609999999999985
 31
0.0
  0
LINE
  5
164
100
AcDbEntity
100
AcDbLine
  8
0
 62
256
370
-1
  6
BYLAYER
 10
66.8850000000000051
 20
43.4609999999999985
 30
0.0
 11
67.8029999999999973
 21
42.0150000000000006
 31
0.0
  0
LINE
  5
165
100
AcDbEntity
100
AcDbLine
  8
0
 62
256
370
-1
  6
BYLAYER
 10
67.8029999999999973
 20
42.0150000000000006
 30
0.0
 11
67.8329999999999984
 21
42.0330000000000013
 31
0.0
  0
LINE
  5
166
100
AcDbEntity
100
AcDbLine
  8
0
 62
256
370
-1
  6
BYLAYER
 10
67.8329999999999984
 20
42.0330000000000013
 30
0.0
 11
69.1329999999999956
 21
42.2109999999999985
 31
0.0
  0
LINE
  5
167
100
AcDbEntity
100
AcDbLine
  8
0
 62
256
370
-1
  6
BYLAYER
 10
69.1329999999999956
 20
42.2109999999999985
 30
0.0
 11
70.5589999999999975
 21
42.3489999999999966
 31
0.0
  0
LINE
  5
168
100
AcDbEntity
100
AcDbLine
  8
0
 62
256
370
-1
  6
BYLAYER
 10
70.5589999999999975
 20
42.3489999999999966
 30
0.0
 11
72.1099999999999994
 21
42.4359999999999999
 31
0.0
  0
LINE
  5
169
100
AcDbEntity
100
AcDbLine
  8
0
 62
256
370
-1
  6
BYLAYER
 10
72.1099999999999994
 20
42.4359999999999999
 30
0.0
 11
73.784000000000006
 21
42.4609999999999985
 31
0.0
  0
LINE
  5
16A
100
AcDbEntity
100
AcDbLine
  8
0
 62
256
370
-1
  6
BYLAYER
 10
73.784000000000006
 20
42.4609999999999985
 30
0.0
 11
75.578000000000003
 21
42.4149999999999991
 31
0.0
  0
LINE
  5
16B
100
AcDbEntity
100
AcDbLine
  8
0
 62
256
370
-1
  6
BYLAYER
 10
75.578000000000003
 20
42.4149999999999991
 30
0.0
 11
76.3089999999999975
 21
41.0850000000000009
 31
0.0
  0
LINE
  5
16C
100
AcDbEntity
100
AcDbLine
  8
0
 62
256
370
-1
  6
BYLAYER
 10
76.3089999999999975
 20
41.0850000000000009
 30
0.0
 11
75.3859999999999957
 21
39.5459999999999994
 31
0.0
  0
LINE
  5
16D
100
AcDbEntity
100
AcDbLine
  8
0
 62
256
370
-1
  6
BYLAYER
 10
75.3859999999999957
 20
39.5459999999999994
 30
0.0
 11
74.4680000000000035
 21
38.1460000000000008
 31
0.0
  0
LINE
  5
16E
100
AcDbEntity
100
AcDbLine
  8
0
 62
256
370
-1
  6
BYLAYER
 10
74.4680000000000035
 20
38.1460000000000008
 30
0.0
 11
73.563999999999993
 21
36.8830000000000027
 31
0.0
  0
LINE
  5
16F
100
AcDbEntity
100
AcDbLine
  8
0
 62
256
370
-1
  6
BYLAYER
 10
73.563999999999993
 20
36.8830000000000027
 30
0.0
 11
72.6830000000000069
 21
35.7530000000000001
 31
0.0
  0
LINE
  5
170
100
AcDbEntity
100
AcDbLine
  8
0
 62
256
370
-1
  6
BYLAYER
 10
72.6830000000000069
 20
35.7530000000000001
 30
0.0
 11
71.8359999999999985
 21
34.7509999999999977
 31
0.0
  0
LINE
  5
171
100
AcDbEntity
100
AcDbLine
  8
0
 62
256
370
-1
  6
BYLAYER
 10
71.8359999999999985
 20
34.7509999999999977
 30
0.0
 11
71.804000000000002
 21
34.7359999999999971
 31
0.0
  0
LINE
  5
172
100
AcDbEntity
100
AcDbLine
  8
0
 62
256
370
-1
  6
BYLAYER
 10
71.804000000000002
 20
34.7359999999999971
 30
0.0
 11
72.534000000000006
 21
33.1850000000000023
 31
0.0
  0
LINE
  5
173
100
AcDbEntity
100
AcDbLine
  8
0
 62
256
370
-1
  6
BYLAYER
 10
72.534000000000006
 20
33.1850000000000023
 30
0.0
 11
72.5660000000000025
 21
33.2000000000000028
 31
0.0
  0
LINE
  5
174
100
AcDbEntity
100
AcDbLine
  8
0
 62
256
370
-1
  6
BYLAYER
 10
72.5660000000000025
 20
33.2000000000000028
 30
0.0
 11
73.8780000000000001
 21
33.2139999999999986
 31
0.0
  0
LINE
  5
175
100
AcDbEntity
100
AcDbLine
  8
0
 62
256
370
-1
  6
BYLAYER
 10
73.8780000000000001
 20
33.2139999999999986
 30
0.0
 11
75.3100000000000023
 21
33.171999999999997
 31
0.0
  0
LINE
  5
176
100
AcDbEntity
100
AcDbLine
  8
0
 62
256
370
-1
  6
BYLAYER
 10
75.3100000000000023
 20
33.171999999999997
 30
0.0
 11
76.8599999999999994
 21
33.0640000000000001
 31
0.0
  0
LINE
  5
177
100
AcDbEntity
100
AcDbLine
  8
0
 62
256
370
-1
  6
BYLAYER
 10
76.8599999999999994
 20
33.0640000000000001
 30
0.0
 11
78.5240000000000009
 21
32.8780000000000001
 31
0.0
  0
LINE
  5
178
100
AcDbEntity
100
AcDbLine
  8
0
 62
256
370
-1
  6
BYLAYER
 10
78.5240000000000009
 20
32.8780000000000001
 30
0.0
 11
80.2980000000000018
 21
32.607999999999997
 31
0.0
  0
LINE
  5
179
100
AcDbEntity
100
AcDbLine
  8
0
 62
256
370
-1
  6
BYLAYER
 10
80.2980000000000018
 20
32.607999999999997
 30
0.0
 11
80.8569999999999993
 21
31.1969999999999992
 31
0.0
  0
LINE
  5
17A
100
AcDbEntity
100
AcDbLine
  8
0
 62
256
370
-1
  6
BYLAYER
 10
80.8569999999999993
 20
31.1969999999999992
 30
0.0
 11
79.7480000000000047
 21
29.7860000000000014
 31
0.0
  0
LINE
  5
17B
100
AcDbEntity
100
AcDbLine
  8
0
 62
256
370
-1
  6
BYLAYER
 10
79.7480000000000047
 20
29.7860000000000014
 30
0.0
 11
78.6620000000000061
 21
28.5120000000000005
 31
0.0
  0
LINE
  5
17C
100
AcDbEntity
100
AcDbLine
  8
0
 62
256
370
-1
  6
BYLAYER
 10
78.6620000000000061
 20
28.5120000000000005
 30
0.0
 11
77.6059999999999945
 21
27.3719999999999999
 31
0.0
  0
LINE
  5
17D
100
AcDbEntity
100
AcDbLine
  8
0
 62
256
370
-1
  6
BYLAYER
 10
77.6059999999999945
 20
27.3719999999999999
 30
0.0
 11
76.590999999999994
 21
26.3610000000000007
 31
0.0
  0
LINE
  5
17E
100
AcDbEntity
100
AcDbLine
  8
0
 62
256
370
-1
  6
BYLAYER
 10
76.590999999999994
 20
26.3610000000000007
 30
0.0
 11
75.625
 21
25.472999999999999
 31
0.0
  0
LINE
  5
17F
100
AcDbEntity
100
AcDbLine
  8
0
 62
256
370
-1
  6
BYLAYER
 10
75.625
 20
25.472999999999999
 30
0.0
 11
75.5919999999999987
 21
25.4619999999999997
 31
0.0
  0
LINE
  5
180
100
AcDbEntity
100
AcDbLine
  8
0
 62
256
370
-1
  6
BYLAYER
 10
75.5919999999999987
 20
25.4619999999999997
 30
0.0
 11
76.1219999999999999
 21
23.8329999999999984
 31
0.0
  0
LINE
  5
181
100
AcDbEntity
100
AcDbLine
  8
0
 62
256
370
-1
  6
BYLAYER
 10
76.1219999999999999
 20
23.8329999999999984
 30
0.0
 11
76.1550000000000011
 21
23.843
 31
0.0
  0
LINE
  5
182
100
AcDbEntity
100
AcDbLine
  8
0
 62
256
370
-1
  6
BYLAYER
 10
76.1550000000000011
 20
23.843
 30
0.0
 11
77.4579999999999984
 21
23.6920000000000002
 31
0.0
  0
LINE
  5
183
100
AcDbEntity
100
AcDbLine
  8
0
 62
256
370
-1
  6
BYLAYER
 10
77.4579999999999984
 20
23.6920000000000002
 30
0.0
 11
78.8739999999999952
 21
23.4720000000000013
 31
0.0
  0
LINE
  5
184
100
AcDbEntity
100
AcDbLine
  8
0
 62
256
370
-1
  6
BYLAYER
 10
78.8739999999999952
 20
23.4720000000000013
 30
0.0
 11
80.3979999999999961
 21
23.1700000000000017
 31
0.0
  0
LINE
  5
185
100
AcDbEntity
100
AcDbLine
  8
0
 62
256
370
-1
  6
BYLAYER
 10
80.3979999999999961
 20
23.1700000000000017
 30
0.0
 11
82.0250000000000057
 21
22.777000000000001
 31
0.0
  0
LINE
  5
186
100
AcDbEntity
100
AcDbLine
  8
0
 62
256
370
-1
  6
BYLAYER
 10
82.0250000000000057
 20
22.777000000000001
 30
0.0
 11
83.7519999999999953
 21
22.286999999999999
 31
0.0
  0
LINE
  5
187
100
AcDbEntity
100
AcDbLine
  8
0
 62
256
370
-1
  6
BYLAYER
 10
83.7519999999999953
 20
22.286999999999999
 30
0.0
 11
84.1290000000000049
 21
20.8170000000000002
 31
0.0
  0
LINE
  5
188
100
AcDbEntity
100
AcDbLine
  8
0
 62
256
370
-1
  6
BYLAYER
 10
84.1290000000000049
 20
20.8170000000000002
 30
0.0
 11
82.8529999999999944
 21
19.5560000000000009
 31
0.0
  0
LINE
  5
189
100
AcDbEntity
100
AcDbLine
  8
0
 62
256
370
-1
  6
BYLAYER
 10
82.8529999999999944
 20
19.5560000000000009
 30
0.0
 11
81.6149999999999949
 21
18.4280000000000008
 31
0.0
  0
LINE
  5
18A
100
AcDbEntity
100
AcDbLine
  8
0
 62
256
370
-1
  6
BYLAYER
 10
81.6149999999999949
 20
18.4280000000000008
 30
0.0
 11
80.4249999999999972
 21
17.4299999999999997
 31
0.0
  0
LINE
  5
18B
100
AcDbEntity
100
AcDbLine
  8
0
 62
256
370
-1
  6
BYLAYER
 10
80.4249999999999972
 20
17.4299999999999997
 30
0.0
 11
79.2909999999999968
 21
16.5539999999999985
 31
0.0
  0
LINE
  5
18C
100
AcDbEntity
100
AcDbLine
  8
0
 62
256
370
-1
  6
BYLAYER
 10
79.2909999999999968
 20
16.5539999999999985
 30
0.0
 11
78.2219999999999942
 21
15.7940000000000005
 31
0.0
  0
LINE
  5
18D
100
AcDbEntity
100
AcDbLine
  8
0
 62
256
370
-1
  6
BYLAYER
 10
78.2219999999999942
 20
15.7940000000000005
 30
0.0
 11
78.1880000000000024
 21
15.7870000000000008
 31
0.0
  0
LINE
  5
18E
100
AcDbEntity
100
AcDbLine
  8
0
 62
256
370
-1
  6
BYLAYER
 10
78.1880000000000024
 20
15.7870000000000008
 30
0.0
 11
78.5090000000000003
 21
14.1039999999999992
 31
0.0
  0
LINE
  5
18F
100
AcDbEntity
100
AcDbLine
  8
0
 62
256
370
-1
  6
BYLAYER
 10
78.5090000000000003
 20
14.1039999999999992
 30
0.0
 11
78.5430000000000064
 21
14.1099999999999994
 31
0.0
  0
LINE
  5
190
100
AcDbEntity
100
AcDbLine
  8
0
 62
256
370
-1
  6
BYLAYER
 10
78.5430000000000064
 20
14.1099999999999994
 30
0.0
 11
79.8169999999999931
 21
13.798
 31
0.0
  0
LINE
  5
191
100
AcDbEntity
100
AcDbLine
  8
0
 62
256
370
-1
  6
BYLAYER
 10
79.8169999999999931
 20
13.798
 30
0.0
 11
81.1940000000000026
 21
13.4009999999999998
 31
0.0
  0
LINE
  5
192
100
AcDbEntity
100
AcDbLine
  8
0
 62
256
370
-1
  6
BYLAYER
 10
81.1940000000000026
 20
13.4009999999999998
 30
0.0
 11
82.6680000000000064
 21
12.9109999999999996
 31
0.0
  0
LINE
  5
193
100
AcDbEntity
100
AcDbLine
  8
0
 62
256
370
-1
  6
BYLAYER
 10
82.6680000000000064
 20
12.9109999999999996
 30
0.0
 11
84.2330000000000041
 21
12.3170000000000002
 31
0.0
  0
LINE
  5
194
100
AcDbEntity
100
AcDbLine
  8
0
 62
256
370
-1
  6
BYLAYER
 10
84.2330000000000041
 20
12.3170000000000002
 30
0.0
 11
85.8850000000000051
 21
11.6150000000000002
 31
0.0
  0
LINE
  5
195
100
AcDbEntity
100
AcDbLine
  8
0
 62
256
370
-1
  6
BYLAYER
 10
85.8850000000000051
 20
11.6150000000000002
 30
0.0
 11
86.0750000000000028
 21
10.109
 31
0.0
  0
LINE
  5
196
100
AcDbEntity
100
AcDbLine
  8
0
 62
256
370
-1
  6
BYLAYER
 10
86.0750000000000028
 20
10.109
 30
0.0
 11
84.6500000000000057
 21
9.0180000000000007
 31
0.0
  0
LINE
  5
197
100
AcDbEntity
100
AcDbLine
  8
0
 62
256
370
-1
  6
BYLAYER
 10
84.6500000000000057
 20
9.0180000000000007
 30
0.0
 11
83.2810000000000059
 21
8.0530000000000008
 31
0.0
  0
LINE
  5
198
100
AcDbEntity
100
AcDbLine
  8
0
 62
256
370
-1
  6
BYLAYER
 10
83.2810000000000059
 20
8.0530000000000008
 30
0.0
 11
81.9749999999999943
 21
7.2119999999999997
 31
0.0
  0
LINE
  5
199
100
AcDbEntity
100
AcDbLine
  8
0
 62
256
370
-1
  6
BYLAYER
 10
81.9749999999999943
 20
7.2119999999999997
 30
0.0
 11
80.7409999999999997
 21
6.4859999999999998
 31
0.0
  0
LINE
  5
19A
100
AcDbEntity
100
AcDbLine
  8
0
 62
256
370
-1
  6
BYLAYER
 10
80.7409999999999997
 20
6.4859999999999998
 30
0.0
 11
79.5840000000000032
 21
5.8659999999999997
 31
0.0
  0
LINE
  5
19B
100
AcDbEntity
100
AcDbLine
  8
0
 62
256
370
-1
  6
BYLAYER
 10
79.5840000000000032
 20
5.8659999999999997
 30
0.0
 11
79.5499999999999972
 21
5.8630000000000004
 31
0.0
  0
LINE
  5
19C
100
AcDbEntity
100
AcDbLine
  8
0
 62
256
370
-1
  6
BYLAYER
 10
79.5499999999999972
 20
5.8630000000000004
 30
0.0
 11
79.6569999999999965
 21
4.1529999999999996
 31
0.0
  0
LINE
  5
19D
100
AcDbEntity
100
AcDbLine
  8
0
 62
256
370
-1
  6
BYLAYER
 10
79.6569999999999965
 20
4.1529999999999996
 30
0.0
 11
79.6919999999999931
 21
4.1550000000000002
 31
0.0
  0
LINE
  5
19E
100
AcDbEntity
100
AcDbLine
  8
0
 62
256
370
-1
  6
BYLAYER
 10
79.6919999999999931
 20
4.1550000000000002
 30
0.0
 11
80.9170000000000016
 21
3.6850000000000001
 31
0.0
  0
LINE
  5
19F
100
AcDbEntity
100
AcDbLine
  8
0
 62
256
370
-1
  6
BYLAYER
 10
80.9170000000000016
 20
3.6850000000000001
 30
0.0
 11
82.2330000000000041
 21
3.1190000000000002
 31
0.0
  0
LINE
  5
1A0
100
AcDbEntity
100
AcDbLine
  8
0
 62
256
370
-1
  6
BYLAYER
 10
82.2330000000000041
 20
3.1190000000000002
 30
0.0
 11
83.6340000000000003
 21
2.448
 31
0.0
  0
LINE
  5
1A1
100
AcDbEntity
100
AcDbLine
  8
0
 62
256
370
-1
  6
BYLAYER
 10
83.6340000000000003
 20
2.448
 30
0.0
 11
85.1129999999999995
 21
1.663
 31
0.0
  0
LINE
  5
1A2
100
AcDbEntity
100
AcDbLine
  8
0
 62
256
370
-1
  6
BYLAYER
 10
85.1129999999999995
 20
1.663
 30
0.0
 11
86.6629999999999967
 21
0.759
 31
0.0
  0
LINE
  5
1A3
100
AcDbEntity
100
AcDbLine
  8
0
 62
256
370
-1
  6
BYLAYER
 10
86.6629999999999967
 20
0.759
 30
0.0
 11
86.6629999999999967
 21
-0.759
 31
0.0
  0
LINE
  5
1A4
100
AcDbEntity
100
AcDbLine
  8
0
 62
256
370
-1
  6
BYLAYER
 10
86.6629999999999967
 20
-0.759
 30
0.0
 11
85.1129999999999995
 21
-1.663
 31
0.0
  0
LINE
  5
1A5
100
AcDbEntity
100
AcDbLine
  8
0
 62
256
370
-1
  6
BYLAYER
 10
85.1129999999999995
 20
-1.663
 30
0.0
 11
83.6340000000000003
 21
-2.448
 31
0.0
  0
LINE
  5
1A6
100
AcDbEntity
100
AcDbLine
  8
0
 62
256
370
-1
  6
BYLAYER
 10
83.6340000000000003
 20
-2.448
 30
0.0
 11
82.2330000000000041
 21
-3.1190000000000002
 31
0.0
  0
LINE
  5
1A7
100
AcDbEntity
100
AcDbLine
  8
0
 62
256
370
-1
  6
BYLAYER
 10
82.2330000000000041
 20
-3.1190000000000002
 30
0.0
 11
80.9170000000000016
 21
-3.6850000000000001
 31
0.0
  0
LINE
  5
1A8
100
AcDbEntity
100
AcDbLine
  8
0
 62
256
370
-1
  6
BYLAYER
 10
80.9170000000000016
 20
-3.6850000000000001
 30
0.0
 11
79.6919999999999931
 21
-4.1550000000000002
 31
0.0
  0
LINE
  5
1A9
100
AcDbEntity
100
AcDbLine
  8
0
 62
256
370
-1
  6
BYLAYER
 10
79.6919999999999931
 20
-4.1550000000000002
 30
0.0
 11
79.6569999999999965
 21
-4.1529999999999996
 31
0.0
  0
LINE
  5
1AA
100
AcDbEntity
100
AcDbLine
  8
0
 62
256
370
-1
  6
BYLAYER
 10
79.6569999999999965
 20
-4.1529999999999996
 30
0.0
 11
79.5499999999999972
 21
-5.8630000000000004
 31
0.0
  0
LINE
  5
1AB
100
AcDbEntity
100
AcDbLine
  8
0
 62
256
370
-1
  6
BYLAYER
 10
79.5499999999999972
 20
-5.8630000000000004
 30
0.0
 11
79.5840000000000032
 21
-5.8659999999999997
 31
0.0
  0
LINE
  5
1AC
100
AcDbEntity
100
AcDbLine
  8
0
 62
256
370
-1
  6
BYLAYER
 10
79.5840000000000032
 20
-5.8659999999999997
 30
0.0
 11
80.7409999999999997
 21
-6.4859999999999998
 31
0.0
  0
LINE
  5
1AD
100
AcDbEntity
100
AcDbLine
  8
0
 62
256
370
-1
  6
BYLAYER
 10
80.7409999999999997
 20
-6.4859999999999998
 30
0.0
 11
81.9749999999999943
 21
-7.2119999999999997
 31
0.0
  0
LINE
  5
1AE
100
AcDbEntity
100
AcDbLine
  8
0
 62
256
370
-1
  6
BYLAYER
 10
81.9749999999999943
 20
-7.2119999999999997
 30
0.0
 11
83.2810000000000059
 21
-8.0530000000000008
 31
0.0
  0
LINE
  5
1AF
100
AcDbEntity
100
AcDbLine
  8
0
 62
256
370
-1
  6
BYLAYER
 10
83.2810000000000059
 20
-8.0530000000000008
 30
0.0
 11
84.6500000000000057
 21
-9.0180000000000007
 31
0.0
  0
LINE
  5
1B0
100
AcDbEntity
100
AcDbLine
  8
0
 62
256
370
-1
  6
BYLAYER
 10
84.6500000000000057
 20
-9.0180000000000007
 30
0.0
 11
86.0750000000000028
 21
-10.109
 31
0.0
  0
LINE
  5
1B1
100
AcDbEntity
100
AcDbLine
  8
0
 62
256
370
-1
  6
BYLAYER
 10
86.0750000000000028
 20
-10.109
 30
0.0
 11
85.8850000000000051
 21
-11.6150000000000002
 31
0.0
  0
LINE
  5
1B2
100
AcDbEntity
100
AcDbLine
  8
0
 62
256
370
-1
  6
BYLAYER
 10
85.8850000000000051
 20
-11.6150000000000002
 30
0.0
 11
84.2330000000000041
 21
-12.3170000000000002
 31
0.0
  0
LINE
  5
1B3
100
AcDbEntity
100
AcDbLine
  8
0
 62
256
370
-1
  6
BYLAYER
 10
84.2330000000000041
 20
-12.3170000000000002
 30
0.0
 11
82.6680000000000064
 21
-12.9109999999999996
 31
0.0
  0
LINE
  5
1B4
100
AcDbEntity
100
AcDbLine
  8
0
 62
256
370
-1
  6
BYLAYER
 10
82.6680000000000064
 20
-12.9109999999999996
 30
0.0
 11
81.1940000000000026
 21
-13.4009999999999998
 31
0.0
  0
LINE
  5
1B5
100
AcDbEntity
100
AcDbLine
  8
0
 62
256
370
-1
  6
BYLAYER
 10
81.1940000000000026
 20
-13.4009999999999998
 30
0.0
 11
79.8169999999999931
 21
-13.798
 31
0.0
  0
LINE
  5
1B6
100
AcDbEntity
100
AcDbLine
  8
0
 62
256
370
-1
  6
BYLAYER
 10
79.8169999999999931
 20
-13.798
 30
0.0
 11
78.5430000000000064
 21
-14.1099999999999994
 31
0.0
  0
LINE
  5
1B7
100
AcDbEntity
100
AcDbLine
  8
0
 62
256
370
-1
  6
BYLAYER
 10
78.5430000000000064
 20
-14.1099999999999994
 30
0.0
 11
78.5090000000000003
 21
-14.1039999999999992
 31
0.0
  0
LINE
  5
1B8
100
AcDbEntity
100
AcDbLine
  8
0
 62
256
370
-1
  6
BYLAYER
 10
78.5090000000000003
 20
-14.1039999999999992
 30
0.0
 11
78.1869999999999976
 21
-15.7870000000000008
 31
0.0
  0
LINE
  5
1B9
100
AcDbEntity
100
AcDbLine
  8
0
 62
256
370
-1
  6
BYLAYER
 10
78.1869999999999976
 20
-15.7870000000000008
 30
0.0
 11
78.2219999999999942
 21
-15.7940000000000005
 31
0.0
  0
LINE
  5
1BA
100
AcDbEntity
100
AcDbLine
  8
0
 62
256
370
-1
  6
BYLAYER
 10
78.2219999999999942
 20
-15.7940000000000005
 30
0.0
 11
79.2909999999999968
 21
-16.5539999999999985
 31
0.0
  0
LINE
  5
1BB
100
AcDbEntity
100
AcDbLine
  8
0
 62
256
370
-1
  6
BYLAYER
 10
79.2909999999999968
 20
-16.5539999999999985
 30
0.0
 11
80.4249999999999972
 21
-17.4299999999999997
 31
0.0
  0
LINE
  5
1BC
100
AcDbEntity
100
AcDbLine
  8
0
 62
256
370
-1
  6
BYLAYER
 10
80.4249999999999972
 20
-17.4299999999999997
 30
0.0
 11
81.6149999999999949
 21
-18.4280000000000008
 31
0.0
  0
LINE
  5
1BD
100
AcDbEntity
100
AcDbLine
  8
0
 62
256
370
-1
  6
BYLAYER
 10
81.6149999999999949
 20
-18.4280000000000008
 30
0.0
 11
82.8529999999999944
 21
-19.5560000000000009
 31
0.0
  0
LINE
  5
1BE
100
AcDbEntity
100
AcDbLine
  8
0
 62
256
370
-1
  6
BYLAYER
 10
82.8529999999999944
 20
-19.5560000000000009
 30
0.0
 11
84.1290000000000049
 21
-20.8170000000000002
 31
0.0
  0
LINE
  5
1BF
100
AcDbEntity
100
AcDbLine
  8
0
 62
256
370
-1
  6
BYLAYER
 10
84.1290000000000049
 20
-20.8170000000000002
 30
0.0
 11
83.7519999999999953
 21
-22.286999999999999
 31
0.0
  0
LINE
  5
1C0
100
AcDbEntity
100
AcDbLine
  8
0
 62
256
370
-1
  6
BYLAYER
 10
83.7519999999999953
 20
-22.286999999999999
 30
0.0
 11
82.0250000000000057
 21
-22.777000000000001
 31
0.0
  0
LINE
  5
1C1
100
AcDbEntity
100
AcDbLine
  8
0
 62
256
370
-1
  6
BYLAYER
 10
82.0250000000000057
 20
-22.777000000000001
 30
0.0
 11
80.3979999999999961
 21
-23.1700000000000017
 31
0.0
  0
LINE
  5
1C2
100
AcDbEntity
100
AcDbLine
  8
0
 62
256
370
-1
  6
BYLAYER
 10
80.3979999999999961
 20
-23.1700000000000017
 30
0.0
 11
78.8739999999999952
 21
-23.4720000000000013
 31
0.0
  0
LINE
  5
1C3
100
AcDbEntity
100
AcDbLine
  8
0
 62
256
370
-1
  6
BYLAYER
 10
78.8739999999999952
 20
-23.4720000000000013
 30
0.0
 11
77.4579999999999984
 21
-23.6920000000000002
 31
0.0
  0
LINE
  5
1C4
100
AcDbEntity
100
AcDbLine
  8
0
 62
256
370
-1
  6
BYLAYER
 10
77.4579999999999984
 20
-23.6920000000000002
 30
0.0
 11
76.1550000000000011
 21
-23.843
 31
0.0
  0
LINE
  5
1C5
100
AcDbEntity
100
AcDbLine
  8
0
 62
256
370
-1
  6
BYLAYER
 10
76.1550000000000011
 20
-23.843
 30
0.0
 11
76.1209999999999951
 21
-23.8320000000000007
 31
0.0
  0
LINE
  5
1C6
100
AcDbEntity
100
AcDbLine
  8
0
 62
256
370
-1
  6
BYLAYER
 10
76.1209999999999951
 20
-23.8320000000000007
 30
0.0
 11
75.5919999999999987
 21
-25.4619999999999997
 31
0.0
  0
LINE
  5
1C7
100
AcDbEntity
100
AcDbLine
  8
0
 62
256
370
-1
  6
BYLAYER
 10
75.5919999999999987
 20
-25.4619999999999997
 30
0.0
 11
75.625
 21
-25.472999999999999
 31
0.0
  0
LINE
  5
1C8
100
AcDbEntity
100
AcDbLine
  8
0
 62
256
370
-1
  6
BYLAYER
 10
75.625
 20
-25.472999999999999
 30
0.0
 11
76.590999999999994
 21
-26.3610000000000007
 31
0.0
  0
LINE
  5
1C9
100
AcDbEntity
100
AcDbLine
  8
0
 62
256
370
-1
  6
BYLAYER
 10
76.590999999999994
 20
-26.3610000000000007
 30
0.0
 11
77.6059999999999945
 21
-27.3719999999999999
 31
0.0
  0
LINE
  5
1CA
100
AcDbEntity
100
AcDbLine
  8
0
 62
256
370
-1
  6
BYLAYER
 10
77.6059999999999945
 20
-27.3719999999999999
 30
0.0
 11
78.6620000000000061
 21
-28.5120000000000005
 31
0.0
  0
LINE
  5
1CB
100
AcDbEntity
100
AcDbLine
  8
0
 62
256
370
-1
  6
BYLAYER
 10
78.6620000000000061
 20
-28.5120000000000005
 30
0.0
 11
79.7480000000000047
 21
-29.7860000000000014
 31
0.0
  0
LINE
  5
1CC
100
AcDbEntity
100
AcDbLine
  8
0
 62
256
370
-1
  6
BYLAYER
 10
79.7480000000000047
 20
-29.7860000000000014
 30
0.0
 11
80.8569999999999993
 21
-31.1969999999999992
 31
0.0
  0
LINE
  5
1CD
100
AcDbEntity
100
AcDbLine
  8
0
 62
256
370
-1
  6
BYLAYER
 10
80.8569999999999993
 20
-31.1969999999999992
 30
0.0
 11
80.2980000000000018
 21
-32.607999999999997
 31
0.0
  0
LINE
  5
1CE
100
AcDbEntity
100
AcDbLine
  8
0
 62
256
370
-1
  6
BYLAYER
 10
80.2980000000000018
 20
-32.607999999999997
 30
0.0
 11
78.5240000000000009
 21
-32.8780000000000001
 31
0.0
  0
LINE
  5
1CF
100
AcDbEntity
100
AcDbLine
  8
0
 62
256
370
-1
  6
BYLAYER
 10
78.5240000000000009
 20
-32.8780000000000001
 30
0.0
 11
76.8599999999999994
 21
-33.0640000000000001
 31
0.0
  0
LINE
  5
1D0
100
AcDbEntity
100
AcDbLine
  8
0
 62
256
370
-1
  6
BYLAYER
 10
76.8599999999999994
 20
-33.0640000000000001
 30
0.0
 11
75.3100000000000023
 21
-33.171999999999997
 31
0.0
  0
LINE
  5
1D1
100
AcDbEntity
100
AcDbLine
  8
0
 62
256
370
-1
  6
BYLAYER
 10
75.3100000000000023
 20
-33.171999999999997
 30
0.0
 11
73.8780000000000001
 21
-33.2139999999999986
 31
0.0
  0
LINE
  5
1D2
100
AcDbEntity
100
AcDbLine
  8
0
 62
256
370
-1
  6
BYLAYER
 10
73.8780000000000001
 20
-33.2139999999999986
 30
0.0
 11
72.5660000000000025
 21
-33.2000000000000028
 31
0.0
  0
LINE
  5
1D3
100
AcDbEntity
100
AcDbLine
  8
0
 62
256
370
-1
  6
BYLAYER
 10
72.5660000000000025
 20
-33.2000000000000028
 30
0.0
 11
72.534000000000006
 21
-33.1850000000000023
 31
0.0
  0
LINE
  5
1D4
100
AcDbEntity
100
AcDbLine
  8
0
 62
256
370
-1
  6
BYLAYER
 10
72.534000000000006
 20
-33.1850000000000023
 30
0.0
 11
71.8050000000000068
 21
-34.7359999999999971
 31
0.0
  0
LINE
  5
1D5
100
AcDbEntity
100
AcDbLine
  8
0
 62
256
370
-1
  6
BYLAYER
 10
71.8050000000000068
 20
-34.7359999999999971
 30
0.0
 11
71.8359999999999985
 21
-34.7509999999999977
 31
0.0
  0
LINE
  5
1D6
100
AcDbEntity
100
AcDbLine
  8
0
 62
256
370
-1
  6
BYLAYER
 10
71.8359999999999985
 20
-34.7509999999999977
 30
0.0
 11
72.6830000000000069
 21
-35.7530000000000001
 31
0.0
  0
LINE
  5
1D7
100
AcDbEntity
100
AcDbLine
  8
0
 62
256
370
-1
  6
BYLAYER
 10
72.6830000000000069
 20
-35.7530000000000001
 30
0.0
 11
73.563999999999993
 21
-36.8830000000000027
 31
0.0
  0
LINE
  5
1D8
100
AcDbEntity
100
AcDbLine
  8
0
 62
256
370
-1
  6
BYLAYER
 10
73.563999999999993
 20
-36.8830000000000027
 30
0.0
 11
74.4680000000000035
 21
-38.1460000000000008
 31
0.0
  0
LINE
  5
1D9
100
AcDbEntity
100
AcDbLine
  8
0
 62
256
370
-1
  6
BYLAYER
 10
74.4680000000000035
 20
-38.1460000000000008
 30
0.0
 11
75.3859999999999957
 21
-39.5459999999999994
 31
0.0
  0
LINE
  5
1DA
100
AcDbEntity
100
AcDbLine
  8
0
 62
256
370
-1
  6
BYLAYER
 10
75.3859999999999957
 20
-39.5459999999999994
 30
0.0
 11
76.3089999999999975
 21
-41.0850000000000009
 31
0.0
  0
LINE
  5
1DB
100
AcDbEntity
100
AcDbLine
  8
0
 62
256
370
-1
  6
BYLAYER
 10
76.3089999999999975
 20
-41.0850000000000009
 30
0.0
 11
75.578000000000003
 21
-42.4149999999999991
 31
0.0
  0
LINE
  5
1DC
100
AcDbEntity
100
AcDbLine
  8
0
 62
256
370
-1
  6
BYLAYER
 10
75.578000000000003
 20
-42.4149999999999991
 30
0.0
 11
73.784000000000006
 21
-42.4609999999999985
 31
0.0
  0
LINE
  5
1DD
100
AcDbEntity
100
AcDbLine
  8
0
 62
256
370
-1
  6
BYLAYER
 10
73.784000000000006
 20
-42.4609999999999985
 30
0.0
 11
72.1099999999999994
 21
-42.4359999999999999
 31
0.0
  0
LINE
  5
1DE
100
AcDbEntity
100
AcDbLine
  8
0
 62
256
370
-1
  6
BYLAYER
 10
72.1099999999999994
 20
-42.4359999999999999
 30
0.0
 11
70.5589999999999975
 21
-42.3489999999999966
 31
0.0
  0
LINE
  5
1DF
100
AcDbEntity
100
AcDbLine
  8
0
 62
256
370
-1
  6
BYLAYER
 10
70.5589999999999975
 20
-42.3489999999999966
 30
0.0
 11
69.1329999999999956
 21
-42.2109999999999985
 31
0.0
  0
LINE
  5
1E0
100
AcDbEntity
100
AcDbLine
  8
0
 62
256
370
-1
  6
BYLAYER
 10
69.1329999999999956
 20
-42.2109999999999985
 30
0.0
 11
67.8329999999999984
 21
-42.0330000000000013
 31
0.0
  0
LINE
  5
1E1
100
AcDbEntity
100
AcDbLine
  8
0
 62
256
370
-1
  6
BYLAYER
 10
67.8329999999999984
 20
-42.0330000000000013
 30
0.0
 11
67.8029999999999973
 21
-42.0150000000000006
 31
0.0
  0
LINE
  5
1E2
100
AcDbEntity
100
AcDbLine
  8
0
 62
256
370
-1
  6
BYLAYER
 10
67.8029999999999973
 20
-42.0150000000000006
 30
0.0
 11
66.8850000000000051
 21
-43.4609999999999985
 31
0.0
  0
LINE
  5
1E3
100
AcDbEntity
100
AcDbLine
  8
0
 62
256
370
-1
  6
BYLAYER
 10
66.8850000000000051
 20
-43.4609999999999985
 30
0.0
 11
66.9140000000000015
 21
-43.4799999999999969
 31
0.0
  0
LINE
  5
1E4
100
AcDbEntity
100
AcDbLine
  8
0
 62
256
370
-1
  6
BYLAYER
 10
66.9140000000000015
 20
-43.4799999999999969
 30
0.0
 11
67.6290000000000049
 21
-44.5810000000000031
 31
0.0
  0
LINE
  5
1E5
100
AcDbEntity
100
AcDbLine
  8
0
 62
256
370
-1
  6
BYLAYER
 10
67.6290000000000049
 20
-44.5810000000000031
 30
0.0
 11
68.3610000000000042
 21
-45.8119999999999976
 31
0.0
  0
LINE
  5
1E6
100
AcDbEntity
100
AcDbLine
  8
0
 62
256
370
-1
  6
BYLAYER
 10
68.3610000000000042
 20
-45.8119999999999976
 30
0.0
 11
69.0999999999999943
 21
-47.1779999999999973
 31
0.0
  0
LINE
  5
1E7
100
AcDbEntity
100
AcDbLine
  8
0
 62
256
370
-1
  6
BYLAYER
 10
69.0999999999999943
 20
-47.1779999999999973
 30
0.0
 11
69.8349999999999937
 21
-48.6829999999999998
 31
0.0
  0
LINE
  5
1E8
100
AcDbEntity
100
AcDbLine
  8
0
 62
256
370
-1
  6
BYLAYER
 10
69.8349999999999937
 20
-48.6829999999999998
 30
0.0
 11
70.5580000000000069
 21
-50.3250000000000028
 31
0.0
  0
LINE
  5
1E9
100
AcDbEntity
100
AcDbLine
  8
0
 62
256
370
-1
  6
BYLAYER
 10
70.5580000000000069
 20
-50.3250000000000028
 30
0.0
 11
69.6659999999999968
 21
-51.5529999999999973
 31
0.0
  0
LINE
  5
1EA
100
AcDbEntity
100
AcDbLine
  8
0
 62
256
370
-1
  6
BYLAYER
 10
69.6659999999999968
 20
-51.5529999999999973
 30
0.0
 11
67.8799999999999955
 21
-51.3740000000000023
 31
0.0
  0
LINE
  5
1EB
100
AcDbEntity
100
AcDbLine
  8
0
 62
256
370
-1
  6
BYLAYER
 10
67.8799999999999955
 20
-51.3740000000000023
 30
0.0
 11
66.2219999999999942
 21
-51.1390000000000029
 31
0.0
  0
LINE
  5
1EC
100
AcDbEntity
100
AcDbLine
  8
0
 62
256
370
-1
  6
BYLAYER
 10
66.2219999999999942
 20
-51.1390000000000029
 30
0.0
 11
64.6949999999999932
 21
-50.8590000000000018
 31
0.0
  0
LINE
  5
1ED
100
AcDbEntity
100
AcDbLine
  8
0
 62
256
370
-1
  6
BYLAYER
 10
64.6949999999999932
 20
-50.8590000000000018
 30
0.0
 11
63.296999999999997
 21
-50.5429999999999993
 31
0.0
  0
LINE
  5
1EE
100
AcDbEntity
100
AcDbLine
  8
0
 62
256
370
-1
  6
BYLAYER
 10
63.296999999999997
 20
-50.5429999999999993
 30
0.0
 11
62.0300000000000011
 21
-50.203000000000003
 31
0.0
  0
LINE
  5
1EF
100
AcDbEntity
100
AcDbLine
  8
0
 62
256
370
-1
  6
BYLAYER
 10
62.0300000000000011
 20
-50.203000000000003
 30
0.0
 11
62.0030000000000001
 21
-50.1809999999999974
 31
0.0
  0
LINE
  5
1F0
100
AcDbEntity
100
AcDbLine
  8
0
 62
256
370
-1
  6
BYLAYER
 10
62.0030000000000001
 20
-50.1809999999999974
 30
0.0
 11
60.9110000000000014
 21
-51.5020000000000024
 31
0.0
  0
LINE
  5
1F1
100
AcDbEntity
100
AcDbLine
  8
0
 62
256
370
-1
  6
BYLAYER
 10
60.9110000000000014
 20
-51.5020000000000024
 30
0.0
 11
60.9369999999999976
 21
-51.5240000000000009
 31
0.0
  0
LINE
  5
1F2
100
AcDbEntity
100
AcDbLine
  8
0
 62
256
370
-1
  6
BYLAYER
 10
60.9369999999999976
 20
-51.5240000000000009
 30
0.0
 11
61.5090000000000003
 21
-52.7049999999999983
 31
0.0
  0
LINE
  5
1F3
100
AcDbEntity
100
AcDbLine
  8
0
 62
256
370
-1
  6
BYLAYER
 10
61.5090000000000003
 20
-52.7049999999999983
 30
0.0
 11
62.0799999999999983
 21
-54.0189999999999984
 31
0.0
  0
LINE
  5
1F4
100
AcDbEntity
100
AcDbLine
  8
0
 62
256
370
-1
  6
BYLAYER
 10
62.0799999999999983
 20
-54.0189999999999984
 30
0.0
 11
62.642000000000003
 21
-55.4669999999999987
 31
0.0
  0
LINE
  5
1F5
100
AcDbEntity
100
AcDbLine
  8
0
 62
256
370
-1
  6
BYLAYER
 10
62.642000000000003
 20
-55.4669999999999987
 30
0.0
 11
63.1829999999999998
 21
-57.0519999999999996
 31
0.0
  0
LINE
  5
1F6
100
AcDbEntity
100
AcDbLine
  8
0
 62
256
370
-1
  6
BYLAYER
 10
63.1829999999999998
 20
-57.0519999999999996
 30
0.0
 11
63.6940000000000026
 21
-58.7719999999999985
 31
0.0
  0
LINE
  5
1F7
100
AcDbEntity
100
AcDbLine
  8
0
 62
256
370
-1
  6
BYLAYER
 10
63.6940000000000026
 20
-58.7719999999999985
 30
0.0
 11
62.6550000000000011
 21
-59.8780000000000001
 31
0.0
  0
LINE
  5
1F8
100
AcDbEntity
100
AcDbLine
  8
0
 62
256
370
-1
  6
BYLAYER
 10
62.6550000000000011
 20
-59.8780000000000001
 30
0.0
 11
60.9059999999999988
 21
-59.4759999999999991
 31
0.0
  0
LINE
  5
1F9
100
AcDbEntity
100
AcDbLine
  8
0
 62
256
370
-1
  6
BYLAYER
 10
60.9059999999999988
 20
-59.4759999999999991
 30
0.0
 11
59.2909999999999968
 21
-59.0360000000000014
 31
0.0
  0
LINE
  5
1FA
100
AcDbEntity
100
AcDbLine
  8
0
 62
256
370
-1
  6
BYLAYER
 10
59.2909999999999968
 20
-59.0360000000000014
 30
0.0
 11
57.8100000000000023
 21
-58.5660000000000025
 31
0.0
  0
LINE
  5
1FB
100
AcDbEntity
100
AcDbLine
  8
0
 62
256
370
-1
  6
BYLAYER
 10
57.8100000000000023
 20
-58.5660000000000025
 30
0.0
 11
56.463000000000001
 21
-58.078000000000003
 31
0.0
  0
LINE
  5
1FC
100
AcDbEntity
100
AcDbLine
  8
0
 62
256
370
-1
  6
BYLAYER
 10
56.463000000000001
 20
-58.078000000000003
 30
0.0
 11
55.2490000000000023
 21
-57.5820000000000007
 31
0.0
  0
LINE
  5
1FD
100
AcDbEntity
100
AcDbLine
  8
0
 62
256
370
-1
  6
BYLAYER
 10
55.2490000000000023
 20
-57.5820000000000007
 30
0.0
 11
55.2239999999999966
 21
-57.5559999999999974
 31
0.0
  0
LINE
  5
1FE
100
AcDbEntity
100
AcDbLine
  8
0
 62
256
370
-1
  6
BYLAYER
 10
55.2239999999999966
 20
-57.5559999999999974
 30
0.0
 11
53.9750000000000014
 21
-58.7289999999999992
 31
0.0
  0
LINE
  5
1FF
100
AcDbEntity
100
AcDbLine
  8
0
 62
256
370
-1
  6
BYLAYER
 10
53.9750000000000014
 20
-58.7289999999999992
 30
0.0
 11
53.9990000000000023
 21
-58.7550000000000026
 31
0.0
  0
LINE
  5
200
100
AcDbEntity
100
AcDbLine
  8
0
 62
256
370
-1
  6
BYLAYER
 10
53.9990000000000023
 20
-58.7550000000000026
 30
0.0
 11
54.4179999999999993
 21
-59.9990000000000023
 31
0.0
  0
LINE
  5
201
100
AcDbEntity
100
AcDbLine
  8
0
 62
256
370
-1
  6
BYLAYER
 10
54.4179999999999993
 20
-59.9990000000000023
 30
0.0
 11
54.820999999999998
 21
-61.3729999999999976
 31
0.0
  0
LINE
  5
202
100
AcDbEntity
100
AcDbLine
  8
0
 62
256
370
-1
  6
BYLAYER
 10
54.820999999999998
 20
-61.3729999999999976
 30
0.0
 11
55.1970000000000027
 21
-62.8810000000000002
 31
0.0
  0
LINE
  5
203
100
AcDbEntity
100
AcDbLine
  8
0
 62
256
370
-1
  6
BYLAYER
 10
55.1970000000000027
 20
-62.8810000000000002
 30
0.0
 11
55.5339999999999989
 21
-64.5210000000000008
 31
0.0
  0
LINE
  5
204
100
AcDbEntity
100
AcDbLine
  8
0
 62
256
370
-1
  6
BYLAYER
 10
55.5339999999999989
 20
-64.5210000000000008
 30
0.0
 11
55.8260000000000005
 21
-66.2909999999999968
 31
0.0
  0
LINE
  5
205
100
AcDbEntity
100
AcDbLine
  8
0
 62
256
370
-1
  6
BYLAYER
 10
55.8260000000000005
 20
-66.2909999999999968
 30
0.0
 11
54.6559999999999988
 21
-67.2590000000000003
 31
0.0
  0
LINE
  5
206
100
AcDbEntity
100
AcDbLine
  8
0
 62
256
370
-1
  6
BYLAYER
 10
54.6559999999999988
 20
-67.2590000000000003
 30
0.0
 11
52.9720000000000013
 21
-66.6410000000000053
 31
0.0
  0
LINE
  5
207
100
AcDbEntity
100
AcDbLine
  8
0
 62
256
370
-1
  6
BYLAYER
 10
52.9720000000000013
 20
-66.6410000000000053
 30
0.0
 11
51.4239999999999995
 21
-66.0019999999999953
 31
0.0
  0
LINE
  5
208
100
AcDbEntity
100
AcDbLine
  8
0
 62
256
370
-1
  6
BYLAYER
 10
51.4239999999999995
 20
-66.0019999999999953
 30
0.0
 11
50.0140000000000029
 21
-65.3499999999999943
 31
0.0
  0
LINE
  5
209
100
AcDbEntity
100
AcDbLine
  8
0
 62
256
370
-1
  6
BYLAYER
 10
50.0140000000000029
 20
-65.3499999999999943
 30
0.0
 11
48.7389999999999972
 21
-64.6970000000000027
 31
0.0
  0
LINE
  5
20A
100
AcDbEntity
100
AcDbLine
  8
0
 62
256
370
-1
  6
BYLAYER
 10
48.7389999999999972
 20
-64.6970000000000027
 30
0.0
 11
47.5959999999999965
 21
-64.0520000000000067
 31
0.0
  0
LINE
  5
20B
100
AcDbEntity
100
AcDbLine
  8
0
 62
256
370
-1
  6
BYLAYER
 10
47.5959999999999965
 20
-64.0520000000000067
 30
0.0
 11
47.5750000000000028
 21
-64.0240000000000009
 31
0.0
  0
LINE
  5
20C
100
AcDbEntity
100
AcDbLine
  8
0
 62
256
370
-1
  6
BYLAYER
 10
47.5750000000000028
 20
-64.0240000000000009
 30
0.0
 11
46.1890000000000001
 21
-65.0319999999999965
 31
0.0
  0
LINE
  5
20D
100
AcDbEntity
100
AcDbLine
  8
0
 62
256
370
-1
  6
BYLAYER
 10
46.1890000000000001
 20
-65.0319999999999965
 30
0.0
 11
46.2090000000000032
 21
-65.0600000000000023
 31
0.0
  0
LINE
  5
20E
100
AcDbEntity
100
AcDbLine
  8
0
 62
256
370
-1
  6
BYLAYER
 10
46.2090000000000032
 20
-65.0600000000000023
 30
0.0
 11
46.4690000000000012
 21
-66.3460000000000036
 31
0.0
  0
LINE
  5
20F
100
AcDbEntity
100
AcDbLine
  8
0
 62
256
370
-1
  6
BYLAYER
 10
46.4690000000000012
 20
-66.3460000000000036
 30
0.0
 11
46.695999999999998
 21
-67.7600000000000051
 31
0.0
  0
LINE
  5
210
100
AcDbEntity
100
AcDbLine
  8
0
 62
256
370
-1
  6
BYLAYER
 10
46.695999999999998
 20
-67.7600000000000051
 30
0.0
 11
46.8800000000000026
 21
-69.3029999999999973
 31
0.0
  0
LINE
  5
211
100
AcDbEntity
100
AcDbLine
  8
0
 62
256
370
-1
  6
BYLAYER
 10
46.8800000000000026
 20
-69.3029999999999973
 30
0.0
 11
47.009999999999998
 21
-70.9719999999999942
 31
0.0
  0
LINE
  5
212
100
AcDbEntity
100
AcDbLine
  8
0
 62
256
370
-1
  6
BYLAYER
 10
47.009999999999998
 20
-70.9719999999999942
 30
0.0
 11
47.0769999999999982
 21
-72.7650000000000006
 31
0.0
  0
LINE
  5
213
100
AcDbEntity
100
AcDbLine
  8
0
 62
256
370
-1
  6
BYLAYER
 10
47.0769999999999982
 20
-72.7650000000000006
 30
0.0
 11
45.7959999999999994
 21
-73.5789999999999935
 31
0.0
  0
LINE
  5
214
100
AcDbEntity
100
AcDbLine
  8
0
 62
256
370
-1
  6
BYLAYER
 10
45.7959999999999994
 20
-73.5789999999999935
 30
0.0
 11
44.2019999999999982
 21
-72.7540000000000049
 31
0.0
  0
LINE
  5
215
100
AcDbEntity
100
AcDbLine
  8
0
 62
256
370
-1
  6
BYLAYER
 10
44.2019999999999982
 20
-72.7540000000000049
 30
0.0
 11
42.7460000000000022
 21
-71.9260000000000019
 31
0.0
  0
LINE
  5
216
100
AcDbEntity
100
AcDbLine
  8
0
 62
256
370
-1
  6
BYLAYER
 10
42.7460000000000022
 20
-71.9260000000000019
 30
0.0
 11
41.429000000000002
 21
-71.1029999999999944
 31
0.0
  0
LINE
  5
217
100
AcDbEntity
100
AcDbLine
  8
0
 62
256
370
-1
  6
BYLAYER
 10
41.429000000000002
 20
-71.1029999999999944
 30
0.0
 11
40.2460000000000022
 21
-70.2950000000000017
 31
0.0
  0
LINE
  5
218
100
AcDbEntity
100
AcDbLine
  8
0
 62
256
370
-1
  6
BYLAYER
 10
40.2460000000000022
 20
-70.2950000000000017
 30
0.0
 11
39.1929999999999978
 21
-69.5130000000000052
 31
0.0
  0
LINE
  5
219
100
AcDbEntity
100
AcDbLine
  8
0
 62
256
370
-1
  6
BYLAYER
 10
39.1929999999999978
 20
-69.5130000000000052
 30
0.0
 11
39.1760000000000019
 21
-69.4819999999999993
 31
0.0
  0
LINE
  5
21A
100
AcDbEntity
100
AcDbLine
  8
0
 62
256
370
-1
  6
BYLAYER
 10
39.1760000000000019
 20
-69.4819999999999993
 30
0.0
 11
37.6739999999999995
 21
-70.3070000000000022
 31
0.0
  0
LINE
  5
21B
100
AcDbEntity
100
AcDbLine
  8
0
 62
256
370
-1
  6
BYLAYER
 10
37.6739999999999995
 20
-70.3070000000000022
 30
0.0
 11
37.6910000000000025
 21
-70.3379999999999939
 31
0.0
  0
LINE
  5
21C
100
AcDbEntity
100
AcDbLine
  8
0
 62
256
370
-1
  6
BYLAYER
 10
37.6910000000000025
 20
-70.3379999999999939
 30
0.0
 11
37.786999999999999
 21
-71.6470000000000056
 31
0.0
  0
LINE
  5
21D
100
AcDbEntity
100
AcDbLine
  8
0
 62
256
370
-1
  6
BYLAYER
 10
37.786999999999999
 20
-71.6470000000000056
 30
0.0
 11
37.8350000000000009
 21
-73.0789999999999935
 31
0.0
  0
LINE
  5
21E
100
AcDbEntity
100
AcDbLine
  8
0
 62
256
370
-1
  6
BYLAYER
 10
37.8350000000000009
 20
-73.0789999999999935
 30
0.0
 11
37.8250000000000028
 21
-74.632000000000005
 31
0.0
  0
LINE
  5
21F
100
AcDbEntity
100
AcDbLine
  8
0
 62
256
370
-1
  6
BYLAYER
 10
37.8250000000000028
 20
-74.632000000000005
 30
0.0
 11
37.7439999999999998
 21
-76.304000000000002
 31
0.0
  0
LINE
  5
220
100
AcDbEntity
100
AcDbLine
  8
0
 62
256
370
-1
  6
BYLAYER
 10
37.7439999999999998
 20
-76.304000000000002
 30
0.0
 11
37.5859999999999985
 21
-78.0919999999999987
 31
0.0
  0
LINE
  5
221
100
AcDbEntity
100
AcDbLine
  8
0
 62
256
370
-1
  6
BYLAYER
 10
37.5859999999999985
 20
-78.0919999999999987
 30
0.0
 11
36.213000000000001
 21
-78.7379999999999995
 31
0.0
  0
LINE
  5
222
100
AcDbEntity
100
AcDbLine
  8
0
 62
256
370
-1
  6
BYLAYER
 10
36.213000000000001
 20
-78.7379999999999995
 30
0.0
 11
34.7349999999999994
 21
-77.7210000000000036
 31
0.0
  0
LINE
  5
223
100
AcDbEntity
100
AcDbLine
  8
0
 62
256
370
-1
  6
BYLAYER
 10
34.7349999999999994
 20
-77.7210000000000036
 30
0.0
 11
33.3950000000000031
 21
-76.7169999999999987
 31
0.0
  0
LINE
  5
224
100
AcDbEntity
100
AcDbLine
  8
0
 62
256
370
-1
  6
BYLAYER
 10
33.3950000000000031
 20
-76.7169999999999987
 30
0.0
 11
32.1910000000000025
 21
-75.7349999999999994
 31
0.0
  0
LINE
  5
225
100
AcDbEntity
100
AcDbLine
  8
0
 62
256
370
-1
  6
BYLAYER
 10
32.1910000000000025
 20
-75.7349999999999994
 30
0.0
 11
31.1179999999999986
 21
-74.7849999999999966
 31
0.0
  0
LINE
  5
226
100
AcDbEntity
100
AcDbLine
  8
0
 62
256
370
-1
  6
BYLAYER
 10
31.1179999999999986
 20
-74.7849999999999966
 30
0.0
 11
30.1720000000000006
 21
-73.8769999999999953
 31
0.0
  0
LINE
  5
227
100
AcDbEntity
100
AcDbLine
  8
0
 62
256
370
-1
  6
BYLAYER
 10
30.1720000000000006
 20
-73.8769999999999953
 30
0.0
 11
30.1589999999999989
 21
-73.8439999999999941
 31
0.0
  0
LINE
  5
228
100
AcDbEntity
100
AcDbLine
  8
0
 62
256
370
-1
  6
BYLAYER
 10
30.1589999999999989
 20
-73.8439999999999941
 30
0.0
 11
28.5650000000000013
 21
-74.4749999999999943
 31
0.0
  0
LINE
  5
229
100
AcDbEntity
100
AcDbLine
  8
0
 62
256
370
-1
  6
BYLAYER
 10
28.5650000000000013
 20
-74.4749999999999943
 30
0.0
 11
28.5779999999999994
 21
-74.5079999999999956
 31
0.0
  0
LINE
  5
22A
100
AcDbEntity
100
AcDbLine
  8
0
 62
256
370
-1
  6
BYLAYER
 10
28.5779999999999994
 20
-74.5079999999999956
 30
0.0
 11
28.5090000000000003
 21
-75.8179999999999978
 31
0.0
  0
LINE
  5
22B
100
AcDbEntity
100
AcDbLine
  8
0
 62
256
370
-1
  6
BYLAYER
 10
28.5090000000000003
 20
-75.8179999999999978
 30
0.0
 11
28.3780000000000001
 21
-77.2439999999999998
 31
0.0
  0
LINE
  5
22C
100
AcDbEntity
100
AcDbLine
  8
0
 62
256
370
-1
  6
BYLAYER
 10
28.3780000000000001
 20
-77.2439999999999998
 30
0.0
 11
28.1729999999999983
 21
-78.784000000000006
 31
0.0
  0
LINE
  5
22D
100
AcDbEntity
100
AcDbLine
  8
0
 62
256
370
-1
  6
BYLAYER
 10
28.1729999999999983
 20
-78.784000000000006
 30
0.0
 11
27.8829999999999991
 21
-80.4330000000000069
 31
0.0
  0
LINE
  5
22E
100
AcDbEntity
100
AcDbLine
  8
0
 62
256
370
-1
  6
BYLAYER
 10
27.8829999999999991
 20
-80.4330000000000069
 30
0.0
 11
27.5019999999999989
 21
-82.1869999999999976
 31
0.0
  0
LINE
  5
22F
100
AcDbEntity
100
AcDbLine
  8
0
 62
256
370
-1
  6
BYLAYER
 10
27.5019999999999989
 20
-82.1869999999999976
 30
0.0
 11
26.0579999999999998
 21
-82.6560000000000059
 31
0.0
  0
LINE
  5
230
100
AcDbEntity
100
AcDbLine
  8
0
 62
256
370
-1
  6
BYLAYER
 10
26.0579999999999998
 20
-82.6560000000000059
 30
0.0
 11
24.7199999999999989
 21
-81.4609999999999985
 31
0.0
  0
LINE
  5
231
100
AcDbEntity
100
AcDbLine
  8
0
 62
256
370
-1
  6
BYLAYER
 10
24.7199999999999989
 20
-81.4609999999999985
 30
0.0
 11
23.5159999999999982
 21
-80.296999999999997
 31
0.0
  0
LINE
  5
232
100
AcDbEntity
100
AcDbLine
  8
0
 62
256
370
-1
  6
BYLAYER
 10
23.5159999999999982
 20
-80.296999999999997
 30
0.0
 11
22.4450000000000003
 21
-79.171999999999997
 31
0.0
  0
LINE
  5
233
100
AcDbEntity
100
AcDbLine
  8
0
 62
256
370
-1
  6
BYLAYER
 10
22.4450000000000003
 20
-79.171999999999997
 30
0.0
 11
21.5
 21
-78.0949999999999989
 31
0.0
  0
LINE
  5
234
100
AcDbEntity
100
AcDbLine
  8
0
 62
256
370
-1
  6
BYLAYER
 10
21.5
 20
-78.0949999999999989
 30
0.0
 11
20.6750000000000007
 21
-77.0759999999999934
 31
0.0
  0
LINE
  5
235
100
AcDbEntity
100
AcDbLine
  8
0
 62
256
370
-1
  6
BYLAYER
 10
20.6750000000000007
 20
-77.0759999999999934
 30
0.0
 11
20.6660000000000004
 21
-77.0420000000000016
 31
0.0
  0
LINE
  5
236
100
AcDbEntity
100
AcDbLine
  8
0
 62
256
370
-1
  6
BYLAYER
 10
20.6660000000000004
 20
-77.0420000000000016
 30
0.0
 11
19.0060000000000002
 21
-77.4689999999999941
 31
0.0
  0
LINE
  5
237
100
AcDbEntity
100
AcDbLine
  8
0
 62
256
370
-1
  6
BYLAYER
 10
19.0060000000000002
 20
-77.4689999999999941
 30
0.0
 11
19.0139999999999993
 21
-77.5019999999999953
 31
0.0
  0
LINE
  5
238
100
AcDbEntity
100
AcDbLine
  8
0
 62
256
370
-1
  6
BYLAYER
 10
19.0139999999999993
 20
-77.5019999999999953
 30
0.0
 11
18.782
 21
-78.7930000000000064
 31
0.0
  0
LINE
  5
239
100
AcDbEntity
100
AcDbLine
  8
0
 62
256
370
-1
  6
BYLAYER
 10
18.782
 20
-78.7930000000000064
 30
0.0
 11
18.472999999999999
 21
-80.1919999999999931
 31
0.0
  0
LINE
  5
23A
100
AcDbEntity
100
AcDbLine
  8
0
 62
256
370
-1
  6
BYLAYER
 10
18.472999999999999
 20
-80.1919999999999931
 30
0.0
 11
18.0760000000000005
 21
-81.6940000000000026
 31
0.0
  0
LINE
  5
23B
100
AcDbEntity
100
AcDbLine
  8
0
 62
256
370
-1
  6
BYLAYER
 10
18.0760000000000005
 20
-81.6940000000000026
 30
0.0
 11
17.5820000000000007
 21
-83.2939999999999969
 31
0.0
  0
LINE
  5
23C
100
AcDbEntity
100
AcDbLine
  8
0
 62
256
370
-1
  6
BYLAYER
 10
17.5820000000000007
 20
-83.2939999999999969
 30
0.0
 11
16.9849999999999994
 21
-84.9860000000000042
 31
0.0
  0
LINE
  5
23D
100
AcDbEntity
100
AcDbLine
  8
0
 62
256
370
-1
  6
BYLAYER
 10
16.9849999999999994
 20
-84.9860000000000042
 30
0.0
 11
15.4930000000000003
 21
-85.269999999999996
 31
0.0
  0
LINE
  5
23E
100
AcDbEntity
100
AcDbLine
  8
0
 62
256
370
-1
  6
BYLAYER
 10
15.4930000000000003
 20
-85.269999999999996
 30
0.0
 11
14.3149999999999995
 21
-83.9170000000000016
 31
0.0
  0
LINE
  5
23F
100
AcDbEntity
100
AcDbLine
  8
0
 62
256
370
-1
  6
BYLAYER
 10
14.3149999999999995
 20
-83.9170000000000016
 30
0.0
 11
13.2669999999999995
 21
-82.6110000000000042
 31
0.0
  0
LINE
  5
240
100
AcDbEntity
100
AcDbLine
  8
0
 62
256
370
-1
  6
BYLAYER
 10
13.2669999999999995
 20
-82.6110000000000042
 30
0.0
 11
12.3450000000000006
 21
-81.3610000000000042
 31
0.0
  0
LINE
  5
241
100
AcDbEntity
100
AcDbLine
  8
0
 62
256
370
-1
  6
BYLAYER
 10
12.3450000000000006
 20
-81.3610000000000042
 30
0.0
 11
11.5429999999999993
 21
-80.1740000000000066
 31
0.0
  0
LINE
  5
242
100
AcDbEntity
100
AcDbLine
  8
0
 62
256
370
-1
  6
BYLAYER
 10
11.5429999999999993
 20
-80.1740000000000066
 30
0.0
 11
10.8510000000000009
 21
-79.0589999999999975
 31
0.0
  0
LINE
  5
243
100
AcDbEntity
100
AcDbLine
  8
0
 62
256
370
-1
  6
BYLAYER
 10
10.8510000000000009
 20
-79.0589999999999975
 30
0.0
 11
10.8460000000000001
 21
-79.0250000000000057
 31
0.0
  0
LINE
  5
244
100
AcDbEntity
100
AcDbLine
  8
0
 62
256
370
-1
  6
BYLAYER
 10
10.8460000000000001
 20
-79.0250000000000057
 30
0.0
 11
9.1470000000000002
 21
-79.2390000000000043
 31
0.0
  0
LINE
  5
245
100
AcDbEntity
100
AcDbLine
  8
0
 62
256
370
-1
  6
BYLAYER
 10
9.1470000000000002
 20
-79.2390000000000043
 30
0.0
 11
9.1509999999999998
 21
-79.2740000000000009
 31
0.0
  0
LINE
  5
246
100
AcDbEntity
100
AcDbLine
  8
0
 62
256
370
-1
  6
BYLAYER
 10
9.1509999999999998
 20
-79.2740000000000009
 30
0.0
 11
8.7590000000000003
 21
-80.5259999999999962
 31
0.0
  0
LINE
  5
247
100
AcDbEntity
100
AcDbLine
  8
0
 62
256
370
-1
  6
BYLAYER
 10
8.7590000000000003
 20
-80.5259999999999962
 30
0.0
 11
8.2759999999999998
 21
-81.875
 31
0.0
  0
LINE
  5
248
100
AcDbEntity
100
AcDbLine
  8
0
 62
256
370
-1
  6
BYLAYER
 10
8.2759999999999998
 20
-81.875
 30
0.0
 11
7.6950000000000003
 21
-83.3149999999999977
 31
0.0
  0
LINE
  5
249
100
AcDbEntity
100
AcDbLine
  8
0
 62
256
370
-1
  6
BYLAYER
 10
7.6950000000000003
 20
-83.3149999999999977
 30
0.0
 11
7.0039999999999996
 21
-84.840999999999994
 31
0.0
  0
LINE
  5
24A
100
AcDbEntity
100
AcDbLine
  8
0
 62
256
370
-1
  6
BYLAYER
 10
7.0039999999999996
 20
-84.840999999999994
 30
0.0
 11
6.1989999999999998
 21
-86.4440000000000026
 31
0.0
  0
LINE
  5
24B
100
AcDbEntity
100
AcDbLine
  8
0
 62
256
370
-1
  6
BYLAYER
 10
6.1989999999999998
 20
-86.4440000000000026
 30
0.0
 11
4.6840000000000002
 21
-86.5400000000000063
 31
0.0
  0
LINE
  5
24C
100
AcDbEntity
100
AcDbLine
  8
0
 62
256
370
-1
  6
BYLAYER
 10
4.6840000000000002
 20
-86.5400000000000063
 30
0.0
 11
3.6850000000000001
 21
-85.0490000000000066
 31
0.0
  0
LINE
  5
24D
100
AcDbEntity
100
AcDbLine
  8
0
 62
256
370
-1
  6
BYLAYER
 10
3.6850000000000001
 20
-85.0490000000000066
 30
0.0
 11
2.8079999999999998
 21
-83.6230000000000047
 31
0.0
  0
LINE
  5
24E
100
AcDbEntity
100
AcDbLine
  8
0
 62
256
370
-1
  6
BYLAYER
 10
2.8079999999999998
 20
-83.6230000000000047
 30
0.0
 11
2.0510000000000002
 21
-82.2669999999999959
 31
0.0
  0
LINE
  5
24F
100
AcDbEntity
100
AcDbLine
  8
0
 62
256
370
-1
  6
BYLAYER
 10
2.0510000000000002
 20
-82.2669999999999959
 30
0.0
 11
1.403
 21
-80.9890000000000043
 31
0.0
  0
LINE
  5
250
100
AcDbEntity
100
AcDbLine
  8
0
 62
256
370
-1
  6
BYLAYER
 10
1.403
 20
-80.9890000000000043
 30
0.0
 11
0.857
 21
-79.7960000000000065
 31
0.0
  0
LINE
  5
251
100
AcDbEntity
100
AcDbLine
  8
0
 62
256
370
-1
  6
BYLAYER
 10
0.857
 20
-79.7960000000000065
 30
0.0
 11
0.857
 21
-79.7609999999999957
 31
0.0
  0
LINE
  5
252
100
AcDbEntity
100
AcDbLine
  8
0
 62
256
370
-1
  6
BYLAYER
 10
0.857
 20
-79.7609999999999957
 30
0.0
 11
-0.857
 21
-79.7609999999999957
 31
0.0
  0
LINE
  5
253
100
AcDbEntity
100
AcDbLine
  8
0
 62
256
370
-1
  6
BYLAYER
 10
-0.857
 20
-79.7609999999999957
 30
0.0
 11
-0.857
 21
-79.7960000000000065
 31
0.0
  0
LINE
  5
254
100
AcDbEntity
100
AcDbLine
  8
0
 62
256
370
-1
  6
BYLAYER
 10
-0.857
 20
-79.7960000000000065
 30
0.0
 11
-1.403
 21
-80.9890000000000043
 31
0.0
  0
LINE
  5
255
100
AcDbEntity
100
AcDbLine
  8
0
 62
256
370
-1
  6
BYLAYER
 10
-1.403
 20
-80.9890000000000043
 30
0.0
 11
-2.0510000000000002
 21
-82.2669999999999959
 31
0.0
  0
LINE
  5
256
100
AcDbEntity
100
AcDbLine
  8
0
 62
256
370
-1
  6
BYLAYER
 10
-2.0510000000000002
 20
-82.2669999999999959
 30
0.0
 11
-2.8079999999999998
 21
-83.6230000000000047
 31
0.0
  0
LINE
  5
257
100
AcDbEntity
100
AcDbLine
  8
0
 62
256
370
-1
  6
BYLAYER
 10
-2.8079999999999998
 20
-83.6230000000000047
 30
0.0
 11
-3.6850000000000001
 21
-85.0490000000000066
 31
0.0
  0
LINE
  5
258
100
AcDbEntity
100
AcDbLine
  8
0
 62
256
370
-1
  6
BYLAYER
 10
-3.6850000000000001
 20
-85.0490000000000066
 30
0.0
 11
-4.6840000000000002
 21
-86.5400000000000063
 31
0.0
  0
LINE
  5
259
100
AcDbEntity
100
AcDbLine
  8
0
 62
256
370
-1
  6
BYLAYER
 10
-4.6840000000000002
 20
-86.5400000000000063
 30
0.0
 11
-6.1989999999999998
 21
-86.4440000000000026
 31
0.0
  0
LINE
  5
25A
100
AcDbEntity
100
AcDbLine
  8
0
 62
256
370
-1
  6
BYLAYER
 10
-6.1989999999999998
 20
-86.4440000000000026
 30
0.0
 11
-7.0039999999999996
 21
-84.840999999999994
 31
0.0
  0
LINE
  5
25B
100
AcDbEntity
100
AcDbLine
  8
0
 62
256
370
-1
  6
BYLAYER
 10
-7.0039999999999996
 20
-84.840999999999994
 30
0.0
 11
-7.6950000000000003
 21
-83.3149999999999977
 31
0.0
  0
LINE
  5
25C
100
AcDbEntity
100
AcDbLine
  8
0
 62
256
370
-1
  6
BYLAYER
 10
-7.6950000000000003
 20
-83.3149999999999977
 30
0.0
 11
-8.2759999999999998
 21
-81.875
 31
0.0
  0
LINE
  5
25D
100
AcDbEntity
100
AcDbLine
  8
0
 62
256
370
-1
  6
BYLAYER
 10
-8.2759999999999998
 20
-81.875
 30
0.0
 11
-8.7590000000000003
 21
-80.5259999999999962
 31
0.0
  0
LINE
  5
25E
100
AcDbEntity
100
AcDbLine
  8
0
 62
256
370
-1
  6
BYLAYER
 10
-8.7590000000000003
 20
-80.5259999999999962
 30
0.0
 11
-9.1509999999999998
 21
-79.2740000000000009
 31
0.0
  0
LINE
  5
25F
100
AcDbEntity
100
AcDbLine
  8
0
 62
256
370
-1
  6
BYLAYER
 10
-9.1509999999999998
 20
-79.2740000000000009
 30
0.0
 11
-9.1470000000000002
 21
-79.2390000000000043
 31
0.0
  0
LINE
  5
260
100
AcDbEntity
100
AcDbLine
  8
0
 62
256
370
-1
  6
BYLAYER
 10
-9.1470000000000002
 20
-79.2390000000000043
 30
0.0
 11
-10.8460000000000001
 21
-79.0250000000000057
 31
0.0
  0
LINE
  5
261
100
AcDbEntity
100
AcDbLine
  8
0
 62
256
370
-1
  6
BYLAYER
 10
-10.8460000000000001
 20
-79.0250000000000057
 30
0.0
 11
-10.8510000000000009
 21
-79.0589999999999975
 31
0.0
  0
LINE
  5
262
100
AcDbEntity
100
AcDbLine
  8
0
 62
256
370
-1
  6
BYLAYER
 10
-10.8510000000000009
 20
-79.0589999999999975
 30
0.0
 11
-11.5429999999999993
 21
-80.1740000000000066
 31
0.0
  0
LINE
  5
263
100
AcDbEntity
100
AcDbLine
  8
0
 62
256
370
-1
  6
BYLAYER
 10
-11.5429999999999993
 20
-80.1740000000000066
 30
0.0
 11
-12.3450000000000006
 21
-81.3610000000000042
 31
0.0
  0
LINE
  5
264
100
AcDbEntity
100
AcDbLine
  8
0
 62
256
370
-1
  6
BYLAYER
 10
-12.3450000000000006
 20
-81.3610000000000042
 30
0.0
 11
-13.2669999999999995
 21
-82.6110000000000042
 31
0.0
  0
LINE
  5
265
100
AcDbEntity
100
AcDbLine
  8
0
 62
256
370
-1
  6
BYLAYER
 10
-13.2669999999999995
 20
-82.6110000000000042
 30
0.0
 11
-14.3149999999999995
 21
-83.9170000000000016
 31
0.0
  0
LINE
  5
266
100
AcDbEntity
100
AcDbLine
  8
0
 62
256
370
-1
  6
BYLAYER
 10
-14.3149999999999995
 20
-83.9170000000000016
 30
0.0
 11
-15.4930000000000003
 21
-85.269999999999996
 31
0.0
  0
LINE
  5
267
100
AcDbEntity
100
AcDbLine
  8
0
 62
256
370
-1
  6
BYLAYER
 10
-15.4930000000000003
 20
-85.269999999999996
 30
0.0
 11
-16.9849999999999994
 21
-84.9860000000000042
 31
0.0
  0
LINE
  5
268
100
AcDbEntity
100
AcDbLine
  8
0
 62
256
370
-1
  6
BYLAYER
 10
-16.9849999999999994
 20
-84.9860000000000042
 30
0.0
 11
-17.5820000000000007
 21
-83.2939999999999969
 31
0.0
  0
LINE
  5
269
100
AcDbEntity
100
AcDbLine
  8
0
 62
256
370
-1
  6
BYLAYER
 10
-17.5820000000000007
 20
-83.2939999999999969
 30
0.0
 11
-18.0760000000000005
 21
-81.6940000000000026
 31
0.0
  0
LINE
  5
26A
100
AcDbEntity
100
AcDbLine
  8
0
 62
256
370
-1
  6
BYLAYER
 10
-18.0760000000000005
 20
-81.6940000000000026
 30
0.0
 11
-18.472999999999999
 21
-80.1919999999999931
 31
0.0
  0
LINE
  5
26B
100
AcDbEntity
100
AcDbLine
  8
0
 62
256
370
-1
  6
BYLAYER
 10
-18.472999999999999
 20
-80.1919999999999931
 30
0.0
 11
-18.782
 21
-78.7930000000000064
 31
0.0
  0
LINE
  5
26C
100
AcDbEntity
100
AcDbLine
  8
0
 62
256
370
-1
  6
BYLAYER
 10
-18.782
 20
-78.7930000000000064
 30
0.0
 11
-19.0139999999999993
 21
-77.5019999999999953
 31
0.0
  0
LINE
  5
26D
100
AcDbEntity
100
AcDbLine
  8
0
 62
256
370
-1
  6
BYLAYER
 10
-19.0139999999999993
 20
-77.5019999999999953
 30
0.0
 11
-19.0060000000000002
 21
-77.4680000000000035
 31
0.0
  0
LINE
  5
26E
100
AcDbEntity
100
AcDbLine
  8
0
 62
256
370
-1
  6
BYLAYER
 10
-19.0060000000000002
 20
-77.4680000000000035
 30
0.0
 11
-20.6660000000000004
 21
-77.0409999999999968
 31
0.0
  0
LINE
  5
26F
100
AcDbEntity
100
AcDbLine
  8
0
 62
256
370
-1
  6
BYLAYER
 10
-20.6660000000000004
 20
-77.0409999999999968
 30
0.0
 11
-20.6750000000000007
 21
-77.0759999999999934
 31
0.0
  0
LINE
  5
270
100
AcDbEntity
100
AcDbLine
  8
0
 62
256
370
-1
  6
BYLAYER
 10
-20.6750000000000007
 20
-77.0759999999999934
 30
0.0
 11
-21.5
 21
-78.0949999999999989
 31
0.0
  0
LINE
  5
271
100
AcDbEntity
100
AcDbLine
  8
0
 62
256
370
-1
  6
BYLAYER
 10
-21.5
 20
-78.0949999999999989
 30
0.0
 11
-22.4450000000000003
 21
-79.171999999999997
 31
0.0
  0
LINE
  5
272
100
AcDbEntity
100
AcDbLine
  8
0
 62
256
370
-1
  6
BYLAYER
 10
-22.4450000000000003
 20
-79.171999999999997
 30
0.0
 11
-23.5159999999999982
 21
-80.296999999999997
 31
0.0
  0
LINE
  5
273
100
AcDbEntity
100
AcDbLine
  8
0
 62
256
370
-1
  6
BYLAYER
 10
-23.5159999999999982
 20
-80.296999999999997
 30
0.0
 11
-24.7199999999999989
 21
-81.4609999999999985
 31
0.0
  0
LINE
  5
274
100
AcDbEntity
100
AcDbLine
  8
0
 62
256
370
-1
  6
BYLAYER
 10
-24.7199999999999989
 20
-81.4609999999999985
 30
0.0
 11
-26.0579999999999998
 21
-82.6560000000000059
 31
0.0
  0
LINE
  5
275
100
AcDbEntity
100
AcDbLine
  8
0
 62
256
370
-1
  6
BYLAYER
 10
-26.0579999999999998
 20
-82.6560000000000059
 30
0.0
 11
-27.5019999999999989
 21
-82.1869999999999976
 31
0.0
  0
LINE
  5
276
100
AcDbEntity
100
AcDbLine
  8
0
 62
256
370
-1
  6
BYLAYER
 10
-27.5019999999999989
 20
-82.1869999999999976
 30
0.0
 11
-27.8829999999999991
 21
-80.4330000000000069
 31
0.0
  0
LINE
  5
277
100
AcDbEntity
100
AcDbLine
  8
0
 62
256
370
-1
  6
BYLAYER
 10
-27.8829999999999991
 20
-80.4330000000000069
 30
0.0
 11
-28.1729999999999983
 21
-78.784000000000006
 31
0.0
  0
LINE
  5
278
100
AcDbEntity
100
AcDbLine
  8
0
 62
256
370
-1
  6
BYLAYER
 10
-28.1729999999999983
 20
-78.784000000000006
 30
0.0
 11
-28.3780000000000001
 21
-77.2439999999999998
 31
0.0
  0
LINE
  5
279
100
AcDbEntity
100
AcDbLine
  8
0
 62
256
370
-1
  6
BYLAYER
 10
-28.3780000000000001
 20
-77.2439999999999998
 30
0.0
 11
-28.5090000000000003
 21
-75.8179999999999978
 31
0.0
  0
LINE
  5
27A
100
AcDbEntity
100
AcDbLine
  8
0
 62
256
370
-1
  6
BYLAYER
 10
-28.5090000000000003
 20
-75.8179999999999978
 30
0.0
 11
-28.5779999999999994
 21
-74.5079999999999956
 31
0.0
  0
LINE
  5
27B
100
AcDbEntity
100
AcDbLine
  8
0
 62
256
370
-1
  6
BYLAYER
 10
-28.5779999999999994
 20
-74.5079999999999956
 30
0.0
 11
-28.5650000000000013
 21
-74.4749999999999943
 31
0.0
  0
LINE
  5
27C
100
AcDbEntity
100
AcDbLine
  8
0
 62
256
370
-1
  6
BYLAYER
 10
-28.5650000000000013
 20
-74.4749999999999943
 30
0.0
 11
-30.1589999999999989
 21
-73.8439999999999941
 31
0.0
  0
LINE
  5
27D
100
AcDbEntity
100
AcDbLine
  8
0
 62
256
370
-1
  6
BYLAYER
 10
-30.1589999999999989
 20
-73.8439999999999941
 30
0.0
 11
-30.1720000000000006
 21
-73.8769999999999953
 31
0.0
  0
LINE
  5
27E
100
AcDbEntity
100
AcDbLine
  8
0
 62
256
370
-1
  6
BYLAYER
 10
-30.1720000000000006
 20
-73.8769999999999953
 30
0.0
 11
-31.1179999999999986
 21
-74.7849999999999966
 31
0.0
  0
LINE
  5
27F
100
AcDbEntity
100
AcDbLine
  8
0
 62
256
370
-1
  6
BYLAYER
 10
-31.1179999999999986
 20
-74.7849999999999966
 30
0.0
 11
-32.1910000000000025
 21
-75.7349999999999994
 31
0.0
  0
LINE
  5
280
100
AcDbEntity
100
AcDbLine
  8
0
 62
256
370
-1
  6
BYLAYER
 10
-32.1910000000000025
 20
-75.7349999999999994
 30
0.0
 11
-33.3950000000000031
 21
-76.7169999999999987
 31
0.0
  0
LINE
  5
281
100
AcDbEntity
100
AcDbLine
  8
0
 62
256
370
-1
  6
BYLAYER
 10
-33.3950000000000031
 20
-76.7169999999999987
 30
0.0
 11
-34.7349999999999994
 21
-77.7210000000000036
 31
0.0
  0
LINE
  5
282
100
AcDbEntity
100
AcDbLine
  8
0
 62
256
370
-1
  6
BYLAYER
 10
-34.7349999999999994
 20
-77.7210000000000036
 30
0.0
 11
-36.213000000000001
 21
-78.7379999999999995
 31
0.0
  0
LINE
  5
283
100
AcDbEntity
100
AcDbLine
  8
0
 62
256
370
-1
  6
BYLAYER
 10
-36.213000000000001
 20
-78.7379999999999995
 30
0.0
 11
-37.5859999999999985
 21
-78.0919999999999987
 31
0.0
  0
LINE
  5
284
100
AcDbEntity
100
AcDbLine
  8
0
 62
256
370
-1
  6
BYLAYER
 10
-37.5859999999999985
 20
-78.0919999999999987
 30
0.0
 11
-37.7439999999999998
 21
-76.304000000000002
 31
0.0
  0
LINE
  5
285
100
AcDbEntity
100
AcDbLine
  8
0
 62
256
370
-1
  6
BYLAYER
 10
-37.7439999999999998
 20
-76.304000000000002
 30
0.0
 11
-37.8250000000000028
 21
-74.632000000000005
 31
0.0
  0
LINE
  5
286
100
AcDbEntity
100
AcDbLine
  8
0
 62
256
370
-1
  6
BYLAYER
 10
-37.8250000000000028
 20
-74.632000000000005
 30
0.0
 11
-37.8350000000000009
 21
-73.0789999999999935
 31
0.0
  0
LINE
  5
287
100
AcDbEntity
100
AcDbLine
  8
0
 62
256
370
-1
  6
BYLAYER
 10
-37.8350000000000009
 20
-73.0789999999999935
 30
0.0
 11
-37.786999999999999
 21
-71.6470000000000056
 31
0.0
  0
LINE
  5
288
100
AcDbEntity
100
AcDbLine
  8
0
 62
256
370
-1
  6
BYLAYER
 10
-37.786999999999999
 20
-71.6470000000000056
 30
0.0
 11
-37.6910000000000025
 21
-70.3379999999999939
 31
0.0
  0
LINE
  5
289
100
AcDbEntity
100
AcDbLine
  8
0
 62
256
370
-1
  6
BYLAYER
 10
-37.6910000000000025
 20
-70.3379999999999939
 30
0.0
 11
-37.6749999999999972
 21
-70.3070000000000022
 31
0.0
  0
LINE
  5
28A
100
AcDbEntity
100
AcDbLine
  8
0
 62
256
370
-1
  6
BYLAYER
 10
-37.6749999999999972
 20
-70.3070000000000022
 30
0.0
 11
-39.1760000000000019
 21
-69.4819999999999993
 31
0.0
  0
LINE
  5
28B
100
AcDbEntity
100
AcDbLine
  8
0
 62
256
370
-1
  6
BYLAYER
 10
-39.1760000000000019
 20
-69.4819999999999993
 30
0.0
 11
-39.1929999999999978
 21
-69.5130000000000052
 31
0.0
  0
LINE
  5
28C
100
AcDbEntity
100
AcDbLine
  8
0
 62
256
370
-1
  6
BYLAYER
 10
-39.1929999999999978
 20
-69.5130000000000052
 30
0.0
 11
-40.2460000000000022
 21
-70.2950000000000017
 31
0.0
  0
LINE
  5
28D
100
AcDbEntity
100
AcDbLine
  8
0
 62
256
370
-1
  6
BYLAYER
 10
-40.2460000000000022
 20
-70.2950000000000017
 30
0.0
 11
-41.429000000000002
 21
-71.1029999999999944
 31
0.0
  0
LINE
  5
28E
100
AcDbEntity
100
AcDbLine
  8
0
 62
256
370
-1
  6
BYLAYER
 10
-41.429000000000002
 20
-71.1029999999999944
 30
0.0
 11
-42.7460000000000022
 21
-71.9260000000000019
 31
0.0
  0
LINE
  5
28F
100
AcDbEntity
100
AcDbLine
  8
0
 62
256
370
-1
  6
BYLAYER
 10
-42.7460000000000022
 20
-71.9260000000000019
 30
0.0
 11
-44.2019999999999982
 21
-72.7540000000000049
 31
0.0
  0
LINE
  5
290
100
AcDbEntity
100
AcDbLine
  8
0
 62
256
370
-1
  6
BYLAYER
 10
-44.2019999999999982
 20
-72.7540000000000049
 30
0.0
 11
-45.7959999999999994
 21
-73.5789999999999935
 31
0.0
  0
LINE
  5
291
100
AcDbEntity
100
AcDbLine
  8
0
 62
256
370
-1
  6
BYLAYER
 10
-45.7959999999999994
 20
-73.5789999999999935
 30
0.0
 11
-47.0769999999999982
 21
-72.7650000000000006
 31
0.0
  0
LINE
  5
292
100
AcDbEntity
100
AcDbLine
  8
0
 62
256
370
-1
  6
BYLAYER
 10
-47.0769999999999982
 20
-72.7650000000000006
 30
0.0
 11
-47.009999999999998
 21
-70.9719999999999942
 31
0.0
  0
LINE
  5
293
100
AcDbEntity
100
AcDbLine
  8
0
 62
256
370
-1
  6
BYLAYER
 10
-47.009999999999998
 20
-70.9719999999999942
 30
0.0
 11
-46.8800000000000026
 21
-69.3029999999999973
 31
0.0
  0
LINE
  5
294
100
AcDbEntity
100
AcDbLine
  8
0
 62
256
370
-1
  6
BYLAYER
 10
-46.8800000000000026
 20
-69.3029999999999973
 30
0.0
 11
-46.695999999999998
 21
-67.7600000000000051
 31
0.0
  0
LINE
  5
295
100
AcDbEntity
100
AcDbLine
  8
0
 62
256
370
-1
  6
BYLAYER
 10
-46.695999999999998
 20
-67.7600000000000051
 30
0.0
 11
-46.4690000000000012
 21
-66.3460000000000036
 31
0.0
  0
LINE
  5
296
100
AcDbEntity
100
AcDbLine
  8
0
 62
256
370
-1
  6
BYLAYER
 10
-46.4690000000000012
 20
-66.3460000000000036
 30
0.0
 11
-46.2090000000000032
 21
-65.0600000000000023
 31
0.0
  0
LINE
  5
297
100
AcDbEntity
100
AcDbLine
  8
0
 62
256
370
-1
  6
BYLAYER
 10
-46.2090000000000032
 20
-65.0600000000000023
 30
0.0
 11
-46.1890000000000001
 21
-65.0310000000000059
 31
0.0
  0
LINE
  5
298
100
AcDbEntity
100
AcDbLine
  8
0
 62
256
370
-1
  6
BYLAYER
 10
-46.1890000000000001
 20
-65.0310000000000059
 30
0.0
 11
-47.5750000000000028
 21
-64.0240000000000009
 31
0.0
  0
LINE
  5
299
100
AcDbEntity
100
AcDbLine
  8
0
 62
256
370
-1
  6
BYLAYER
 10
-47.5750000000000028
 20
-64.0240000000000009
 30
0.0
 11
-47.5959999999999965
 21
-64.0520000000000067
 31
0.0
  0
LINE
  5
29A
100
AcDbEntity
100
AcDbLine
  8
0
 62
256
370
-1
  6
BYLAYER
 10
-47.5959999999999965
 20
-64.0520000000000067
 30
0.0
 11
-48.7389999999999972
 21
-64.6970000000000027
 31
0.0
  0
LINE
  5
29B
100
AcDbEntity
100
AcDbLine
  8
0
 62
256
370
-1
  6
BYLAYER
 10
-48.7389999999999972
 20
-64.6970000000000027
 30
0.0
 11
-50.0140000000000029
 21
-65.3499999999999943
 31
0.0
  0
LINE
  5
29C
100
AcDbEntity
100
AcDbLine
  8
0
 62
256
370
-1
  6
BYLAYER
 10
-50.0140000000000029
 20
-65.3499999999999943
 30
0.0
 11
-51.4239999999999995
 21
-66.0019999999999953
 31
0.0
  0
LINE
  5
29D
100
AcDbEntity
100
AcDbLine
  8
0
 62
256
370
-1
  6
BYLAYER
 10
-51.4239999999999995
 20
-66.0019999999999953
 30
0.0
 11
-52.9720000000000013
 21
-66.6410000000000053
 31
0.0
  0
LINE
  5
29E
100
AcDbEntity
100
AcDbLine
  8
0
 62
256
370
-1
  6
BYLAYER
 10
-52.9720000000000013
 20
-66.6410000000000053
 30
0.0
 11
-54.6559999999999988
 21
-67.2590000000000003
 31
0.0
  0
LINE
  5
29F
100
AcDbEntity
100
AcDbLine
  8
0
 62
256
370
-1
  6
BYLAYER
 10
-54.6559999999999988
 20
-67.2590000000000003
 30
0.0
 11
-55.8260000000000005
 21
-66.2909999999999968
 31
0.0
  0
LINE
  5
2A0
100
AcDbEntity
100
AcDbLine
  8
0
 62
256
370
-1
  6
BYLAYER
 10
-55.8260000000000005
 20
-66.2909999999999968
 30
0.0
 11
-55.5339999999999989
 21
-64.5210000000000008
 31
0.0
  0
LINE
  5
2A1
100
AcDbEntity
100
AcDbLine
  8
0
 62
256
370
-1
  6
BYLAYER
 10
-55.5339999999999989
 20
-64.5210000000000008
 30
0.0
 11
-55.1970000000000027
 21
-62.8810000000000002
 31
0.0
  0
LINE
  5
2A2
100
AcDbEntity
100
AcDbLine
  8
0
 62
256
370
-1
  6
BYLAYER
 10
-55.1970000000000027
 20
-62.8810000000000002
 30
0.0
 11
-54.820999999999998
 21
-61.3729999999999976
 31
0.0
  0
LINE
  5
2A3
100
AcDbEntity
100
AcDbLine
  8
0
 62
256
370
-1
  6
BYLAYER
 10
-54.820999999999998
 20
-61.3729999999999976
 30
0.0
 11
-54.4179999999999993
 21
-59.9990000000000023
 31
0.0
  0
LINE
  5
2A4
100
AcDbEntity
100
AcDbLine
  8
0
 62
256
370
-1
  6
BYLAYER
 10
-54.4179999999999993
 20
-59.9990000000000023
 30
0.0
 11
-53.9990000000000023
 21
-58.7550000000000026
 31
0.0
  0
LINE
  5
2A5
100
AcDbEntity
100
AcDbLine
  8
0
 62
256
370
-1
  6
BYLAYER
 10
-53.9990000000000023
 20
-58.7550000000000026
 30
0.0
 11
-53.9759999999999991
 21
-58.7289999999999992
 31
0.0
  0
LINE
  5
2A6
100
AcDbEntity
100
AcDbLine
  8
0
 62
256
370
-1
  6
BYLAYER
 10
-53.9759999999999991
 20
-58.7289999999999992
 30
0.0
 11
-55.2239999999999966
 21
-57.5559999999999974
 31
0.0
  0
LINE
  5
2A7
100
AcDbEntity
100
AcDbLine
  8
0
 62
256
370
-1
  6
BYLAYER
 10
-55.2239999999999966
 20
-57.5559999999999974
 30
0.0
 11
-55.2490000000000023
 21
-57.5820000000000007
 31
0.0
  0
LINE
  5
2A8
100
AcDbEntity
100
AcDbLine
  8
0
 62
256
370
-1
  6
BYLAYER
 10
-55.2490000000000023
 20
-57.5820000000000007
 30
0.0
 11
-56.463000000000001
 21
-58.078000000000003
 31
0.0
  0
LINE
  5
2A9
100
AcDbEntity
100
AcDbLine
  8
0
 62
256
370
-1
  6
BYLAYER
 10
-56.463000000000001
 20
-58.078000000000003
 30
0.0
 11
-57.8100000000000023
 21
-58.5660000000000025
 31
0.0
  0
LINE
  5
2AA
100
AcDbEntity
100
AcDbLine
  8
0
 62
256
370
-1
  6
BYLAYER
 10
-57.8100000000000023
 20
-58.5660000000000025
 30
0.0
 11
-59.2909999999999968
 21
-59.0360000000000014
 31
0.0
  0
LINE
  5
2AB
100
AcDbEntity
100
AcDbLine
  8
0
 62
256
370
-1
  6
BYLAYER
 10
-59.2909999999999968
 20
-59.0360000000000014
 30
0.0
 11
-60.9059999999999988
 21
-59.4759999999999991
 31
0.0
  0
LINE
  5
2AC
100
AcDbEntity
100
AcDbLine
  8
0
 62
256
370
-1
  6
BYLAYER
 10
-60.9059999999999988
 20
-59.4759999999999991
 30
0.0
 11
-62.6550000000000011
 21
-59.8780000000000001
 31
0.0
  0
LINE
  5
2AD
100
AcDbEntity
100
AcDbLine
  8
0
 62
256
370
-1
  6
BYLAYER
 10
-62.6550000000000011
 20
-59.8780000000000001
 30
0.0
 11
-63.6940000000000026
 21
-58.7719999999999985
 31
0.0
  0
LINE
  5
2AE
100
AcDbEntity
100
AcDbLine
  8
0
 62
256
370
-1
  6
BYLAYER
 10
-63.6940000000000026
 20
-58.7719999999999985
 30
0.0
 11
-63.1829999999999998
 21
-57.0519999999999996
 31
0.0
  0
LINE
  5
2AF
100
AcDbEntity
100
AcDbLine
  8
0
 62
256
370
-1
  6
BYLAYER
 10
-63.1829999999999998
 20
-57.0519999999999996
 30
0.0
 11
-62.642000000000003
 21
-55.4669999999999987
 31
0.0
  0
LINE
  5
2B0
100
AcDbEntity
100
AcDbLine
  8
0
 62
256
370
-1
  6
BYLAYER
 10
-62.642000000000003
 20
-55.4669999999999987
 30
0.0
 11
-62.0799999999999983
 21
-54.0189999999999984
 31
0.0
  0
LINE
  5
2B1
100
AcDbEntity
100
AcDbLine
  8
0
 62
256
370
-1
  6
BYLAYER
 10
-62.0799999999999983
 20
-54.0189999999999984
 30
0.0
 11
-61.5090000000000003
 21
-52.7049999999999983
 31
0.0
  0
LINE
  5
2B2
100
AcDbEntity
100
AcDbLine
  8
0
 62
256
370
-1
  6
BYLAYER
 10
-61.5090000000000003
 20
-52.7049999999999983
 30
0.0
 11
-60.9369999999999976
 21
-51.5240000000000009
 31
0.0
  0
LINE
  5
2B3
100
AcDbEntity
100
AcDbLine
  8
0
 62
256
370
-1
  6
BYLAYER
 10
-60.9369999999999976
 20
-51.5240000000000009
 30
0.0
 11
-60.9099999999999966
 21
-51.5020000000000024
 31
0.0
  0
LINE
  5
2B4
100
AcDbEntity
100
AcDbLine
  8
0
 62
256
370
-1
  6
BYLAYER
 10
-60.9099999999999966
 20
-51.5020000000000024
 30
0.0
 11
-62.0030000000000001
 21
-50.1809999999999974
 31
0.0
  0
LINE
  5
2B5
100
AcDbEntity
100
AcDbLine
  8
0
 62
256
370
-1
  6
BYLAYER
 10
-62.0030000000000001
 20
-50.1809999999999974
 30
0.0
 11
-62.0300000000000011
 21
-50.203000000000003
 31
0.0
  0
LINE
  5
2B6
100
AcDbEntity
100
AcDbLine
  8
0
 62
256
370
-1
  6
BYLAYER
 10
-62.0300000000000011
 20
-50.203000000000003
 30
0.0
 11
-63.296999999999997
 21
-50.5429999999999993
 31
0.0
  0
LINE
  5
2B7
100
AcDbEntity
100
AcDbLine
  8
0
 62
256
370
-1
  6
BYLAYER
 10
-63.296999999999997
 20
-50.5429999999999993
 30
0.0
 11
-64.6949999999999932
 21
-50.8590000000000018
 31
0.0
  0
LINE
  5
2B8
100
AcDbEntity
100
AcDbLine
  8
0
 62
256
370
-1
  6
BYLAYER
 10
-64.6949999999999932
 20
-50.8590000000000018
 30
0.0
 11
-66.2219999999999942
 21
-51.1390000000000029
 31
0.0
  0
LINE
  5
2B9
100
AcDbEntity
100
AcDbLine
  8
0
 62
256
370
-1
  6
BYLAYER
 10
-66.2219999999999942
 20
-51.1390000000000029
 30
0.0
 11
-67.8799999999999955
 21
-51.3740000000000023
 31
0.0
  0
LINE
  5
2BA
100
AcDbEntity
100
AcDbLine
  8
0
 62
256
370
-1
  6
BYLAYER
 10
-67.8799999999999955
 20
-51.3740000000000023
 30
0.0
 11
-69.6659999999999968
 21
-51.5529999999999973
 31
0.0
  0
LINE
  5
2BB
100
AcDbEntity
100
AcDbLine
  8
0
 62
256
370
-1
  6
BYLAYER
 10
-69.6659999999999968
 20
-51.5529999999999973
 30
0.0
 11
-70.5580000000000069
 21
-50.3250000000000028
 31
0.0
  0
LINE
  5
2BC
100
AcDbEntity
100
AcDbLine
  8
0
 62
256
370
-1
  6
BYLAYER
 10
-70.5580000000000069
 20
-50.3250000000000028
 30
0.0
 11
-69.8349999999999937
 21
-48.6829999999999998
 31
0.0
  0
LINE
  5
2BD
100
AcDbEntity
100
AcDbLine
  8
0
 62
256
370
-1
  6
BYLAYER
 10
-69.8349999999999937
 20
-48.6829999999999998
 30
0.0
 11
-69.0999999999999943
 21
-47.1779999999999973
 31
0.0
  0
LINE
  5
2BE
100
AcDbEntity
100
AcDbLine
  8
0
 62
256
370
-1
  6
BYLAYER
 10
-69.0999999999999943
 20
-47.1779999999999973
 30
0.0
 11
-68.3610000000000042
 21
-45.8119999999999976
 31
0.0
  0
LINE
  5
2BF
100
AcDbEntity
100
AcDbLine
  8
0
 62
256
370
-1
  6
BYLAYER
 10
-68.3610000000000042
 20
-45.8119999999999976
 30
0.0
 11
-67.6290000000000049
 21
-44.5810000000000031
 31
0.0
  0
LINE
  5
2C0
100
AcDbEntity
100
AcDbLine
  8
0
 62
256
370
-1
  6
BYLAYER
 10
-67.6290000000000049
 20
-44.5810000000000031
 30
0.0
 11
-66.9140000000000015
 21
-43.4799999999999969
 31
0.0
  0
LINE
  5
2C1
100
AcDbEntity
100
AcDbLine
  8
0
 62
256
370
-1
  6
BYLAYER
 10
-66.9140000000000015
 20
-43.4799999999999969
 30
0.0
 11
-66.8850000000000051
 21
-43.4609999999999985
 31
0.0
  0
LINE
  5
2C2
100
AcDbEntity
100
AcDbLine
  8
0
 62
256
370
-1
  6
BYLAYER
 10
-66.8850000000000051
 20
-43.4609999999999985
 30
0.0
 11
-67.8029999999999973
 21
-42.0150000000000006
 31
0.0
  0
LINE
  5
2C3
100
AcDbEntity
100
AcDbLine
  8
0
 62
256
370
-1
  6
BYLAYER
 10
-67.8029999999999973
 20
-42.0150000000000006
 30
0.0
 11
-67.8329999999999984
 21
-42.0330000000000013
 31
0.0
  0
LINE
  5
2C4
100
AcDbEntity
100
AcDbLine
  8
0
 62
256
370
-1
  6
BYLAYER
 10
-67.8329999999999984
 20
-42.0330000000000013
 30
0.0
 11
-69.1329999999999956
 21
-42.2109999999999985
 31
0.0
  0
LINE
  5
2C5
100
AcDbEntity
100
AcDbLine
  8
0
 62
256
370
-1
  6
BYLAYER
 10
-69.1329999999999956
 20
-42.2109999999999985
 30
0.0
 11
-70.5589999999999975
 21
-42.3489999999999966
 31
0.0
  0
LINE
  5
2C6
100
AcDbEntity
100
AcDbLine
  8
0
 62
256
370
-1
  6
BYLAYER
 10
-70.5589999999999975
 20
-42.3489999999999966
 30
0.0
 11
-72.1099999999999994
 21
-42.4359999999999999
 31
0.0
  0
LINE
  5
2C7
100
AcDbEntity
100
AcDbLine
  8
0
 62
256
370
-1
  6
BYLAYER
 10
-72.1099999999999994
 20
-42.4359999999999999
 30
0.0
 11
-73.784000000000006
 21
-42.4609999999999985
 31
0.0
  0
LINE
  5
2C8
100
AcDbEntity
100
AcDbLine
  8
0
 62
256
370
-1
  6
BYLAYER
 10
-73.784000000000006
 20
-42.4609999999999985
 30
0.0
 11
-75.578000000000003
 21
-42.4149999999999991
 31
0.0
  0
LINE
  5
2C9
100
AcDbEntity
100
AcDbLine
  8
0
 62
256
370
-1
  6
BYLAYER
 10
-75.578000000000003
 20
-42.4149999999999991
 30
0.0
 11
-76.3089999999999975
 21
-41.0850000000000009
 31
0.0
  0
LINE
  5
2CA
100
AcDbEntity
100
AcDbLine
  8
0
 62
256
370
-1
  6
BYLAYER
 10
-76.3089999999999975
 20
-41.0850000000000009
 30
0.0
 11
-75.3859999999999957
 21
-39.5459999999999994
 31
0.0
  0
LINE
  5
2CB
100
AcDbEntity
100
AcDbLine
  8
0
 62
256
370
-1
  6
BYLAYER
 10
-75.3859999999999957
 20
-39.5459999999999994
 30
0.0
 11
-74.4680000000000035
 21
-38.1460000000000008
 31
0.0
  0
LINE
  5
2CC
100
AcDbEntity
100
AcDbLine
  8
0
 62
256
370
-1
  6
BYLAYER
 10
-74.4680000000000035
 20
-38.1460000000000008
 30
0.0
 11
-73.563999999999993
 21
-36.8830000000000027
 31
0.0
  0
LINE
  5
2CD
100
AcDbEntity
100
AcDbLine
  8
0
 62
256
370
-1
  6
BYLAYER
 10
-73.563999999999993
 20
-36.8830000000000027
 30
0.0
 11
-72.6830000000000069
 21
-35.7530000000000001
 31
0.0
  0
LINE
  5
2CE
100
AcDbEntity
100
AcDbLine
  8
0
 62
256
370
-1
  6
BYLAYER
 10
-72.6830000000000069
 20
-35.7530000000000001
 30
0.0
 11
-71.8359999999999985
 21
-34.7509999999999977
 31
0.0
  0
LINE
  5
2CF
100
AcDbEntity
100
AcDbLine
  8
0
 62
256
370
-1
  6
BYLAYER
 10
-71.8359999999999985
 20
-34.7509999999999977
 30
0.0
 11
-71.804000000000002
 21
-34.7359999999999971
 31
0.0
  0
LINE
  5
2D0
100
AcDbEntity
100
AcDbLine
  8
0
 62
256
370
-1
  6
BYLAYER
 10
-71.804000000000002
 20
-34.7359999999999971
 30
0.0
 11
-72.534000000000006
 21
-33.1850000000000023
 31
0.0
  0
LINE
  5
2D1
100
AcDbEntity
100
AcDbLine
  8
0
 62
256
370
-1
  6
BYLAYER
 10
-72.534000000000006
 20
-33.1850000000000023
 30
0.0
 11
-72.5660000000000025
 21
-33.2000000000000028
 31
0.0
  0
LINE
  5
2D2
100
AcDbEntity
100
AcDbLine
  8
0
 62
256
370
-1
  6
BYLAYER
 10
-72.5660000000000025
 20
-33.2000000000000028
 30
0.0
 11
-73.8780000000000001
 21
-33.2139999999999986
 31
0.0
  0
LINE
  5
2D3
100
AcDbEntity
100
AcDbLine
  8
0
 62
256
370
-1
  6
BYLAYER
 10
-73.8780000000000001
 20
-33.2139999999999986
 30
0.0
 11
-75.3100000000000023
 21
-33.171999999999997
 31
0.0
  0
LINE
  5
2D4
100
AcDbEntity
100
AcDbLine
  8
0
 62
256
370
-1
  6
BYLAYER
 10
-75.3100000000000023
 20
-33.171999999999997
 30
0.0
 11
-76.8599999999999994
 21
-33.0640000000000001
 31
0.0
  0
LINE
  5
2D5
100
AcDbEntity
100
AcDbLine
  8
0
 62
256
370
-1
  6
BYLAYER
 10
-76.8599999999999994
 20
-33.0640000000000001
 30
0.0
 11
-78.5240000000000009
 21
-32.8780000000000001
 31
0.0
  0
LINE
  5
2D6
100
AcDbEntity
100
AcDbLine
  8
0
 62
256
370
-1
  6
BYLAYER
 10
-78.5240000000000009
 20
-32.8780000000000001
 30
0.0
 11
-80.2980000000000018
 21
-32.607999999999997
 31
0.0
  0
LINE
  5
2D7
100
AcDbEntity
100
AcDbLine
  8
0
 62
256
370
-1
  6
BYLAYER
 10
-80.2980000000000018
 20
-32.607999999999997
 30
0.0
 11
-80.8569999999999993
 21
-31.1969999999999992
 31
0.0
  0
LINE
  5
2D8
100
AcDbEntity
100
AcDbLine
  8
0
 62
256
370
-1
  6
BYLAYER
 10
-80.8569999999999993
 20
-31.1969999999999992
 30
0.0
 11
-79.7480000000000047
 21
-29.7860000000000014
 31
0.0
  0
LINE
  5
2D9
100
AcDbEntity
100
AcDbLine
  8
0
 62
256
370
-1
  6
BYLAYER
 10
-79.7480000000000047
 20
-29.7860000000000014
 30
0.0
 11
-78.6620000000000061
 21
-28.5120000000000005
 31
0.0
  0
LINE
  5
2DA
100
AcDbEntity
100
AcDbLine
  8
0
 62
256
370
-1
  6
BYLAYER
 10
-78.6620000000000061
 20
-28.5120000000000005
 30
0.0
 11
-77.6059999999999945
 21
-27.3719999999999999
 31
0.0
  0
LINE
  5
2DB
100
AcDbEntity
100
AcDbLine
  8
0
 62
256
370
-1
  6
BYLAYER
 10
-77.6059999999999945
 20
-27.3719999999999999
 30
0.0
 11
-76.590999999999994
 21
-26.3610000000000007
 31
0.0
  0
LINE
  5
2DC
100
AcDbEntity
100
AcDbLine
  8
0
 62
256
370
-1
  6
BYLAYER
 10
-76.590999999999994
 20
-26.3610000000000007
 30
0.0
 11
-75.625
 21
-25.472999999999999
 31
0.0
  0
LINE
  5
2DD
100
AcDbEntity
100
AcDbLine
  8
0
 62
256
370
-1
  6
BYLAYER
 10
-75.625
 20
-25.472999999999999
 30
0.0
 11
-75.5919999999999987
 21
-25.4619999999999997
 31
0.0
  0
LINE
  5
2DE
100
AcDbEntity
100
AcDbLine
  8
0
 62
256
370
-1
  6
BYLAYER
 10
-75.5919999999999987
 20
-25.4619999999999997
 30
0.0
 11
-76.1219999999999999
 21
-23.8329999999999984
 31
0.0
  0
LINE
  5
2DF
100
AcDbEntity
100
AcDbLine
  8
0
 62
256
370
-1
  6
BYLAYER
 10
-76.1219999999999999
 20
-23.8329999999999984
 30
0.0
 11
-76.1550000000000011
 21
-23.843
 31
0.0
  0
LINE
  5
2E0
100
AcDbEntity
100
AcDbLine
  8
0
 62
256
370
-1
  6
BYLAYER
 10
-76.1550000000000011
 20
-23.843
 30
0.0
 11
-77.4579999999999984
 21
-23.6920000000000002
 31
0.0
  0
LINE
  5
2E1
100
AcDbEntity
100
AcDbLine
  8
0
 62
256
370
-1
  6
BYLAYER
 10
-77.4579999999999984
 20
-23.6920000000000002
 30
0.0
 11
-78.8739999999999952
 21
-23.4720000000000013
 31
0.0
  0
LINE
  5
2E2
100
AcDbEntity
100
AcDbLine
  8
0
 62
256
370
-1
  6
BYLAYER
 10
-78.8739999999999952
 20
-23.4720000000000013
 30
0.0
 11
-80.3979999999999961
 21
-23.1700000000000017
 31
0.0
  0
LINE
  5
2E3
100
AcDbEntity
100
AcDbLine
  8
0
 62
256
370
-1
  6
BYLAYER
 10
-80.3979999999999961
 20
-23.1700000000000017
 30
0.0
 11
-82.0250000000000057
 21
-22.777000000000001
 31
0.0
  0
LINE
  5
2E4
100
AcDbEntity
100
AcDbLine
  8
0
 62
256
370
-1
  6
BYLAYER
 10
-82.0250000000000057
 20
-22.777000000000001
 30
0.0
 11
-83.7519999999999953
 21
-22.286999999999999
 31
0.0
  0
LINE
  5
2E5
100
AcDbEntity
100
AcDbLine
  8
0
 62
256
370
-1
  6
BYLAYER
 10
-83.7519999999999953
 20
-22.286999999999999
 30
0.0
 11
-84.1290000000000049
 21
-20.8170000000000002
 31
0.0
  0
LINE
  5
2E6
100
AcDbEntity
100
AcDbLine
  8
0
 62
256
370
-1
  6
BYLAYER
 10
-84.1290000000000049
 20
-20.8170000000000002
 30
0.0
 11
-82.8529999999999944
 21
-19.5560000000000009
 31
0.0
  0
LINE
  5
2E7
100
AcDbEntity
100
AcDbLine
  8
0
 62
256
370
-1
  6
BYLAYER
 10
-82.8529999999999944
 20
-19.5560000000000009
 30
0.0
 11
-81.6149999999999949
 21
-18.4280000000000008
 31
0.0
  0
LINE
  5
2E8
100
AcDbEntity
100
AcDbLine
  8
0
 62
256
370
-1
  6
BYLAYER
 10
-81.6149999999999949
 20
-18.4280000000000008
 30
0.0
 11
-80.4249999999999972
 21
-17.4299999999999997
 31
0.0
  0
LINE
  5
2E9
100
AcDbEntity
100
AcDbLine
  8
0
 62
256
370
-1
  6
BYLAYER
 10
-80.4249999999999972
 20
-17.4299999999999997
 30
0.0
 11
-79.2909999999999968
 21
-16.5539999999999985
 31
0.0
  0
LINE
  5
2EA
100
AcDbEntity
100
AcDbLine
  8
0
 62
256
370
-1
  6
BYLAYER
 10
-79.2909999999999968
 20
-16.5539999999999985
 30
0.0
 11
-78.2219999999999942
 21
-15.7940000000000005
 31
0.0
  0
LINE
  5
2EB
100
AcDbEntity
100
AcDbLine
  8
0
 62
256
370
-1
  6
BYLAYER
 10
-78.2219999999999942
 20
-15.7940000000000005
 30
0.0
 11
-78.1880000000000024
 21
-15.7870000000000008
 31
0.0
  0
LINE
  5
2EC
100
AcDbEntity
100
AcDbLine
  8
0
 62
256
370
-1
  6
BYLAYER
 10
-78.1880000000000024
 20
-15.7870000000000008
 30
0.0
 11
-78.5090000000000003
 21
-14.1039999999999992
 31
0.0
  0
LINE
  5
2ED
100
AcDbEntity
100
AcDbLine
  8
0
 62
256
370
-1
  6
BYLAYER
 10
-78.5090000000000003
 20
-14.1039999999999992
 30
0.0
 11
-78.5430000000000064
 21
-14.1099999999999994
 31
0.0
  0
LINE
  5
2EE
100
AcDbEntity
100
AcDbLine
  8
0
 62
256
370
-1
  6
BYLAYER
 10
-78.5430000000000064
 20
-14.1099999999999994
 30
0.0
 11
-79.8169999999999931
 21
-13.798
 31
0.0
  0
LINE
  5
2EF
100
AcDbEntity
100
AcDbLine
  8
0
 62
256
370
-1
  6
BYLAYER
 10
-79.8169999999999931
 20
-13.798
 30
0.0
 11
-81.1940000000000026
 21
-13.4009999999999998
 31
0.0
  0
LINE
  5
2F0
100
AcDbEntity
100
AcDbLine
  8
0
 62
256
370
-1
  6
BYLAYER
 10
-81.1940000000000026
 20
-13.4009999999999998
 30
0.0
 11
-82.6680000000000064
 21
-12.9109999999999996
 31
0.0
  0
LINE
  5
2F1
100
AcDbEntity
100
AcDbLine
  8
0
 62
256
370
-1
  6
BYLAYER
 10
-82.6680000000000064
 20
-12.9109999999999996
 30
0.0
 11
-84.2330000000000041
 21
-12.3170000000000002
 31
0.0
  0
LINE
  5
2F2
100
AcDbEntity
100
AcDbLine
  8
0
 62
256
370
-1
  6
BYLAYER
 10
-84.2330000000000041
 20
-12.3170000000000002
 30
0.0
 11
-85.8850000000000051
 21
-11.6150000000000002
 31
0.0
  0
LINE
  5
2F3
100
AcDbEntity
100
AcDbLine
  8
0
 62
256
370
-1
  6
BYLAYER
 10
-85.8850000000000051
 20
-11.6150000000000002
 30
0.0
 11
-86.0750000000000028
 21
-10.109
 31
0.0
  0
LINE
  5
2F4
100
AcDbEntity
100
AcDbLine
  8
0
 62
256
370
-1
  6
BYLAYER
 10
-86.0750000000000028
 20
-10.109
 30
0.0
 11
-84.6500000000000057
 21
-9.0180000000000007
 31
0.0
  0
LINE
  5
2F5
100
AcDbEntity
100
AcDbLine
  8
0
 62
256
370
-1
  6
BYLAYER
 10
-84.6500000000000057
 20
-9.0180000000000007
 30
0.0
 11
-83.2810000000000059
 21
-8.0530000000000008
 31
0.0
  0
LINE
  5
2F6
100
AcDbEntity
100
AcDbLine
  8
0
 62
256
370
-1
  6
BYLAYER
 10
-83.2810000000000059
 20
-8.0530000000000008
 30
0.0
 11
-81.9749999999999943
 21
-7.2119999999999997
 31
0.0
  0
LINE
  5
2F7
100
AcDbEntity
100
AcDbLine
  8
0
 62
256
370
-1
  6
BYLAYER
 10
-81.9749999999999943
 20
-7.2119999999999997
 30
0.0
 11
-80.7409999999999997
 21
-6.4859999999999998
 31
0.0
  0
LINE
  5
2F8
100
AcDbEntity
100
AcDbLine
  8
0
 62
256
370
-1
  6
BYLAYER
 10
-80.7409999999999997
 20
-6.4859999999999998
 30
0.0
 11
-79.5840000000000032
 21
-5.8659999999999997
 31
0.0
  0
LINE
  5
2F9
100
AcDbEntity
100
AcDbLine
  8
0
 62
256
370
-1
  6
BYLAYER
 10
-79.5840000000000032
 20
-5.8659999999999997
 30
0.0
 11
-79.5499999999999972
 21
-5.8630000000000004
 31
0.0
  0
LINE
  5
2FA
100
AcDbEntity
100
AcDbLine
  8
0
 62
256
370
-1
  6
BYLAYER
 10
-79.5499999999999972
 20
-5.8630000000000004
 30
0.0
 11
-79.6569999999999965
 21
-4.1529999999999996
 31
0.0
  0
LINE
  5
2FB
100
AcDbEntity
100
AcDbLine
  8
0
 62
256
370
-1
  6
BYLAYER
 10
-79.6569999999999965
 20
-4.1529999999999996
 30
0.0
 11
-79.6919999999999931
 21
-4.1550000000000002
 31
0.0
  0
LINE
  5
2FC
100
AcDbEntity
100
AcDbLine
  8
0
 62
256
370
-1
  6
BYLAYER
 10
-79.6919999999999931
 20
-4.1550000000000002
 30
0.0
 11
-80.9170000000000016
 21
-3.6850000000000001
 31
0.0
  0
LINE
  5
2FD
100
AcDbEntity
100
AcDbLine
  8
0
 62
256
370
-1
  6
BYLAYER
 10
-80.9170000000000016
 20
-3.6850000000000001
 30
0.0
 11
-82.2330000000000041
 21
-3.1190000000000002
 31
0.0
  0
LINE
  5
2FE
100
AcDbEntity
100
AcDbLine
  8
0
 62
256
370
-1
  6
BYLAYER
 10
-82.2330000000000041
 20
-3.1190000000000002
 30
0.0
 11
-83.6340000000000003
 21
-2.448
 31
0.0
  0
LINE
  5
2FF
100
AcDbEntity
100
AcDbLine
  8
0
 62
256
370
-1
  6
BYLAYER
 10
-83.6340000000000003
 20
-2.448
 30
0.0
 11
-85.1129999999999995
 21
-1.663
 31
0.0
  0
LINE
  5
300
100
AcDbEntity
100
AcDbLine
  8
0
 62
256
370
-1
  6
BYLAYER
 10
-85.1129999999999995
 20
-1.663
 30
0.0
 11
-86.6629999999999967
 21
-0.759
 31
0.0
  0
LINE
  5
301
100
AcDbEntity
100
AcDbLine
  8
0
 62
256
370
-1
  6
BYLAYER
 10
-0.8090000000000001
 20
-0.588
 30
0.0
 11
-0.8090000000000001
 21
0.588
 31
0.0
  0
LINE
  5
302
100
AcDbEntity
100
AcDbLine
  8
0
 62
256
370
-1
  6
BYLAYER
 10
-0.8090000000000001
 20
0.588
 30
0.0
 11
0.309
 21
0.951
 31
0.0
  0
LINE
  5
303
100
AcDbEntity
100
AcDbLine
  8
0
 62
256
370
-1
  6
BYLAYER
 10
0.309
 20
0.951
 30
0.0
 11
1.0
 21
0.0
 31
0.0
  0
LINE
  5
304
100
AcDbEntity
100
AcDbLine
  8
0
 62
256
370
-1
  6
BYLAYER
 10
1.0
 20
0.0
 30
0.0
 11
0.309
 21
-0.951
 31
0.0
  0
LINE
  5
305
100
AcDbEntity
100
AcDbLine
  8
0
 62
256
370
-1
  6
BYLAYER
 10
0.309
 20
-0.951
 30
0.0
 11
-0.8090000000000001
 21
-0.588
 31
0.0
  0
ENDSEC
  0
SECTION
  2
OBJECTS
  0
DICTIONARY
  5
C
100
AcDbDictionary
280
0
281
1
  3
ACAD_GROUP
350
D
  3
ACAD_LAYOUT
350
1A
  3
ACAD_MLINESTYLE
350
17
  3
ACAD_PLOTSETTINGS
350
19
  3
ACAD_PLOTSTYLENAME
350
E
  3
AcDbVariableDictionary
350
306
  3
QCAD_OBJECTS
350
307
  0
DICTIONARY
  5
D
100
AcDbDictionary
280
0
281
1
  0
ACDBDICTIONARYWDFLT
  5
E
100
AcDbDictionary
281
1
  3
Normal
350
F
100
AcDbDictionaryWithDefault
340
F
  0
ACDBPLACEHOLDER
  5
F
  0
DICTIONARY
  5
17
100
AcDbDictionary
280
0
281
1
  3
Standard
350
18
  0
MLINESTYLE
  5
18
100
AcDbMlineStyle
  2
STANDARD
 70
0
  3

 62
256
 51
90.0
 52
90.0
 71
2
 49
0.5
 62
256
  6
BYLAYER
 49
-0.5
 62
256
  6
BYLAYER
  0
DICTIONARY
  5
19
100
AcDbDictionary
280
0
281
1
  0
DICTIONARY
  5
1A
100
AcDbDictionary
281
1
  3
Layout1
350
1E
  3
Layout2
350
26
  3
Model
350
22
  0
LAYOUT
  5
1E
100
AcDbPlotSettings
  1

  2
none_device
  4

  6

 40
0.0
 41
0.0
 42
0.0
 43
0.0
 44
0.0
 45
0.0
 46
0.0
 47
0.0
 48
0.0
 49
0.0
140
0.0
141
0.0
142
1.0
143
1.0
 70
688
 72
0
 73
0
 74
5
  7

 75
16
147
1.0
148
0.0
149
0.0
100
AcDbLayout
  1
Layout1
 70
1
 71
1
 10
0.0
 20
0.0
 11
420.0
 21
297.0
 12
0.0
 22
0.0
 32
0.0
 14
100000000000000000000.0
 24
100000000000000000000.0
 34
100000000000000000000.0
 15
-100000000000000000000.0
 25
-100000000000000000000.0
 35
-100000000000000000000.0
146
0.0
 13
0.0
 23
0.0
 33
0.0
 16
1.0
 26
0.0
 36
0.0
 17
0.0
 27
1.0
 37
0.0
 76
0
330
1B
  0
LAYOUT
  5
22
100
AcDbPlotSettings
  1

  2
none_device
  4

  6

 40
0.0
 41
0.0
 42
0.0
 43
0.0
 44
0.0
 45
0.0
 46
0.0
 47
0.0
 48
0.0
 49
0.0
140
0.0
141
0.0
142
1.0
143
1.0
 70
1712
 72
0
 73
0
 74
0
  7

 75
0
147
1.0
148
0.0
149
0.0
100
AcDbLayout
  1
Model
 70
1
 71
0
 10
0.0
 20
0.0
 11
12.0
 21
9.0
 12
0.0
 22
0.0
 32
0.0
 14
0.0
 24
0.0
 34
0.0
 15
0.0
 25
0.0
 35
0.0
146
0.0
 13
0.0
 23
0.0
 33
0.0
 16
1.0
 26
0.0
 36
0.0
 17
0.0
 27
1.0
 37
0.0
 76
0
330
1F
  0
LAYOUT
  5
26
100
AcDbPlotSettings
  1

  2
none_device
  4

  6

 40
0.0
 41
0.0
 42
0.0
 43
0.0
 44
0.0
 45
0.0
 46
0.0
 47
0.0
 48
0.0
 49
0.0
140
0.0
141
0.0
142
1.0
143
1.0
 70
688
 72
0
 73
0
 74
5
  7

 75
16
147
1.0
148
0.0
149
0.0
100
AcDbLayout
  1
Layout2
 70
1
 71
2
 10
0.0
 20
0.0
 11
12.0
 21
9.0
 12
0.0
 22
0.0
 32
0.0
 14
0.0
 24
0.0
 34
0.0
 15
0.0
 25
0.0
 35
0.0
146
0.0
 13
0.0
 23
0.0
 33
0.0
 16
1.0
 26
0.0
 36
0.0
 17
0.0
 27
1.0
 37
0.0
 76
0
330
23
  0
DICTIONARY
  5
306
100
AcDbDictionary
281
1
  3
DIMASSOC
350
309
  3
HIDETEXT
350
308
  0
DICTIONARYVAR
  5
308
100
DictionaryVariables
280
0
  1
2
  0
DICTIONARYVAR
  5
309
100
DictionaryVariables
280
0
  1
1
  0
DICTIONARY
  5
307
100
AcDbDictionary
281
1
  3
Grid/DisplayGrid00
350
30A
  3
Grid/DisplayGrid01
350
30B
  3
Grid/DisplayGrid02
350
30C
  3
Grid/DisplayGrid03
350
30D
  3
Grid/GridSpacingX00
350
30E
  3
Grid/GridSpacingX01
350
30F
  3
Grid/GridSpacingX02
350
310
  3
Grid/GridSpacingX03
350
311
  3
Grid/GridSpacingY00
350
312
  3
Grid/GridSpacingY01
350
313
  3
Grid/GridSpacingY02
350
314
  3
Grid/GridSpacingY03
350
315
  3
Grid/IsometricGrid00
350
316
  3
Grid/IsometricGrid01
350
317
  3
Grid/IsometricGrid02
350
318
  3
Grid/IsometricGrid03
350
319
  3
Grid/IsometricProjection00
350
31A
  3
Grid/IsometricProjection01
350
31B
  3
Grid/IsometricProjection02
350
31C
  3
Grid/IsometricProjection03
350
31D
  3
Grid/MetaGridSpacingX00
350
31E
  3
Grid/MetaGridSpacingX01
350
31F
  3
Grid/MetaGridSpacingX02
350
320
  3
Grid/MetaGridSpacingX03
350
321
  3
Grid/MetaGridSpacingY00
350
322
  3
Grid/MetaGridSpacingY01
350
323
  3
Grid/MetaGridSpacingY02
350
324
  3
Grid/MetaGridSpacingY03
350
325
  3
MultiPageSettings/Columns
350
326
  3
MultiPageSettings/GlueMarginsBottom
350
327
  3
MultiPageSettings/GlueMarginsLeft
350
328
  3
MultiPageSettings/GlueMarginsRight
350
329
  3
MultiPageSettings/GlueMarginsTop
350
32A
  3
MultiPageSettings/PrintCropMarks
350
32B
  3
MultiPageSettings/Rows
350
32C
  3
PageSettings/OffsetX
350
32D
  3
PageSettings/OffsetY
350
32E
  3
PageSettings/PageOrientation
350
32F
  3
PageSettings/PaperHeight
350
330
  3
PageSettings/PaperWidth
350
331
  3
PageSettings/Scale
350
332
  3
PageSettings/ShowPaperBorders
350
333
  3
UnitSettings/PaperUnit
350
334
  0
XRECORD
  5
30A
330
307
100
AcDbXrecord
280
1
290
1
  0
XRECORD
  5
30B
330
307
100
AcDbXrecord
280
1
290
1
  0
XRECORD
  5
30C
330
307
100
AcDbXrecord
280
1
290
1
  0
XRECORD
  5
30D
330
307
100
AcDbXrecord
280
1
290
1
  0
XRECORD
  5
30E
330
307
100
AcDbXrecord
280
1
1000
auto
  0
XRECORD
  5
30F
330
307
100
AcDbXrecord
280
1
1000
auto
  0
XRECORD
  5
310
330
307
100
AcDbXrecord
280
1
1000
auto
  0
XRECORD
  5
311
330
307
100
AcDbXrecord
280
1
1000
auto
  0
XRECORD
  5
312
330
307
100
AcDbXrecord
280
1
1000
auto
  0
XRECORD
  5
313
330
307
100
AcDbXrecord
280
1
1000
auto
  0
XRECORD
  5
314
330
307
100
AcDbXrecord
280
1
1000
auto
  0
XRECORD
  5
315
330
307
100
AcDbXrecord
280
1
1000
auto
  0
XRECORD
  5
316
330
307
100
AcDbXrecord
280
1
290
0
  0
XRECORD
  5
317
330
307
100
AcDbXrecord
280
1
290
0
  0
XRECORD
  5
318
330
307
100
AcDbXrecord
280
1
290
0
  0
XRECORD
  5
319
330
307
100
AcDbXrecord
280
1
290
0
  0
XRECORD
  5
31A
330
307
100
AcDbXrecord
280
1
 90
0
  0
XRECORD
  5
31B
330
307
100
AcDbXrecord
280
1
 90
0
  0
XRECORD
  5
31C
330
307
100
AcDbXrecord
280
1
 90
0
  0
XRECORD
  5
31D
330
307
100
AcDbXrecord
280
1
 90
0
  0
XRECORD
  5
31E
330
307
100
AcDbXrecord
280
1
1000
auto
  0
XRECORD
  5
31F
330
307
100
AcDbXrecord
280
1
1000
auto
  0
XRECORD
  5
320
330
307
100
AcDbXrecord
280
1
1000
auto
  0
XRECORD
  5
321
330
307
100
AcDbXrecord
280
1
1000
auto
  0
XRECORD
  5
322
330
307
100
AcDbXrecord
280
1
1000
auto
  0
XRECORD
  5
323
330
307
100
AcDbXrecord
280
1
1000
auto
  0
XRECORD
  5
324
330
307
100
AcDbXrecord
280
1
1000
auto
  0
XRECORD
  5
325
330
307
100
AcDbXrecord
280
1
1000
auto
  0
XRECORD
  5
326
330
307
100
AcDbXrecord
280
1
 90
1
  0
XRECORD
  5
327
330
307
100
AcDbXrecord
280
1
 40
10.0
  0
XRECORD
  5
328
330
307
100
AcDbXrecord
280
1
 40
10.0
  0
XRECORD
  5
329
330
307
100
AcDbXrecord
280
1
 40
10.0
  0
XRECORD
  5
32A
330
307
100
AcDbXrecord
280
1
 40
10.0
  0
XRECORD
  5
32B
330
307
100
AcDbXrecord
280
1
290
0
  0
XRECORD
  5
32C
330
307
100
AcDbXrecord
280
1
 90
1
  0
XRECORD
  5
32D
330
307
100
AcDbXrecord
280
1
 40
0.0
  0
XRECORD
  5
32E
330
307
100
AcDbXrecord
280
1
 40
0.0
  0
XRECORD
  5
32F
330
307
100
AcDbXrecord
280
1
1000
Portrait
  0
XRECORD
  5
330
330
307
100
AcDbXrecord
280
1
 40
297.0
  0
XRECORD
  5
331
330
307
100
AcDbXrecord
280
1
 40
210.0
  0
XRECORD
  5
332
330
307
100
AcDbXrecord
280
1
1000
1:1
  0
XRECORD
  5
333
330
307
100
AcDbXrecord
280
1
290
1
  0
XRECORD
  5
334
330
307
100
AcDbXrecord
280
1
 90
4
  0
ENDSEC
  0
EOF
